{"glyphs":{"0":{"ha":835,"x_min":56,"x_max":779,"o":"m 382 632 q 272 597 317 632 q 205 504 228 563 q 182 374 182 446 q 201 268 182 322 q 256 168 219 214 q 343 94 292 122 q 458 67 394 67 q 568 102 526 67 q 629 197 610 138 q 649 324 649 256 q 631 424 649 371 q 580 525 614 478 q 496 602 546 572 q 382 632 446 632 m 422 703 q 594 663 513 703 q 728 544 676 622 q 779 354 779 467 q 730 160 779 243 q 599 33 681 78 q 422 -12 518 -12 q 242 33 326 -12 q 107 160 158 78 q 56 354 56 243 q 87 503 56 438 q 171 613 118 568 q 289 680 224 657 q 422 703 354 703 z "},"1":{"ha":539,"x_min":104,"x_max":435,"o":"m 332 176 q 340 105 332 131 q 370 68 349 79 q 428 56 392 57 q 433 26 432 42 q 435 -4 435 11 q 391 -2 414 -3 q 345 -1 368 -1 q 302 0 322 0 q 269 0 282 0 q 230 0 251 0 q 187 -1 208 0 q 144 -2 165 -1 q 104 -4 124 -3 q 106 26 104 11 q 111 56 107 42 q 167 68 146 57 q 197 105 188 79 q 207 176 207 131 l 207 518 q 199 589 207 564 q 170 626 190 614 q 111 639 150 638 q 106 667 108 651 q 104 699 104 683 q 142 697 121 697 q 187 695 164 696 q 231 694 210 694 q 269 694 253 694 q 328 695 299 694 q 385 697 358 696 q 435 699 413 697 q 433 666 435 681 q 428 639 431 651 q 370 626 392 638 q 340 589 349 614 q 332 518 332 564 l 332 176 z "},"2":{"ha":746,"x_min":90,"x_max":656,"o":"m 365 703 q 482 685 429 703 q 566 628 535 668 q 597 519 597 589 q 582 442 597 476 q 533 371 567 407 q 444 283 500 335 q 363 208 406 249 q 258 108 319 167 l 238 125 l 478 125 q 537 130 517 125 q 565 153 557 135 q 575 210 574 171 q 610 208 594 210 q 640 200 626 206 q 644 108 640 147 q 656 29 647 68 q 639 7 650 17 q 611 -3 628 -3 q 474 -1 544 -1 q 343 0 404 0 q 215 -1 282 0 q 108 -3 149 -1 q 94 23 97 10 q 90 54 90 36 q 211 165 150 110 q 328 269 272 221 q 411 356 382 318 q 451 427 440 393 q 463 497 463 461 q 432 603 463 567 q 342 639 401 639 q 256 600 288 639 q 210 446 225 561 q 170 448 192 446 q 135 456 149 450 q 139 513 138 481 q 139 578 140 546 q 132 636 138 611 q 231 684 172 665 q 365 703 290 703 z "},"3":{"ha":713,"x_min":69,"x_max":643,"o":"m 272 -237 q 152 -219 204 -237 q 69 -175 100 -201 q 74 -152 69 -164 q 89 -129 79 -140 q 151 -155 107 -142 q 265 -168 196 -168 q 374 -144 319 -168 q 466 -71 429 -119 q 503 50 503 -22 q 453 185 503 131 q 301 239 403 239 q 278 237 290 239 q 257 229 267 235 q 239 254 246 240 q 232 278 232 268 q 371 458 314 383 q 464 583 428 532 l 294 583 q 231 576 254 583 q 192 549 207 569 q 164 486 178 529 q 134 490 150 486 q 107 504 118 494 q 120 602 118 556 q 122 697 122 649 q 180 697 146 697 q 260 695 214 696 q 365 694 307 694 q 465 695 424 694 q 536 697 506 696 q 592 697 567 697 q 606 673 603 688 q 608 642 610 658 q 502 510 563 586 q 372 344 442 435 q 502 318 440 349 q 603 225 564 288 q 643 69 643 163 q 599 -81 643 -11 q 471 -194 554 -151 q 272 -237 388 -237 z "},"4":{"ha":829,"x_min":63,"x_max":760,"o":"m 458 0 q 265 -3 353 0 q 88 -8 176 -6 q 71 15 79 0 q 63 44 63 29 l 536 703 q 571 699 553 703 q 599 689 589 696 l 599 -211 q 556 -217 582 -211 q 508 -228 529 -222 q 483 -237 486 -235 q 472 -217 475 -229 q 468 -192 468 -206 l 468 29 l 468 49 l 468 526 l 494 536 l 193 82 l 182 110 l 549 110 l 579 110 l 719 110 q 744 107 735 110 q 760 97 754 104 q 748 67 754 85 q 738 31 742 49 q 735 0 735 14 l 458 0 z "},"5":{"ha":668,"x_min":83,"x_max":585,"o":"m 186 697 q 274 695 235 696 q 350 694 314 694 q 426 694 386 694 q 483 714 467 694 q 499 761 499 733 q 528 767 511 765 q 561 768 546 768 q 554 687 556 731 q 553 594 553 643 q 533 576 547 583 q 490 569 518 569 q 429 569 468 569 q 348 569 390 569 q 271 567 306 568 q 222 565 236 567 l 189 425 q 397 360 308 400 q 535 256 486 319 q 585 93 585 192 q 553 -49 585 13 q 469 -152 521 -110 q 358 -216 418 -194 q 243 -237 299 -237 q 149 -224 192 -237 q 83 -193 106 -211 q 88 -170 83 -182 q 101 -147 92 -158 q 158 -161 119 -154 q 238 -168 196 -168 q 340 -141 293 -168 q 417 -63 388 -114 q 446 56 446 -12 q 417 160 446 115 q 340 236 388 206 q 236 285 293 267 q 125 308 179 303 q 108 328 114 315 q 101 351 101 340 l 186 697 z "},"6":{"ha":703,"x_min":49,"x_max":647,"o":"m 568 886 q 578 869 575 878 q 582 843 582 860 q 361 761 450 817 q 227 605 272 706 q 182 339 182 504 q 201 199 182 254 q 250 113 221 144 q 310 67 279 81 q 367 54 342 54 q 458 83 424 54 q 508 156 492 113 q 524 243 524 200 q 491 381 524 332 q 413 448 458 429 q 325 467 367 467 q 256 456 290 467 q 174 414 221 446 l 174 464 q 288 529 239 510 q 388 549 336 549 q 577 483 507 549 q 647 294 647 418 q 624 169 647 225 q 560 72 601 113 q 467 9 519 31 q 354 -12 414 -12 q 187 27 256 -12 q 83 144 118 67 q 49 333 49 221 q 81 549 49 457 q 169 703 114 640 q 292 806 224 767 q 431 865 360 846 q 568 886 503 883 z "},"7":{"ha":674,"x_min":67,"x_max":614,"o":"m 207 -244 q 177 -222 188 -237 q 167 -183 167 -207 q 206 17 167 -96 q 317 269 246 131 q 482 568 388 407 l 265 568 q 202 561 226 568 q 163 533 178 554 q 138 469 149 513 q 98 474 115 469 q 67 486 81 478 q 81 556 75 522 q 89 624 86 589 q 93 699 92 660 q 202 695 147 696 q 340 694 257 694 q 431 694 389 694 q 513 696 474 694 q 593 699 553 697 q 608 675 603 688 q 614 646 613 663 q 545 540 579 596 q 480 427 511 483 q 422 319 449 371 q 367 197 389 254 q 335 85 346 140 q 319 -33 324 29 q 314 -168 314 -94 q 249 -204 276 -183 q 207 -244 222 -225 z "},"8":{"ha":706,"x_min":69,"x_max":636,"o":"m 324 439 q 247 372 275 404 q 206 301 218 339 q 194 207 194 263 q 240 92 194 135 q 363 50 286 50 q 466 88 428 50 q 504 189 504 125 q 480 282 504 240 q 408 364 456 324 q 292 449 361 404 q 190 525 231 489 q 128 599 149 561 q 107 683 107 638 q 172 831 107 776 q 346 885 236 885 q 531 835 463 885 q 599 700 599 786 q 572 603 599 643 q 505 535 546 564 q 421 483 464 507 l 371 515 q 451 585 428 547 q 474 682 474 622 q 441 785 474 747 q 353 822 408 822 q 270 792 301 822 q 238 711 239 763 q 266 619 236 657 q 368 536 296 581 q 512 438 451 485 q 604 338 572 390 q 636 217 636 285 q 558 49 636 111 q 344 -12 479 -12 q 144 44 218 -12 q 69 196 69 100 q 124 355 69 293 q 278 474 179 417 l 324 439 z "},"9":{"ha":721,"x_min":56,"x_max":672,"o":"m 549 217 q 447 149 497 169 q 340 129 397 129 q 198 163 263 129 q 94 255 133 196 q 56 393 56 314 q 79 526 56 468 q 146 623 103 583 q 245 683 189 663 q 365 703 301 703 q 539 661 471 703 q 640 538 607 619 q 672 336 672 456 q 636 139 672 226 q 540 -15 600 51 q 408 -128 481 -82 q 261 -201 335 -174 q 125 -236 188 -228 q 113 -212 115 -224 q 111 -186 111 -201 q 354 -59 258 -131 q 497 108 450 13 q 544 326 544 203 q 490 568 544 494 q 346 642 436 642 q 263 615 299 642 q 206 542 226 588 q 185 442 185 496 q 206 324 185 369 q 262 256 228 279 q 334 225 296 233 q 407 217 372 217 q 488 233 449 217 q 554 279 526 249 l 549 217 z "},"A":{"ha":978,"x_min":35,"x_max":943,"o":"m 497 947 l 828 189 q 867 110 851 138 q 898 71 882 82 q 935 56 914 60 q 942 25 940 38 q 943 -4 943 13 q 900 -2 929 -3 q 839 -1 871 -1 q 785 0 807 0 q 746 -1 768 0 q 700 -2 724 -1 q 658 -3 676 -3 q 628 -4 639 -4 q 630 28 628 13 q 638 56 632 43 q 705 81 694 63 q 688 164 715 100 l 494 615 q 463 692 476 658 q 429 776 449 725 l 436 776 q 406 687 419 724 q 381 617 393 650 l 222 204 q 203 91 192 122 q 272 56 215 60 q 280 28 278 43 q 282 -4 282 13 q 244 -2 267 -3 q 198 -1 222 -1 q 150 0 174 0 q 85 -1 115 0 q 35 -4 54 -3 q 37 26 35 10 q 44 54 39 42 q 86 74 69 60 q 119 119 103 88 q 156 204 135 150 l 443 942 q 469 946 457 944 q 497 947 481 947 m 624 368 l 636 306 q 437 304 543 306 q 244 300 331 303 l 267 368 l 624 368 z "},"Á":{"ha":978,"x_min":35,"x_max":943,"o":"m 497 947 l 828 189 q 867 110 851 138 q 898 71 882 82 q 935 56 914 60 q 942 25 940 38 q 943 -4 943 13 q 900 -2 929 -3 q 839 -1 871 -1 q 785 0 807 0 q 746 -1 768 0 q 700 -2 724 -1 q 658 -3 676 -3 q 628 -4 639 -4 q 630 28 628 13 q 638 56 632 43 q 705 81 694 63 q 688 164 715 100 l 494 615 q 463 692 476 658 q 429 776 449 725 l 436 776 q 406 687 419 724 q 381 617 393 650 l 222 204 q 203 91 192 122 q 272 56 215 60 q 280 28 278 43 q 282 -4 282 13 q 244 -2 267 -3 q 198 -1 222 -1 q 150 0 174 0 q 85 -1 115 0 q 35 -4 54 -3 q 37 26 35 10 q 44 54 39 42 q 86 74 69 60 q 119 119 103 88 q 156 204 135 150 l 443 942 q 469 946 457 944 q 497 947 481 947 m 624 368 l 636 306 q 437 304 543 306 q 244 300 331 303 l 267 368 l 624 368 m 481 1017 q 450 1017 463 1017 q 425 1024 438 1018 q 469 1119 449 1072 q 503 1210 489 1167 q 536 1217 519 1214 q 569 1219 553 1219 q 635 1208 606 1219 q 560 1118 597 1164 q 481 1017 524 1072 z "},"Ă":{"ha":978,"x_min":35,"x_max":943,"o":"m 497 947 l 828 189 q 867 110 851 138 q 898 71 882 82 q 935 56 914 60 q 942 25 940 38 q 943 -4 943 13 q 900 -2 929 -3 q 839 -1 871 -1 q 785 0 807 0 q 746 -1 768 0 q 700 -2 724 -1 q 658 -3 676 -3 q 628 -4 639 -4 q 630 28 628 13 q 638 56 632 43 q 705 81 694 63 q 688 164 715 100 l 494 615 q 463 692 476 658 q 429 776 449 725 l 436 776 q 406 687 419 724 q 381 617 393 650 l 222 204 q 203 91 192 122 q 272 56 215 60 q 280 28 278 43 q 282 -4 282 13 q 244 -2 267 -3 q 198 -1 222 -1 q 150 0 174 0 q 85 -1 115 0 q 35 -4 54 -3 q 37 26 35 10 q 44 54 39 42 q 86 74 69 60 q 119 119 103 88 q 156 204 135 150 l 443 942 q 469 946 457 944 q 497 947 481 947 m 624 368 l 636 306 q 437 304 543 306 q 244 300 331 303 l 267 368 l 624 368 m 676 1201 q 622 1060 676 1110 q 468 1011 568 1011 q 317 1059 371 1011 q 264 1196 264 1107 q 294 1206 278 1203 q 326 1208 311 1210 q 376 1129 335 1158 q 481 1100 418 1100 q 582 1129 543 1100 q 624 1208 621 1158 q 653 1208 639 1210 q 676 1201 667 1206 z "},"Ắ":{"ha":978,"x_min":35,"x_max":943,"o":"m 497 947 l 828 189 q 867 110 851 138 q 898 71 882 82 q 935 56 914 60 q 942 25 940 38 q 943 -4 943 13 q 900 -2 929 -3 q 839 -1 871 -1 q 785 0 807 0 q 746 -1 768 0 q 700 -2 724 -1 q 658 -3 676 -3 q 628 -4 639 -4 q 630 28 628 13 q 638 56 632 43 q 705 81 694 63 q 688 164 715 100 l 494 615 q 463 692 476 658 q 429 776 449 725 l 436 776 q 406 687 419 724 q 381 617 393 650 l 222 204 q 203 91 192 122 q 272 56 215 60 q 280 28 278 43 q 282 -4 282 13 q 244 -2 267 -3 q 198 -1 222 -1 q 150 0 174 0 q 85 -1 115 0 q 35 -4 54 -3 q 37 26 35 10 q 44 54 39 42 q 86 74 69 60 q 119 119 103 88 q 156 204 135 150 l 443 942 q 469 946 457 944 q 497 947 481 947 m 624 368 l 636 306 q 437 304 543 306 q 244 300 331 303 l 267 368 l 624 368 m 676 1201 q 622 1060 676 1110 q 468 1011 568 1011 q 317 1059 371 1011 q 264 1196 264 1107 q 294 1206 278 1203 q 326 1208 311 1210 q 376 1129 335 1158 q 481 1100 418 1100 q 582 1129 543 1100 q 624 1208 621 1158 q 653 1208 639 1210 q 676 1201 667 1206 m 481 1190 q 450 1191 463 1190 q 425 1197 438 1192 q 469 1293 449 1246 q 503 1383 489 1340 q 536 1390 519 1388 q 569 1393 553 1393 q 635 1382 606 1393 q 560 1292 597 1338 q 481 1190 524 1246 z "},"Ặ":{"ha":978,"x_min":35,"x_max":943,"o":"m 497 947 l 828 189 q 867 110 851 138 q 898 71 882 82 q 935 56 914 60 q 942 25 940 38 q 943 -4 943 13 q 900 -2 929 -3 q 839 -1 871 -1 q 785 0 807 0 q 746 -1 768 0 q 700 -2 724 -1 q 658 -3 676 -3 q 628 -4 639 -4 q 630 28 628 13 q 638 56 632 43 q 705 81 694 63 q 688 164 715 100 l 494 615 q 463 692 476 658 q 429 776 449 725 l 436 776 q 406 687 419 724 q 381 617 393 650 l 222 204 q 203 91 192 122 q 272 56 215 60 q 280 28 278 43 q 282 -4 282 13 q 244 -2 267 -3 q 198 -1 222 -1 q 150 0 174 0 q 85 -1 115 0 q 35 -4 54 -3 q 37 26 35 10 q 44 54 39 42 q 86 74 69 60 q 119 119 103 88 q 156 204 135 150 l 443 942 q 469 946 457 944 q 497 947 481 947 m 624 368 l 636 306 q 437 304 543 306 q 244 300 331 303 l 267 368 l 624 368 m 454 -292 q 396 -268 419 -292 q 372 -211 372 -244 q 397 -150 372 -174 q 454 -126 422 -126 q 515 -150 492 -126 q 538 -211 538 -174 q 513 -267 538 -243 q 454 -292 489 -292 m 676 1201 q 622 1060 676 1110 q 468 1011 568 1011 q 317 1059 371 1011 q 264 1196 264 1107 q 294 1206 278 1203 q 326 1208 311 1210 q 376 1129 335 1158 q 481 1100 418 1100 q 582 1129 543 1100 q 624 1208 621 1158 q 653 1208 639 1210 q 676 1201 667 1206 z "},"Ằ":{"ha":978,"x_min":35,"x_max":943,"o":"m 497 947 l 828 189 q 867 110 851 138 q 898 71 882 82 q 935 56 914 60 q 942 25 940 38 q 943 -4 943 13 q 900 -2 929 -3 q 839 -1 871 -1 q 785 0 807 0 q 746 -1 768 0 q 700 -2 724 -1 q 658 -3 676 -3 q 628 -4 639 -4 q 630 28 628 13 q 638 56 632 43 q 705 81 694 63 q 688 164 715 100 l 494 615 q 463 692 476 658 q 429 776 449 725 l 436 776 q 406 687 419 724 q 381 617 393 650 l 222 204 q 203 91 192 122 q 272 56 215 60 q 280 28 278 43 q 282 -4 282 13 q 244 -2 267 -3 q 198 -1 222 -1 q 150 0 174 0 q 85 -1 115 0 q 35 -4 54 -3 q 37 26 35 10 q 44 54 39 42 q 86 74 69 60 q 119 119 103 88 q 156 204 135 150 l 443 942 q 469 946 457 944 q 497 947 481 947 m 624 368 l 636 306 q 437 304 543 306 q 244 300 331 303 l 267 368 l 624 368 m 676 1201 q 622 1060 676 1110 q 468 1011 568 1011 q 317 1059 371 1011 q 264 1196 264 1107 q 294 1206 278 1203 q 326 1208 311 1210 q 376 1129 335 1158 q 481 1100 418 1100 q 582 1129 543 1100 q 624 1208 621 1158 q 653 1208 639 1210 q 676 1201 667 1206 m 461 1194 q 381 1292 418 1250 q 307 1372 344 1335 q 365 1388 331 1385 q 432 1389 399 1392 q 470 1298 450 1346 q 517 1201 490 1250 q 492 1195 504 1196 q 461 1194 479 1194 z "},"Ẳ":{"ha":978,"x_min":35,"x_max":943,"o":"m 497 947 l 828 189 q 867 110 851 138 q 898 71 882 82 q 935 56 914 60 q 942 25 940 38 q 943 -4 943 13 q 900 -2 929 -3 q 839 -1 871 -1 q 785 0 807 0 q 746 -1 768 0 q 700 -2 724 -1 q 658 -3 676 -3 q 628 -4 639 -4 q 630 28 628 13 q 638 56 632 43 q 705 81 694 63 q 688 164 715 100 l 494 615 q 463 692 476 658 q 429 776 449 725 l 436 776 q 406 687 419 724 q 381 617 393 650 l 222 204 q 203 91 192 122 q 272 56 215 60 q 280 28 278 43 q 282 -4 282 13 q 244 -2 267 -3 q 198 -1 222 -1 q 150 0 174 0 q 85 -1 115 0 q 35 -4 54 -3 q 37 26 35 10 q 44 54 39 42 q 86 74 69 60 q 119 119 103 88 q 156 204 135 150 l 443 942 q 469 946 457 944 q 497 947 481 947 m 624 368 l 636 306 q 437 304 543 306 q 244 300 331 303 l 267 368 l 624 368 m 676 1201 q 622 1060 676 1110 q 468 1011 568 1011 q 317 1059 371 1011 q 264 1196 264 1107 q 294 1206 278 1203 q 326 1208 311 1210 q 376 1129 335 1158 q 481 1100 418 1100 q 582 1129 543 1100 q 624 1208 621 1158 q 653 1208 639 1210 q 676 1201 667 1206 m 443 1182 q 425 1225 425 1204 q 438 1260 425 1247 q 469 1284 451 1274 q 499 1305 486 1294 q 513 1332 513 1315 q 501 1353 513 1346 q 471 1360 490 1360 q 424 1342 440 1360 q 403 1279 408 1324 q 367 1283 386 1279 q 338 1292 349 1286 q 341 1331 340 1315 q 338 1368 342 1347 q 392 1399 360 1385 q 476 1413 424 1413 q 568 1393 532 1413 q 604 1335 604 1374 q 588 1290 604 1308 q 550 1260 571 1272 q 513 1235 529 1247 q 496 1207 496 1224 q 499 1189 496 1200 q 472 1183 485 1185 q 443 1182 458 1182 z "},"Ẵ":{"ha":978,"x_min":35,"x_max":943,"o":"m 497 947 l 828 189 q 867 110 851 138 q 898 71 882 82 q 935 56 914 60 q 942 25 940 38 q 943 -4 943 13 q 900 -2 929 -3 q 839 -1 871 -1 q 785 0 807 0 q 746 -1 768 0 q 700 -2 724 -1 q 658 -3 676 -3 q 628 -4 639 -4 q 630 28 628 13 q 638 56 632 43 q 705 81 694 63 q 688 164 715 100 l 494 615 q 463 692 476 658 q 429 776 449 725 l 436 776 q 406 687 419 724 q 381 617 393 650 l 222 204 q 203 91 192 122 q 272 56 215 60 q 280 28 278 43 q 282 -4 282 13 q 244 -2 267 -3 q 198 -1 222 -1 q 150 0 174 0 q 85 -1 115 0 q 35 -4 54 -3 q 37 26 35 10 q 44 54 39 42 q 86 74 69 60 q 119 119 103 88 q 156 204 135 150 l 443 942 q 469 946 457 944 q 497 947 481 947 m 624 368 l 636 306 q 437 304 543 306 q 244 300 331 303 l 267 368 l 624 368 m 676 1201 q 622 1060 676 1110 q 468 1011 568 1011 q 317 1059 371 1011 q 264 1196 264 1107 q 294 1206 278 1203 q 326 1208 311 1210 q 376 1129 335 1158 q 481 1100 418 1100 q 582 1129 543 1100 q 624 1208 621 1158 q 653 1208 639 1210 q 676 1201 667 1206 m 550 1254 q 501 1262 525 1254 q 456 1278 478 1269 q 410 1295 433 1288 q 363 1303 388 1303 q 312 1292 336 1303 q 264 1258 288 1281 q 250 1276 254 1265 q 246 1301 246 1288 q 325 1373 286 1354 q 400 1392 364 1392 q 467 1380 436 1392 q 525 1356 497 1368 q 582 1344 553 1344 q 622 1353 603 1344 q 660 1381 642 1363 q 678 1375 667 1379 q 696 1361 690 1371 q 628 1279 665 1304 q 550 1254 590 1254 z "},"Ǎ":{"ha":978,"x_min":35,"x_max":943,"o":"m 497 947 l 828 189 q 867 110 851 138 q 898 71 882 82 q 935 56 914 60 q 942 25 940 38 q 943 -4 943 13 q 900 -2 929 -3 q 839 -1 871 -1 q 785 0 807 0 q 746 -1 768 0 q 700 -2 724 -1 q 658 -3 676 -3 q 628 -4 639 -4 q 630 28 628 13 q 638 56 632 43 q 705 81 694 63 q 688 164 715 100 l 494 615 q 463 692 476 658 q 429 776 449 725 l 436 776 q 406 687 419 724 q 381 617 393 650 l 222 204 q 203 91 192 122 q 272 56 215 60 q 280 28 278 43 q 282 -4 282 13 q 244 -2 267 -3 q 198 -1 222 -1 q 150 0 174 0 q 85 -1 115 0 q 35 -4 54 -3 q 37 26 35 10 q 44 54 39 42 q 86 74 69 60 q 119 119 103 88 q 156 204 135 150 l 443 942 q 469 946 457 944 q 497 947 481 947 m 624 368 l 636 306 q 437 304 543 306 q 244 300 331 303 l 267 368 l 624 368 m 439 1015 q 360 1099 406 1054 q 258 1188 314 1143 q 278 1207 265 1199 q 306 1219 290 1215 q 390 1169 344 1197 q 475 1124 436 1142 q 531 1152 494 1133 q 603 1191 567 1171 q 660 1224 639 1211 q 676 1203 671 1218 q 682 1176 681 1188 q 582 1104 635 1146 q 488 1021 529 1063 q 463 1017 476 1018 q 439 1015 450 1015 z "},"Â":{"ha":978,"x_min":35,"x_max":943,"o":"m 497 947 l 828 189 q 867 110 851 138 q 898 71 882 82 q 935 56 914 60 q 942 25 940 38 q 943 -4 943 13 q 900 -2 929 -3 q 839 -1 871 -1 q 785 0 807 0 q 746 -1 768 0 q 700 -2 724 -1 q 658 -3 676 -3 q 628 -4 639 -4 q 630 28 628 13 q 638 56 632 43 q 705 81 694 63 q 688 164 715 100 l 494 615 q 463 692 476 658 q 429 776 449 725 l 436 776 q 406 687 419 724 q 381 617 393 650 l 222 204 q 203 91 192 122 q 272 56 215 60 q 280 28 278 43 q 282 -4 282 13 q 244 -2 267 -3 q 198 -1 222 -1 q 150 0 174 0 q 85 -1 115 0 q 35 -4 54 -3 q 37 26 35 10 q 44 54 39 42 q 86 74 69 60 q 119 119 103 88 q 156 204 135 150 l 443 942 q 469 946 457 944 q 497 947 481 947 m 624 368 l 636 306 q 437 304 543 306 q 244 300 331 303 l 267 368 l 624 368 m 281 1011 q 265 1033 269 1018 q 258 1058 260 1049 q 358 1131 306 1089 q 453 1214 411 1172 q 478 1218 464 1217 q 501 1219 492 1219 q 581 1136 535 1181 q 682 1047 626 1092 q 663 1028 675 1036 q 635 1015 650 1019 q 551 1066 596 1039 q 465 1111 506 1093 q 410 1083 446 1103 q 338 1044 374 1064 q 281 1011 301 1025 z "},"Ấ":{"ha":978,"x_min":35,"x_max":943,"o":"m 497 947 l 828 189 q 867 110 851 138 q 898 71 882 82 q 935 56 914 60 q 942 25 940 38 q 943 -4 943 13 q 900 -2 929 -3 q 839 -1 871 -1 q 785 0 807 0 q 746 -1 768 0 q 700 -2 724 -1 q 658 -3 676 -3 q 628 -4 639 -4 q 630 28 628 13 q 638 56 632 43 q 705 81 694 63 q 688 164 715 100 l 494 615 q 463 692 476 658 q 429 776 449 725 l 436 776 q 406 687 419 724 q 381 617 393 650 l 222 204 q 203 91 192 122 q 272 56 215 60 q 280 28 278 43 q 282 -4 282 13 q 244 -2 267 -3 q 198 -1 222 -1 q 150 0 174 0 q 85 -1 115 0 q 35 -4 54 -3 q 37 26 35 10 q 44 54 39 42 q 86 74 69 60 q 119 119 103 88 q 156 204 135 150 l 443 942 q 469 946 457 944 q 497 947 481 947 m 624 368 l 636 306 q 437 304 543 306 q 244 300 331 303 l 267 368 l 624 368 m 668 1181 q 639 1181 651 1181 q 615 1188 626 1182 q 656 1277 638 1233 q 689 1363 675 1321 q 719 1369 704 1367 q 751 1371 735 1371 q 813 1361 785 1371 q 743 1275 778 1318 q 668 1181 708 1232 m 281 1011 q 265 1033 269 1018 q 258 1058 260 1049 q 358 1131 306 1089 q 453 1214 411 1172 q 478 1218 464 1217 q 501 1219 492 1219 q 581 1136 535 1181 q 682 1047 626 1092 q 663 1028 675 1036 q 635 1015 650 1019 q 551 1066 596 1039 q 465 1111 506 1093 q 410 1083 446 1103 q 338 1044 374 1064 q 281 1011 301 1025 z "},"Ậ":{"ha":978,"x_min":35,"x_max":943,"o":"m 497 947 l 828 189 q 867 110 851 138 q 898 71 882 82 q 935 56 914 60 q 942 25 940 38 q 943 -4 943 13 q 900 -2 929 -3 q 839 -1 871 -1 q 785 0 807 0 q 746 -1 768 0 q 700 -2 724 -1 q 658 -3 676 -3 q 628 -4 639 -4 q 630 28 628 13 q 638 56 632 43 q 705 81 694 63 q 688 164 715 100 l 494 615 q 463 692 476 658 q 429 776 449 725 l 436 776 q 406 687 419 724 q 381 617 393 650 l 222 204 q 203 91 192 122 q 272 56 215 60 q 280 28 278 43 q 282 -4 282 13 q 244 -2 267 -3 q 198 -1 222 -1 q 150 0 174 0 q 85 -1 115 0 q 35 -4 54 -3 q 37 26 35 10 q 44 54 39 42 q 86 74 69 60 q 119 119 103 88 q 156 204 135 150 l 443 942 q 469 946 457 944 q 497 947 481 947 m 624 368 l 636 306 q 437 304 543 306 q 244 300 331 303 l 267 368 l 624 368 m 454 -292 q 396 -268 419 -292 q 372 -211 372 -244 q 397 -150 372 -174 q 454 -126 422 -126 q 515 -150 492 -126 q 538 -211 538 -174 q 513 -267 538 -243 q 454 -292 489 -292 m 281 1011 q 265 1033 269 1018 q 258 1058 260 1049 q 358 1131 306 1089 q 453 1214 411 1172 q 478 1218 464 1217 q 501 1219 492 1219 q 581 1136 535 1181 q 682 1047 626 1092 q 663 1028 675 1036 q 635 1015 650 1019 q 551 1066 596 1039 q 465 1111 506 1093 q 410 1083 446 1103 q 338 1044 374 1064 q 281 1011 301 1025 z "},"Ầ":{"ha":978,"x_min":35,"x_max":943,"o":"m 497 947 l 828 189 q 867 110 851 138 q 898 71 882 82 q 935 56 914 60 q 942 25 940 38 q 943 -4 943 13 q 900 -2 929 -3 q 839 -1 871 -1 q 785 0 807 0 q 746 -1 768 0 q 700 -2 724 -1 q 658 -3 676 -3 q 628 -4 639 -4 q 630 28 628 13 q 638 56 632 43 q 705 81 694 63 q 688 164 715 100 l 494 615 q 463 692 476 658 q 429 776 449 725 l 436 776 q 406 687 419 724 q 381 617 393 650 l 222 204 q 203 91 192 122 q 272 56 215 60 q 280 28 278 43 q 282 -4 282 13 q 244 -2 267 -3 q 198 -1 222 -1 q 150 0 174 0 q 85 -1 115 0 q 35 -4 54 -3 q 37 26 35 10 q 44 54 39 42 q 86 74 69 60 q 119 119 103 88 q 156 204 135 150 l 443 942 q 469 946 457 944 q 497 947 481 947 m 624 368 l 636 306 q 437 304 543 306 q 244 300 331 303 l 267 368 l 624 368 m 281 1011 q 265 1033 269 1018 q 258 1058 260 1049 q 358 1131 306 1089 q 453 1214 411 1172 q 478 1218 464 1217 q 501 1219 492 1219 q 581 1136 535 1181 q 682 1047 626 1092 q 663 1028 675 1036 q 635 1015 650 1019 q 551 1066 596 1039 q 465 1111 506 1093 q 410 1083 446 1103 q 338 1044 374 1064 q 281 1011 301 1025 m 632 1172 q 552 1270 589 1228 q 478 1350 515 1313 q 535 1366 501 1363 q 603 1367 569 1369 q 641 1276 621 1324 q 688 1179 661 1228 q 663 1173 675 1174 q 632 1172 650 1172 z "},"Ẩ":{"ha":978,"x_min":35,"x_max":943,"o":"m 497 947 l 828 189 q 867 110 851 138 q 898 71 882 82 q 935 56 914 60 q 942 25 940 38 q 943 -4 943 13 q 900 -2 929 -3 q 839 -1 871 -1 q 785 0 807 0 q 746 -1 768 0 q 700 -2 724 -1 q 658 -3 676 -3 q 628 -4 639 -4 q 630 28 628 13 q 638 56 632 43 q 705 81 694 63 q 688 164 715 100 l 494 615 q 463 692 476 658 q 429 776 449 725 l 436 776 q 406 687 419 724 q 381 617 393 650 l 222 204 q 203 91 192 122 q 272 56 215 60 q 280 28 278 43 q 282 -4 282 13 q 244 -2 267 -3 q 198 -1 222 -1 q 150 0 174 0 q 85 -1 115 0 q 35 -4 54 -3 q 37 26 35 10 q 44 54 39 42 q 86 74 69 60 q 119 119 103 88 q 156 204 135 150 l 443 942 q 469 946 457 944 q 497 947 481 947 m 624 368 l 636 306 q 437 304 543 306 q 244 300 331 303 l 267 368 l 624 368 m 281 1011 q 265 1033 269 1018 q 258 1058 260 1049 q 358 1131 306 1089 q 453 1214 411 1172 q 478 1218 464 1217 q 501 1219 492 1219 q 581 1136 535 1181 q 682 1047 626 1092 q 663 1028 675 1036 q 635 1015 650 1019 q 551 1066 596 1039 q 465 1111 506 1093 q 410 1083 446 1103 q 338 1044 374 1064 q 281 1011 301 1025 m 624 1200 q 606 1243 606 1222 q 619 1278 606 1265 q 649 1302 632 1292 q 680 1323 667 1313 q 693 1350 693 1333 q 682 1371 693 1364 q 651 1378 671 1378 q 605 1360 621 1378 q 583 1297 589 1342 q 548 1301 567 1297 q 518 1310 529 1304 q 522 1349 521 1333 q 518 1386 522 1365 q 572 1417 540 1403 q 657 1431 604 1431 q 749 1411 713 1431 q 785 1353 785 1392 q 768 1308 785 1326 q 731 1278 751 1290 q 693 1253 710 1265 q 676 1225 676 1242 q 679 1207 676 1218 q 652 1201 665 1203 q 624 1200 639 1200 z "},"Ẫ":{"ha":978,"x_min":35,"x_max":943,"o":"m 497 947 l 828 189 q 867 110 851 138 q 898 71 882 82 q 935 56 914 60 q 942 25 940 38 q 943 -4 943 13 q 900 -2 929 -3 q 839 -1 871 -1 q 785 0 807 0 q 746 -1 768 0 q 700 -2 724 -1 q 658 -3 676 -3 q 628 -4 639 -4 q 630 28 628 13 q 638 56 632 43 q 705 81 694 63 q 688 164 715 100 l 494 615 q 463 692 476 658 q 429 776 449 725 l 436 776 q 406 687 419 724 q 381 617 393 650 l 222 204 q 203 91 192 122 q 272 56 215 60 q 280 28 278 43 q 282 -4 282 13 q 244 -2 267 -3 q 198 -1 222 -1 q 150 0 174 0 q 85 -1 115 0 q 35 -4 54 -3 q 37 26 35 10 q 44 54 39 42 q 86 74 69 60 q 119 119 103 88 q 156 204 135 150 l 443 942 q 469 946 457 944 q 497 947 481 947 m 624 368 l 636 306 q 437 304 543 306 q 244 300 331 303 l 267 368 l 624 368 m 281 1011 q 265 1033 269 1018 q 258 1058 260 1049 q 358 1131 306 1089 q 453 1214 411 1172 q 478 1218 464 1217 q 501 1219 492 1219 q 581 1136 535 1181 q 682 1047 626 1092 q 663 1028 675 1036 q 635 1015 650 1019 q 551 1066 596 1039 q 465 1111 506 1093 q 410 1083 446 1103 q 338 1044 374 1064 q 281 1011 301 1025 m 550 1292 q 501 1299 525 1292 q 456 1316 478 1307 q 410 1333 433 1325 q 363 1340 388 1340 q 312 1329 336 1340 q 264 1296 288 1318 q 250 1314 254 1303 q 246 1339 246 1325 q 325 1410 286 1392 q 400 1429 364 1429 q 467 1417 436 1429 q 525 1394 497 1406 q 582 1382 553 1382 q 622 1391 603 1382 q 660 1418 642 1400 q 678 1413 667 1417 q 696 1399 690 1408 q 628 1317 665 1342 q 550 1292 590 1292 z "},"Ȁ":{"ha":978,"x_min":35,"x_max":943,"o":"m 497 947 l 828 189 q 867 110 851 138 q 898 71 882 82 q 935 56 914 60 q 942 25 940 38 q 943 -4 943 13 q 900 -2 929 -3 q 839 -1 871 -1 q 785 0 807 0 q 746 -1 768 0 q 700 -2 724 -1 q 658 -3 676 -3 q 628 -4 639 -4 q 630 28 628 13 q 638 56 632 43 q 705 81 694 63 q 688 164 715 100 l 494 615 q 463 692 476 658 q 429 776 449 725 l 436 776 q 406 687 419 724 q 381 617 393 650 l 222 204 q 203 91 192 122 q 272 56 215 60 q 280 28 278 43 q 282 -4 282 13 q 244 -2 267 -3 q 198 -1 222 -1 q 150 0 174 0 q 85 -1 115 0 q 35 -4 54 -3 q 37 26 35 10 q 44 54 39 42 q 86 74 69 60 q 119 119 103 88 q 156 204 135 150 l 443 942 q 469 946 457 944 q 497 947 481 947 m 624 368 l 636 306 q 437 304 543 306 q 244 300 331 303 l 267 368 l 624 368 m 353 1003 q 273 1101 310 1058 q 199 1181 236 1143 q 256 1197 222 1193 q 324 1197 290 1200 q 362 1106 342 1154 q 408 1010 382 1058 q 383 1003 396 1004 q 353 1003 371 1003 m 561 1003 q 481 1101 518 1058 q 407 1181 444 1143 q 465 1197 431 1193 q 532 1197 499 1200 q 570 1106 550 1154 q 617 1010 590 1058 q 592 1003 604 1004 q 561 1003 579 1003 z "},"Ä":{"ha":978,"x_min":35,"x_max":943,"o":"m 497 947 l 828 189 q 867 110 851 138 q 898 71 882 82 q 935 56 914 60 q 942 25 940 38 q 943 -4 943 13 q 900 -2 929 -3 q 839 -1 871 -1 q 785 0 807 0 q 746 -1 768 0 q 700 -2 724 -1 q 658 -3 676 -3 q 628 -4 639 -4 q 630 28 628 13 q 638 56 632 43 q 705 81 694 63 q 688 164 715 100 l 494 615 q 463 692 476 658 q 429 776 449 725 l 436 776 q 406 687 419 724 q 381 617 393 650 l 222 204 q 203 91 192 122 q 272 56 215 60 q 280 28 278 43 q 282 -4 282 13 q 244 -2 267 -3 q 198 -1 222 -1 q 150 0 174 0 q 85 -1 115 0 q 35 -4 54 -3 q 37 26 35 10 q 44 54 39 42 q 86 74 69 60 q 119 119 103 88 q 156 204 135 150 l 443 942 q 469 946 457 944 q 497 947 481 947 m 624 368 l 636 306 q 437 304 543 306 q 244 300 331 303 l 267 368 l 624 368 m 608 1017 q 547 1039 568 1017 q 526 1096 526 1061 q 548 1148 526 1129 q 604 1167 569 1167 q 661 1147 639 1167 q 683 1096 683 1128 q 667 1042 683 1067 q 608 1017 650 1017 m 336 1017 q 279 1037 301 1017 q 257 1088 257 1057 q 275 1142 257 1118 q 333 1167 293 1167 q 394 1144 375 1167 q 413 1090 413 1122 q 390 1038 413 1058 q 336 1017 368 1017 z "},"Ạ":{"ha":978,"x_min":35,"x_max":943,"o":"m 497 947 l 828 189 q 867 110 851 138 q 898 71 882 82 q 935 56 914 60 q 942 25 940 38 q 943 -4 943 13 q 900 -2 929 -3 q 839 -1 871 -1 q 785 0 807 0 q 746 -1 768 0 q 700 -2 724 -1 q 658 -3 676 -3 q 628 -4 639 -4 q 630 28 628 13 q 638 56 632 43 q 705 81 694 63 q 688 164 715 100 l 494 615 q 463 692 476 658 q 429 776 449 725 l 436 776 q 406 687 419 724 q 381 617 393 650 l 222 204 q 203 91 192 122 q 272 56 215 60 q 280 28 278 43 q 282 -4 282 13 q 244 -2 267 -3 q 198 -1 222 -1 q 150 0 174 0 q 85 -1 115 0 q 35 -4 54 -3 q 37 26 35 10 q 44 54 39 42 q 86 74 69 60 q 119 119 103 88 q 156 204 135 150 l 443 942 q 469 946 457 944 q 497 947 481 947 m 624 368 l 636 306 q 437 304 543 306 q 244 300 331 303 l 267 368 l 624 368 m 454 -292 q 396 -268 419 -292 q 372 -211 372 -244 q 397 -150 372 -174 q 454 -126 422 -126 q 515 -150 492 -126 q 538 -211 538 -174 q 513 -267 538 -243 q 454 -292 489 -292 z "},"À":{"ha":978,"x_min":35,"x_max":943,"o":"m 497 947 l 828 189 q 867 110 851 138 q 898 71 882 82 q 935 56 914 60 q 942 25 940 38 q 943 -4 943 13 q 900 -2 929 -3 q 839 -1 871 -1 q 785 0 807 0 q 746 -1 768 0 q 700 -2 724 -1 q 658 -3 676 -3 q 628 -4 639 -4 q 630 28 628 13 q 638 56 632 43 q 705 81 694 63 q 688 164 715 100 l 494 615 q 463 692 476 658 q 429 776 449 725 l 436 776 q 406 687 419 724 q 381 617 393 650 l 222 204 q 203 91 192 122 q 272 56 215 60 q 280 28 278 43 q 282 -4 282 13 q 244 -2 267 -3 q 198 -1 222 -1 q 150 0 174 0 q 85 -1 115 0 q 35 -4 54 -3 q 37 26 35 10 q 44 54 39 42 q 86 74 69 60 q 119 119 103 88 q 156 204 135 150 l 443 942 q 469 946 457 944 q 497 947 481 947 m 624 368 l 636 306 q 437 304 543 306 q 244 300 331 303 l 267 368 l 624 368 m 461 1017 q 381 1115 418 1072 q 307 1194 344 1157 q 365 1210 331 1207 q 432 1211 399 1214 q 470 1120 450 1168 q 517 1024 490 1072 q 492 1017 504 1018 q 461 1017 479 1017 z "},"Ả":{"ha":978,"x_min":35,"x_max":943,"o":"m 497 947 l 828 189 q 867 110 851 138 q 898 71 882 82 q 935 56 914 60 q 942 25 940 38 q 943 -4 943 13 q 900 -2 929 -3 q 839 -1 871 -1 q 785 0 807 0 q 746 -1 768 0 q 700 -2 724 -1 q 658 -3 676 -3 q 628 -4 639 -4 q 630 28 628 13 q 638 56 632 43 q 705 81 694 63 q 688 164 715 100 l 494 615 q 463 692 476 658 q 429 776 449 725 l 436 776 q 406 687 419 724 q 381 617 393 650 l 222 204 q 203 91 192 122 q 272 56 215 60 q 280 28 278 43 q 282 -4 282 13 q 244 -2 267 -3 q 198 -1 222 -1 q 150 0 174 0 q 85 -1 115 0 q 35 -4 54 -3 q 37 26 35 10 q 44 54 39 42 q 86 74 69 60 q 119 119 103 88 q 156 204 135 150 l 443 942 q 469 946 457 944 q 497 947 481 947 m 624 368 l 636 306 q 437 304 543 306 q 244 300 331 303 l 267 368 l 624 368 m 443 1008 q 425 1051 425 1031 q 438 1087 425 1074 q 469 1110 451 1100 q 499 1131 486 1121 q 513 1158 513 1142 q 501 1179 513 1172 q 471 1186 490 1186 q 424 1168 440 1186 q 403 1106 408 1150 q 367 1109 386 1106 q 338 1118 349 1113 q 341 1158 340 1142 q 338 1194 342 1174 q 392 1225 360 1211 q 476 1239 424 1239 q 568 1219 532 1239 q 604 1161 604 1200 q 588 1117 604 1135 q 550 1086 571 1099 q 513 1062 529 1074 q 496 1033 496 1050 q 499 1015 496 1026 q 472 1010 485 1011 q 443 1008 458 1008 z "},"Ȃ":{"ha":978,"x_min":35,"x_max":943,"o":"m 497 947 l 828 189 q 867 110 851 138 q 898 71 882 82 q 935 56 914 60 q 942 25 940 38 q 943 -4 943 13 q 900 -2 929 -3 q 839 -1 871 -1 q 785 0 807 0 q 746 -1 768 0 q 700 -2 724 -1 q 658 -3 676 -3 q 628 -4 639 -4 q 630 28 628 13 q 638 56 632 43 q 705 81 694 63 q 688 164 715 100 l 494 615 q 463 692 476 658 q 429 776 449 725 l 436 776 q 406 687 419 724 q 381 617 393 650 l 222 204 q 203 91 192 122 q 272 56 215 60 q 280 28 278 43 q 282 -4 282 13 q 244 -2 267 -3 q 198 -1 222 -1 q 150 0 174 0 q 85 -1 115 0 q 35 -4 54 -3 q 37 26 35 10 q 44 54 39 42 q 86 74 69 60 q 119 119 103 88 q 156 204 135 150 l 443 942 q 469 946 457 944 q 497 947 481 947 m 624 368 l 636 306 q 437 304 543 306 q 244 300 331 303 l 267 368 l 624 368 m 264 1018 q 318 1159 264 1110 q 472 1208 372 1208 q 624 1161 571 1208 q 676 1024 676 1114 q 646 1013 663 1017 q 614 1011 629 1010 q 564 1090 606 1061 q 460 1119 522 1119 q 358 1090 397 1119 q 317 1011 319 1061 q 288 1012 301 1010 q 264 1018 274 1014 z "},"Ā":{"ha":978,"x_min":35,"x_max":943,"o":"m 497 947 l 828 189 q 867 110 851 138 q 898 71 882 82 q 935 56 914 60 q 942 25 940 38 q 943 -4 943 13 q 900 -2 929 -3 q 839 -1 871 -1 q 785 0 807 0 q 746 -1 768 0 q 700 -2 724 -1 q 658 -3 676 -3 q 628 -4 639 -4 q 630 28 628 13 q 638 56 632 43 q 705 81 694 63 q 688 164 715 100 l 494 615 q 463 692 476 658 q 429 776 449 725 l 436 776 q 406 687 419 724 q 381 617 393 650 l 222 204 q 203 91 192 122 q 272 56 215 60 q 280 28 278 43 q 282 -4 282 13 q 244 -2 267 -3 q 198 -1 222 -1 q 150 0 174 0 q 85 -1 115 0 q 35 -4 54 -3 q 37 26 35 10 q 44 54 39 42 q 86 74 69 60 q 119 119 103 88 q 156 204 135 150 l 443 942 q 469 946 457 944 q 497 947 481 947 m 624 368 l 636 306 q 437 304 543 306 q 244 300 331 303 l 267 368 l 624 368 m 724 1118 q 721 1089 724 1104 q 711 1058 718 1074 q 617 1058 689 1058 q 441 1058 544 1058 q 218 1054 338 1057 q 222 1084 218 1063 q 231 1118 225 1106 l 724 1118 z "},"Ą":{"ha":978,"x_min":35,"x_max":943,"o":"m 497 947 l 828 189 q 867 110 851 138 q 898 71 882 82 q 935 56 914 60 q 942 25 940 38 q 943 -4 943 13 q 900 -2 929 -3 q 839 -1 871 -1 q 785 0 807 0 q 746 -1 768 0 q 700 -2 724 -1 q 658 -3 676 -3 q 628 -4 639 -4 q 630 28 628 13 q 638 56 632 43 q 705 81 694 63 q 688 164 715 100 l 494 615 q 463 692 476 658 q 429 776 449 725 l 436 776 q 406 687 419 724 q 381 617 393 650 l 222 204 q 203 91 192 122 q 272 56 215 60 q 280 28 278 43 q 282 -4 282 13 q 244 -2 267 -3 q 198 -1 222 -1 q 150 0 174 0 q 85 -1 115 0 q 35 -4 54 -3 q 37 26 35 10 q 44 54 39 42 q 86 74 69 60 q 119 119 103 88 q 156 204 135 150 l 443 942 q 469 946 457 944 q 497 947 481 947 m 624 368 l 636 306 q 437 304 543 306 q 244 300 331 303 l 267 368 l 624 368 m 790 28 l 836 0 q 727 -68 763 -26 q 692 -151 692 -110 q 715 -206 692 -186 q 779 -226 738 -226 q 807 -224 792 -226 q 838 -215 822 -221 q 844 -231 842 -222 q 847 -249 846 -239 q 847 -269 849 -258 q 795 -301 821 -283 q 744 -343 769 -319 q 732 -345 739 -344 q 718 -346 725 -346 q 664 -335 696 -346 q 608 -294 632 -324 q 583 -211 583 -265 q 628 -90 583 -149 q 790 28 672 -32 z "},"Å":{"ha":978,"x_min":35,"x_max":943,"o":"m 497 947 l 828 189 q 867 110 851 138 q 898 71 882 82 q 935 56 914 60 q 942 25 940 38 q 943 -4 943 13 q 900 -2 929 -3 q 839 -1 871 -1 q 785 0 807 0 q 746 -1 768 0 q 700 -2 724 -1 q 658 -3 676 -3 q 628 -4 639 -4 q 630 28 628 13 q 638 56 632 43 q 705 81 694 63 q 688 164 715 100 l 494 615 q 463 692 476 658 q 429 776 449 725 l 436 776 q 406 687 419 724 q 381 617 393 650 l 222 204 q 203 91 192 122 q 272 56 215 60 q 280 28 278 43 q 282 -4 282 13 q 244 -2 267 -3 q 198 -1 222 -1 q 150 0 174 0 q 85 -1 115 0 q 35 -4 54 -3 q 37 26 35 10 q 44 54 39 42 q 86 74 69 60 q 119 119 103 88 q 156 204 135 150 l 443 942 q 469 946 457 944 q 497 947 481 947 m 624 368 l 636 306 q 437 304 543 306 q 244 300 331 303 l 267 368 l 624 368 m 465 1004 q 377 1032 415 1004 q 339 1107 339 1060 q 378 1186 339 1156 q 475 1217 418 1217 q 563 1192 524 1217 q 603 1115 603 1168 q 563 1036 603 1068 q 465 1004 524 1004 m 478 1047 q 515 1063 499 1047 q 532 1104 532 1078 q 516 1153 532 1128 q 465 1178 500 1178 q 426 1160 442 1178 q 411 1113 411 1143 q 428 1066 411 1085 q 478 1047 446 1047 z "},"Ǻ":{"ha":978,"x_min":35,"x_max":943,"o":"m 497 947 l 828 189 q 867 110 851 138 q 898 71 882 82 q 935 56 914 60 q 942 25 940 38 q 943 -4 943 13 q 900 -2 929 -3 q 839 -1 871 -1 q 785 0 807 0 q 746 -1 768 0 q 700 -2 724 -1 q 658 -3 676 -3 q 628 -4 639 -4 q 630 28 628 13 q 638 56 632 43 q 705 81 694 63 q 688 164 715 100 l 494 615 q 463 692 476 658 q 429 776 449 725 l 436 776 q 406 687 419 724 q 381 617 393 650 l 222 204 q 203 91 192 122 q 272 56 215 60 q 280 28 278 43 q 282 -4 282 13 q 244 -2 267 -3 q 198 -1 222 -1 q 150 0 174 0 q 85 -1 115 0 q 35 -4 54 -3 q 37 26 35 10 q 44 54 39 42 q 86 74 69 60 q 119 119 103 88 q 156 204 135 150 l 443 942 q 469 946 457 944 q 497 947 481 947 m 624 368 l 636 306 q 437 304 543 306 q 244 300 331 303 l 267 368 l 624 368 m 465 1004 q 377 1032 415 1004 q 339 1107 339 1060 q 378 1186 339 1156 q 475 1217 418 1217 q 563 1192 524 1217 q 603 1115 603 1168 q 563 1036 603 1068 q 465 1004 524 1004 m 478 1047 q 515 1063 499 1047 q 532 1104 532 1078 q 516 1153 532 1128 q 465 1178 500 1178 q 426 1160 442 1178 q 411 1113 411 1143 q 428 1066 411 1085 q 478 1047 446 1047 m 481 1294 q 450 1295 463 1294 q 425 1301 438 1296 q 469 1397 449 1350 q 503 1488 489 1444 q 536 1494 519 1492 q 569 1497 553 1497 q 635 1486 606 1497 q 560 1396 597 1442 q 481 1294 524 1350 z "},"Ã":{"ha":978,"x_min":35,"x_max":943,"o":"m 497 947 l 828 189 q 867 110 851 138 q 898 71 882 82 q 935 56 914 60 q 942 25 940 38 q 943 -4 943 13 q 900 -2 929 -3 q 839 -1 871 -1 q 785 0 807 0 q 746 -1 768 0 q 700 -2 724 -1 q 658 -3 676 -3 q 628 -4 639 -4 q 630 28 628 13 q 638 56 632 43 q 705 81 694 63 q 688 164 715 100 l 494 615 q 463 692 476 658 q 429 776 449 725 l 436 776 q 406 687 419 724 q 381 617 393 650 l 222 204 q 203 91 192 122 q 272 56 215 60 q 280 28 278 43 q 282 -4 282 13 q 244 -2 267 -3 q 198 -1 222 -1 q 150 0 174 0 q 85 -1 115 0 q 35 -4 54 -3 q 37 26 35 10 q 44 54 39 42 q 86 74 69 60 q 119 119 103 88 q 156 204 135 150 l 443 942 q 469 946 457 944 q 497 947 481 947 m 624 368 l 636 306 q 437 304 543 306 q 244 300 331 303 l 267 368 l 624 368 m 550 1039 q 501 1047 525 1039 q 456 1063 478 1054 q 410 1080 433 1072 q 363 1088 388 1088 q 312 1076 336 1088 q 264 1043 288 1065 q 250 1061 254 1050 q 246 1086 246 1072 q 325 1158 286 1139 q 400 1176 364 1176 q 467 1165 436 1176 q 525 1141 497 1153 q 582 1129 553 1129 q 622 1138 603 1129 q 660 1165 642 1147 q 678 1160 667 1164 q 696 1146 690 1156 q 628 1064 665 1089 q 550 1039 590 1039 z "},"Æ":{"ha":1265,"x_min":35,"x_max":1208,"o":"m 400 474 l 842 474 q 928 487 897 474 q 970 525 958 500 q 982 585 982 550 q 1017 592 1003 590 q 1050 594 1032 594 q 1049 553 1050 581 q 1048 496 1049 526 q 1047 440 1047 465 q 1048 384 1047 415 q 1049 325 1049 353 q 1050 282 1050 297 q 1017 283 1032 282 q 986 289 1001 283 q 972 353 983 325 q 929 398 961 382 q 831 414 897 414 q 619 413 706 414 q 472 411 532 413 q 365 407 413 410 l 400 474 m 640 750 q 641 808 640 783 q 644 862 642 832 q 654 939 647 892 l 771 939 l 771 192 q 783 106 771 133 q 817 70 794 78 q 868 63 839 63 l 868 0 q 774 0 818 0 q 689 -1 729 0 q 612 -2 649 -1 q 542 -3 575 -3 q 544 28 542 13 q 551 56 546 44 q 606 72 588 61 q 633 110 625 82 q 640 192 640 138 l 640 750 m 718 939 q 960 940 851 939 q 1132 942 1068 940 q 1144 831 1136 894 q 1161 724 1151 768 q 1144 714 1154 718 q 1122 708 1133 710 q 1099 707 1111 707 q 1076 790 1096 750 q 1009 857 1057 831 q 871 883 961 883 l 718 883 l 718 939 m 671 939 q 645 872 656 897 q 622 823 635 847 q 586 758 610 799 q 502 613 547 692 q 413 458 457 535 q 333 317 369 381 q 276 215 297 253 q 239 121 244 154 q 250 73 233 88 q 300 53 267 58 q 308 26 306 40 q 310 -4 310 13 q 238 -1 278 -1 q 164 0 199 0 q 117 -1 142 0 q 70 -2 92 -1 q 35 -4 49 -3 q 37 26 35 10 q 44 54 39 42 q 87 69 67 57 q 132 113 107 81 q 194 211 157 146 l 519 772 q 538 851 551 826 q 458 882 525 875 q 451 910 453 894 q 450 942 450 926 q 528 941 486 942 q 609 940 571 940 q 671 939 647 939 m 767 63 l 904 63 q 1036 83 992 63 q 1104 142 1081 103 q 1147 238 1128 181 q 1182 224 1168 232 q 1208 204 1196 217 q 1183 101 1193 157 q 1165 -3 1172 46 q 1072 -2 1122 -3 q 967 -1 1021 -1 q 861 0 913 0 q 767 0 810 0 l 767 63 z "},"Ǽ":{"ha":1265,"x_min":35,"x_max":1208,"o":"m 400 474 l 842 474 q 928 487 897 474 q 970 525 958 500 q 982 585 982 550 q 1017 592 1003 590 q 1050 594 1032 594 q 1049 553 1050 581 q 1048 496 1049 526 q 1047 440 1047 465 q 1048 384 1047 415 q 1049 325 1049 353 q 1050 282 1050 297 q 1017 283 1032 282 q 986 289 1001 283 q 972 353 983 325 q 929 398 961 382 q 831 414 897 414 q 619 413 706 414 q 472 411 532 413 q 365 407 413 410 l 400 474 m 640 750 q 641 808 640 783 q 644 862 642 832 q 654 939 647 892 l 771 939 l 771 192 q 783 106 771 133 q 817 70 794 78 q 868 63 839 63 l 868 0 q 774 0 818 0 q 689 -1 729 0 q 612 -2 649 -1 q 542 -3 575 -3 q 544 28 542 13 q 551 56 546 44 q 606 72 588 61 q 633 110 625 82 q 640 192 640 138 l 640 750 m 718 939 q 960 940 851 939 q 1132 942 1068 940 q 1144 831 1136 894 q 1161 724 1151 768 q 1144 714 1154 718 q 1122 708 1133 710 q 1099 707 1111 707 q 1076 790 1096 750 q 1009 857 1057 831 q 871 883 961 883 l 718 883 l 718 939 m 671 939 q 645 872 656 897 q 622 823 635 847 q 586 758 610 799 q 502 613 547 692 q 413 458 457 535 q 333 317 369 381 q 276 215 297 253 q 239 121 244 154 q 250 73 233 88 q 300 53 267 58 q 308 26 306 40 q 310 -4 310 13 q 238 -1 278 -1 q 164 0 199 0 q 117 -1 142 0 q 70 -2 92 -1 q 35 -4 49 -3 q 37 26 35 10 q 44 54 39 42 q 87 69 67 57 q 132 113 107 81 q 194 211 157 146 l 519 772 q 538 851 551 826 q 458 882 525 875 q 451 910 453 894 q 450 942 450 926 q 528 941 486 942 q 609 940 571 940 q 671 939 647 939 m 767 63 l 904 63 q 1036 83 992 63 q 1104 142 1081 103 q 1147 238 1128 181 q 1182 224 1168 232 q 1208 204 1196 217 q 1183 101 1193 157 q 1165 -3 1172 46 q 1072 -2 1122 -3 q 967 -1 1021 -1 q 861 0 913 0 q 767 0 810 0 l 767 63 m 719 1017 q 689 1017 701 1017 q 664 1024 676 1018 q 708 1119 688 1072 q 742 1210 728 1167 q 775 1217 758 1214 q 808 1219 792 1219 q 874 1208 844 1219 q 799 1118 836 1164 q 719 1017 763 1072 z "},"B":{"ha":865,"x_min":78,"x_max":789,"o":"m 79 943 q 147 940 107 942 q 224 939 186 939 q 290 940 257 939 q 357 941 324 940 q 422 942 390 942 q 569 925 503 942 q 677 865 636 908 q 718 739 718 821 q 664 587 718 650 q 517 510 610 524 q 652 483 590 506 q 751 410 714 460 q 789 274 789 360 q 755 136 789 199 q 647 37 721 74 q 456 0 574 0 q 363 0 417 0 q 254 -1 310 0 q 151 -2 199 -1 q 78 -4 104 -3 q 79 30 78 15 q 85 56 81 44 q 143 69 122 58 q 173 109 164 81 q 182 192 182 138 l 182 763 q 174 835 182 810 q 144 871 165 860 q 86 883 124 882 q 81 910 82 894 q 79 943 79 926 m 313 890 l 313 192 q 323 106 313 135 q 362 69 333 78 q 442 60 390 60 q 592 112 544 60 q 640 254 640 164 q 614 360 640 319 q 544 423 588 401 q 448 453 500 444 q 344 461 396 461 l 296 461 l 296 521 l 356 521 q 493 546 446 521 q 558 612 540 571 q 576 697 576 653 q 544 809 576 769 q 463 865 511 849 q 369 881 415 881 q 334 878 351 881 q 293 869 317 876 l 313 890 z "},"C":{"ha":907,"x_min":49,"x_max":838,"o":"m 490 -12 q 262 49 361 -12 q 106 222 163 111 q 49 476 49 332 q 88 685 49 596 q 192 833 126 774 q 341 922 258 893 q 513 951 424 951 q 672 933 600 951 q 821 879 744 915 q 808 776 811 831 q 806 664 806 721 q 771 654 788 657 q 732 651 754 651 q 703 803 729 750 q 631 875 676 856 q 524 894 585 894 q 374 863 436 894 q 272 777 311 831 q 213 656 232 724 q 194 514 194 588 q 237 290 194 390 q 358 131 279 189 q 549 72 438 72 q 685 94 615 72 q 813 154 754 117 q 828 134 821 147 q 838 111 836 121 q 676 17 756 47 q 490 -12 596 -12 z "},"Ć":{"ha":907,"x_min":49,"x_max":838,"o":"m 490 -12 q 262 49 361 -12 q 106 222 163 111 q 49 476 49 332 q 88 685 49 596 q 192 833 126 774 q 341 922 258 893 q 513 951 424 951 q 672 933 600 951 q 821 879 744 915 q 808 776 811 831 q 806 664 806 721 q 771 654 788 657 q 732 651 754 651 q 703 803 729 750 q 631 875 676 856 q 524 894 585 894 q 374 863 436 894 q 272 777 311 831 q 213 656 232 724 q 194 514 194 588 q 237 290 194 390 q 358 131 279 189 q 549 72 438 72 q 685 94 615 72 q 813 154 754 117 q 828 134 821 147 q 838 111 836 121 q 676 17 756 47 q 490 -12 596 -12 m 529 1017 q 499 1017 511 1017 q 474 1024 486 1018 q 517 1119 497 1072 q 551 1210 538 1167 q 585 1217 568 1214 q 618 1219 601 1219 q 683 1208 654 1219 q 609 1118 646 1164 q 529 1017 572 1072 z "},"Č":{"ha":907,"x_min":49,"x_max":838,"o":"m 490 -12 q 262 49 361 -12 q 106 222 163 111 q 49 476 49 332 q 88 685 49 596 q 192 833 126 774 q 341 922 258 893 q 513 951 424 951 q 672 933 600 951 q 821 879 744 915 q 808 776 811 831 q 806 664 806 721 q 771 654 788 657 q 732 651 754 651 q 703 803 729 750 q 631 875 676 856 q 524 894 585 894 q 374 863 436 894 q 272 777 311 831 q 213 656 232 724 q 194 514 194 588 q 237 290 194 390 q 358 131 279 189 q 549 72 438 72 q 685 94 615 72 q 813 154 754 117 q 828 134 821 147 q 838 111 836 121 q 676 17 756 47 q 490 -12 596 -12 m 488 1015 q 408 1099 454 1054 q 307 1188 363 1143 q 326 1207 314 1199 q 354 1219 339 1215 q 439 1169 393 1197 q 524 1124 485 1142 q 579 1152 543 1133 q 651 1191 615 1171 q 708 1224 688 1211 q 724 1203 719 1218 q 731 1176 729 1188 q 631 1104 683 1146 q 536 1021 578 1063 q 512 1017 525 1018 q 488 1015 499 1015 z "},"Ç":{"ha":907,"x_min":49,"x_max":838,"o":"m 490 -12 q 262 49 361 -12 q 106 222 163 111 q 49 476 49 332 q 88 685 49 596 q 192 833 126 774 q 341 922 258 893 q 513 951 424 951 q 672 933 600 951 q 821 879 744 915 q 808 776 811 831 q 806 664 806 721 q 771 654 788 657 q 732 651 754 651 q 703 803 729 750 q 631 875 676 856 q 524 894 585 894 q 374 863 436 894 q 272 777 311 831 q 213 656 232 724 q 194 514 194 588 q 237 290 194 390 q 358 131 279 189 q 549 72 438 72 q 685 94 615 72 q 813 154 754 117 q 828 134 821 147 q 838 111 836 121 q 676 17 756 47 q 490 -12 596 -12 m 415 -336 q 408 -314 410 -326 q 406 -292 406 -301 q 481 -272 447 -292 q 515 -215 515 -251 q 490 -160 515 -181 q 425 -140 464 -140 q 408 -119 415 -132 q 400 -87 400 -106 l 469 22 l 539 22 l 472 -69 q 560 -112 528 -79 q 593 -196 593 -146 q 564 -273 593 -242 q 493 -320 535 -304 q 415 -336 451 -336 z "},"Ḉ":{"ha":907,"x_min":49,"x_max":838,"o":"m 490 -12 q 262 49 361 -12 q 106 222 163 111 q 49 476 49 332 q 88 685 49 596 q 192 833 126 774 q 341 922 258 893 q 513 951 424 951 q 672 933 600 951 q 821 879 744 915 q 808 776 811 831 q 806 664 806 721 q 771 654 788 657 q 732 651 754 651 q 703 803 729 750 q 631 875 676 856 q 524 894 585 894 q 374 863 436 894 q 272 777 311 831 q 213 656 232 724 q 194 514 194 588 q 237 290 194 390 q 358 131 279 189 q 549 72 438 72 q 685 94 615 72 q 813 154 754 117 q 828 134 821 147 q 838 111 836 121 q 676 17 756 47 q 490 -12 596 -12 m 415 -336 q 408 -314 410 -326 q 406 -292 406 -301 q 481 -272 447 -292 q 515 -215 515 -251 q 490 -160 515 -181 q 425 -140 464 -140 q 408 -119 415 -132 q 400 -87 400 -106 l 469 22 l 539 22 l 472 -69 q 560 -112 528 -79 q 593 -196 593 -146 q 564 -273 593 -242 q 493 -320 535 -304 q 415 -336 451 -336 m 529 1017 q 499 1017 511 1017 q 474 1024 486 1018 q 517 1119 497 1072 q 551 1210 538 1167 q 585 1217 568 1214 q 618 1219 601 1219 q 683 1208 654 1219 q 609 1118 646 1164 q 529 1017 572 1072 z "},"Ĉ":{"ha":907,"x_min":49,"x_max":838,"o":"m 490 -12 q 262 49 361 -12 q 106 222 163 111 q 49 476 49 332 q 88 685 49 596 q 192 833 126 774 q 341 922 258 893 q 513 951 424 951 q 672 933 600 951 q 821 879 744 915 q 808 776 811 831 q 806 664 806 721 q 771 654 788 657 q 732 651 754 651 q 703 803 729 750 q 631 875 676 856 q 524 894 585 894 q 374 863 436 894 q 272 777 311 831 q 213 656 232 724 q 194 514 194 588 q 237 290 194 390 q 358 131 279 189 q 549 72 438 72 q 685 94 615 72 q 813 154 754 117 q 828 134 821 147 q 838 111 836 121 q 676 17 756 47 q 490 -12 596 -12 m 329 1011 q 313 1033 318 1018 q 307 1058 308 1049 q 407 1131 354 1089 q 501 1214 460 1172 q 526 1218 513 1217 q 550 1219 540 1219 q 629 1136 583 1181 q 731 1047 675 1092 q 711 1028 724 1036 q 683 1015 699 1019 q 599 1066 644 1039 q 514 1111 554 1093 q 458 1083 494 1103 q 386 1044 422 1064 q 329 1011 350 1025 z "},"Ċ":{"ha":907,"x_min":49,"x_max":838,"o":"m 490 -12 q 262 49 361 -12 q 106 222 163 111 q 49 476 49 332 q 88 685 49 596 q 192 833 126 774 q 341 922 258 893 q 513 951 424 951 q 672 933 600 951 q 821 879 744 915 q 808 776 811 831 q 806 664 806 721 q 771 654 788 657 q 732 651 754 651 q 703 803 729 750 q 631 875 676 856 q 524 894 585 894 q 374 863 436 894 q 272 777 311 831 q 213 656 232 724 q 194 514 194 588 q 237 290 194 390 q 358 131 279 189 q 549 72 438 72 q 685 94 615 72 q 813 154 754 117 q 828 134 821 147 q 838 111 836 121 q 676 17 756 47 q 490 -12 596 -12 m 518 1000 q 460 1024 483 1000 q 436 1081 436 1047 q 461 1142 436 1118 q 518 1165 486 1165 q 578 1142 556 1165 q 601 1081 601 1118 q 577 1024 601 1049 q 518 1000 553 1000 z "},"D":{"ha":1014,"x_min":78,"x_max":965,"o":"m 78 -4 q 79 30 78 15 q 85 56 81 44 q 143 69 122 58 q 173 109 164 81 q 182 192 182 138 l 182 763 q 174 835 182 810 q 144 871 165 860 q 86 883 124 882 q 81 910 82 894 q 79 943 79 926 q 135 941 101 942 q 206 940 169 940 q 274 939 243 939 q 356 940 314 939 q 438 942 397 942 q 586 931 511 942 q 729 894 661 921 q 851 816 797 867 q 935 687 904 765 q 965 493 965 608 q 938 300 965 381 q 863 165 910 219 q 760 78 817 111 q 644 28 703 44 q 531 6 585 11 q 438 0 476 0 q 348 0 399 0 q 245 -1 297 0 q 149 -2 193 -1 q 78 -4 104 -3 m 438 63 q 591 83 521 63 q 713 149 661 103 q 794 275 765 196 q 822 472 822 354 q 788 665 822 585 q 697 794 754 744 q 566 866 639 843 q 415 889 493 889 q 349 884 385 889 q 301 872 313 879 l 313 908 l 313 192 q 322 113 313 140 q 359 74 332 85 q 438 63 386 63 z "},"Ǳ":{"ha":1890,"x_min":78,"x_max":1803,"o":"m 78 -4 q 79 30 78 15 q 85 56 81 44 q 143 69 122 58 q 173 109 164 81 q 182 192 182 138 l 182 763 q 174 835 182 810 q 144 871 165 860 q 86 883 124 882 q 81 910 82 894 q 79 943 79 926 q 135 941 101 942 q 206 940 169 940 q 274 939 243 939 q 356 940 314 939 q 438 942 397 942 q 586 931 511 942 q 729 894 661 921 q 851 816 797 867 q 935 687 904 765 q 965 493 965 608 q 938 300 965 381 q 863 165 910 219 q 760 78 817 111 q 644 28 703 44 q 531 6 585 11 q 438 0 476 0 q 348 0 399 0 q 245 -1 297 0 q 149 -2 193 -1 q 78 -4 104 -3 m 438 63 q 591 83 521 63 q 713 149 661 103 q 794 275 765 196 q 822 472 822 354 q 788 665 822 585 q 697 794 754 744 q 566 866 639 843 q 415 889 493 889 q 349 884 385 889 q 301 872 313 879 l 313 908 l 313 192 q 322 113 313 140 q 359 74 332 85 q 438 63 386 63 m 1156 942 q 1219 941 1176 942 q 1312 940 1261 940 q 1411 939 1363 939 q 1494 939 1460 939 q 1583 939 1540 939 q 1669 940 1625 939 q 1761 942 1713 940 q 1772 922 1768 935 q 1776 896 1776 910 q 1605 601 1690 746 q 1433 315 1519 456 q 1256 35 1346 175 l 1242 58 l 1485 58 q 1619 71 1571 58 q 1691 121 1667 83 q 1731 235 1715 158 q 1803 211 1776 231 q 1790 144 1796 181 q 1782 70 1785 108 q 1778 -4 1779 32 q 1651 -1 1710 -1 q 1536 0 1593 0 q 1415 0 1479 0 q 1234 -1 1319 0 q 1106 -4 1149 -1 q 1097 17 1100 7 q 1094 40 1094 26 q 1226 254 1161 147 q 1357 468 1292 361 q 1486 683 1422 575 q 1613 899 1550 790 l 1628 883 l 1407 883 q 1308 870 1346 883 q 1247 819 1269 857 q 1208 706 1224 782 q 1167 708 1190 706 q 1129 719 1143 711 q 1149 825 1142 764 q 1156 942 1156 886 z "},"Ǆ":{"ha":1890,"x_min":78,"x_max":1803,"o":"m 78 -4 q 79 30 78 15 q 85 56 81 44 q 143 69 122 58 q 173 109 164 81 q 182 192 182 138 l 182 763 q 174 835 182 810 q 144 871 165 860 q 86 883 124 882 q 81 910 82 894 q 79 943 79 926 q 135 941 101 942 q 206 940 169 940 q 274 939 243 939 q 356 940 314 939 q 438 942 397 942 q 586 931 511 942 q 729 894 661 921 q 851 816 797 867 q 935 687 904 765 q 965 493 965 608 q 938 300 965 381 q 863 165 910 219 q 760 78 817 111 q 644 28 703 44 q 531 6 585 11 q 438 0 476 0 q 348 0 399 0 q 245 -1 297 0 q 149 -2 193 -1 q 78 -4 104 -3 m 438 63 q 591 83 521 63 q 713 149 661 103 q 794 275 765 196 q 822 472 822 354 q 788 665 822 585 q 697 794 754 744 q 566 866 639 843 q 415 889 493 889 q 349 884 385 889 q 301 872 313 879 l 313 908 l 313 192 q 322 113 313 140 q 359 74 332 85 q 438 63 386 63 m 1156 942 q 1219 941 1176 942 q 1312 940 1261 940 q 1411 939 1363 939 q 1494 939 1460 939 q 1583 939 1540 939 q 1669 940 1625 939 q 1761 942 1713 940 q 1772 922 1768 935 q 1776 896 1776 910 q 1605 601 1690 746 q 1433 315 1519 456 q 1256 35 1346 175 l 1242 58 l 1485 58 q 1619 71 1571 58 q 1691 121 1667 83 q 1731 235 1715 158 q 1803 211 1776 231 q 1790 144 1796 181 q 1782 70 1785 108 q 1778 -4 1779 32 q 1651 -1 1710 -1 q 1536 0 1593 0 q 1415 0 1479 0 q 1234 -1 1319 0 q 1106 -4 1149 -1 q 1097 17 1100 7 q 1094 40 1094 26 q 1226 254 1161 147 q 1357 468 1292 361 q 1486 683 1422 575 q 1613 899 1550 790 l 1628 883 l 1407 883 q 1308 870 1346 883 q 1247 819 1269 857 q 1208 706 1224 782 q 1167 708 1190 706 q 1129 719 1143 711 q 1149 825 1142 764 q 1156 942 1156 886 m 1442 1015 q 1363 1099 1408 1054 q 1261 1188 1317 1143 q 1281 1207 1268 1199 q 1308 1219 1293 1215 q 1393 1169 1347 1197 q 1478 1124 1439 1142 q 1533 1152 1497 1133 q 1606 1191 1569 1171 q 1663 1224 1642 1211 q 1678 1203 1674 1218 q 1685 1176 1683 1188 q 1585 1104 1638 1146 q 1490 1021 1532 1063 q 1466 1017 1479 1018 q 1442 1015 1453 1015 z "},"Ð":{"ha":1014,"x_min":69,"x_max":965,"o":"m 69 433 q 73 472 69 449 q 82 504 76 494 l 261 504 l 311 504 l 501 504 q 499 467 501 483 q 488 435 496 450 q 426 436 454 436 q 371 436 399 436 q 308 436 343 436 l 260 436 q 174 436 213 436 q 69 433 135 436 m 78 -4 q 79 30 78 15 q 85 56 81 44 q 143 69 122 58 q 173 109 164 81 q 182 192 182 138 l 182 763 q 174 835 182 810 q 144 871 165 860 q 86 883 124 882 q 81 910 82 894 q 79 943 79 926 q 135 941 101 942 q 206 940 169 940 q 274 939 243 939 q 356 940 314 939 q 438 942 397 942 q 586 931 511 942 q 729 894 661 921 q 851 816 797 867 q 935 687 904 765 q 965 493 965 608 q 938 300 965 381 q 863 165 910 219 q 760 78 817 111 q 644 28 703 44 q 531 6 585 11 q 438 0 476 0 q 348 0 399 0 q 245 -1 297 0 q 149 -2 193 -1 q 78 -4 104 -3 m 438 63 q 591 83 521 63 q 713 149 661 103 q 794 275 765 196 q 822 472 822 354 q 788 665 822 585 q 697 794 754 744 q 566 866 639 843 q 415 889 493 889 q 349 884 385 889 q 301 872 313 879 l 313 908 l 313 192 q 322 113 313 140 q 359 74 332 85 q 438 63 386 63 z "},"Ď":{"ha":1014,"x_min":78,"x_max":965,"o":"m 78 -4 q 79 30 78 15 q 85 56 81 44 q 143 69 122 58 q 173 109 164 81 q 182 192 182 138 l 182 763 q 174 835 182 810 q 144 871 165 860 q 86 883 124 882 q 81 910 82 894 q 79 943 79 926 q 135 941 101 942 q 206 940 169 940 q 274 939 243 939 q 356 940 314 939 q 438 942 397 942 q 586 931 511 942 q 729 894 661 921 q 851 816 797 867 q 935 687 904 765 q 965 493 965 608 q 938 300 965 381 q 863 165 910 219 q 760 78 817 111 q 644 28 703 44 q 531 6 585 11 q 438 0 476 0 q 348 0 399 0 q 245 -1 297 0 q 149 -2 193 -1 q 78 -4 104 -3 m 438 63 q 591 83 521 63 q 713 149 661 103 q 794 275 765 196 q 822 472 822 354 q 788 665 822 585 q 697 794 754 744 q 566 866 639 843 q 415 889 493 889 q 349 884 385 889 q 301 872 313 879 l 313 908 l 313 192 q 322 113 313 140 q 359 74 332 85 q 438 63 386 63 m 461 1015 q 382 1099 428 1054 q 281 1188 336 1143 q 300 1207 288 1199 q 328 1219 313 1215 q 413 1169 367 1197 q 497 1124 458 1142 q 553 1152 517 1133 q 625 1191 589 1171 q 682 1224 661 1211 q 698 1203 693 1218 q 704 1176 703 1188 q 604 1104 657 1146 q 510 1021 551 1063 q 485 1017 499 1018 q 461 1015 472 1015 z "},"Ḑ":{"ha":1014,"x_min":78,"x_max":965,"o":"m 78 -4 q 79 30 78 15 q 85 56 81 44 q 143 69 122 58 q 173 109 164 81 q 182 192 182 138 l 182 763 q 174 835 182 810 q 144 871 165 860 q 86 883 124 882 q 81 910 82 894 q 79 943 79 926 q 135 941 101 942 q 206 940 169 940 q 274 939 243 939 q 356 940 314 939 q 438 942 397 942 q 586 931 511 942 q 729 894 661 921 q 851 816 797 867 q 935 687 904 765 q 965 493 965 608 q 938 300 965 381 q 863 165 910 219 q 760 78 817 111 q 644 28 703 44 q 531 6 585 11 q 438 0 476 0 q 348 0 399 0 q 245 -1 297 0 q 149 -2 193 -1 q 78 -4 104 -3 m 438 63 q 591 83 521 63 q 713 149 661 103 q 794 275 765 196 q 822 472 822 354 q 788 665 822 585 q 697 794 754 744 q 566 866 639 843 q 415 889 493 889 q 349 884 385 889 q 301 872 313 879 l 313 908 l 313 192 q 322 113 313 140 q 359 74 332 85 q 438 63 386 63 m 514 -60 q 549 -94 538 -69 q 561 -153 561 -118 q 516 -285 561 -225 q 413 -389 471 -344 q 374 -360 385 -383 q 426 -292 408 -325 q 443 -235 443 -260 q 392 -185 443 -190 q 394 -146 390 -174 q 403 -101 397 -118 q 463 -84 435 -94 q 514 -60 492 -74 z "},"Đ":{"ha":1014,"x_min":69,"x_max":965,"o":"m 69 433 q 73 472 69 449 q 82 504 76 494 l 261 504 l 311 504 l 501 504 q 499 467 501 483 q 488 435 496 450 q 426 436 454 436 q 371 436 399 436 q 308 436 343 436 l 260 436 q 174 436 213 436 q 69 433 135 436 m 78 -4 q 79 30 78 15 q 85 56 81 44 q 143 69 122 58 q 173 109 164 81 q 182 192 182 138 l 182 763 q 174 835 182 810 q 144 871 165 860 q 86 883 124 882 q 81 910 82 894 q 79 943 79 926 q 135 941 101 942 q 206 940 169 940 q 274 939 243 939 q 356 940 314 939 q 438 942 397 942 q 586 931 511 942 q 729 894 661 921 q 851 816 797 867 q 935 687 904 765 q 965 493 965 608 q 938 300 965 381 q 863 165 910 219 q 760 78 817 111 q 644 28 703 44 q 531 6 585 11 q 438 0 476 0 q 348 0 399 0 q 245 -1 297 0 q 149 -2 193 -1 q 78 -4 104 -3 m 438 63 q 591 83 521 63 q 713 149 661 103 q 794 275 765 196 q 822 472 822 354 q 788 665 822 585 q 697 794 754 744 q 566 866 639 843 q 415 889 493 889 q 349 884 385 889 q 301 872 313 879 l 313 908 l 313 192 q 322 113 313 140 q 359 74 332 85 q 438 63 386 63 z "},"Ḍ":{"ha":1014,"x_min":78,"x_max":965,"o":"m 78 -4 q 79 30 78 15 q 85 56 81 44 q 143 69 122 58 q 173 109 164 81 q 182 192 182 138 l 182 763 q 174 835 182 810 q 144 871 165 860 q 86 883 124 882 q 81 910 82 894 q 79 943 79 926 q 135 941 101 942 q 206 940 169 940 q 274 939 243 939 q 356 940 314 939 q 438 942 397 942 q 586 931 511 942 q 729 894 661 921 q 851 816 797 867 q 935 687 904 765 q 965 493 965 608 q 938 300 965 381 q 863 165 910 219 q 760 78 817 111 q 644 28 703 44 q 531 6 585 11 q 438 0 476 0 q 348 0 399 0 q 245 -1 297 0 q 149 -2 193 -1 q 78 -4 104 -3 m 438 63 q 591 83 521 63 q 713 149 661 103 q 794 275 765 196 q 822 472 822 354 q 788 665 822 585 q 697 794 754 744 q 566 866 639 843 q 415 889 493 889 q 349 884 385 889 q 301 872 313 879 l 313 908 l 313 192 q 322 113 313 140 q 359 74 332 85 q 438 63 386 63 m 478 -292 q 419 -268 443 -292 q 396 -211 396 -244 q 421 -150 396 -174 q 478 -126 446 -126 q 538 -150 515 -126 q 561 -211 561 -174 q 537 -267 561 -243 q 478 -292 513 -292 z "},"Ḏ":{"ha":1014,"x_min":78,"x_max":965,"o":"m 78 -4 q 79 30 78 15 q 85 56 81 44 q 143 69 122 58 q 173 109 164 81 q 182 192 182 138 l 182 763 q 174 835 182 810 q 144 871 165 860 q 86 883 124 882 q 81 910 82 894 q 79 943 79 926 q 135 941 101 942 q 206 940 169 940 q 274 939 243 939 q 356 940 314 939 q 438 942 397 942 q 586 931 511 942 q 729 894 661 921 q 851 816 797 867 q 935 687 904 765 q 965 493 965 608 q 938 300 965 381 q 863 165 910 219 q 760 78 817 111 q 644 28 703 44 q 531 6 585 11 q 438 0 476 0 q 348 0 399 0 q 245 -1 297 0 q 149 -2 193 -1 q 78 -4 104 -3 m 438 63 q 591 83 521 63 q 713 149 661 103 q 794 275 765 196 q 822 472 822 354 q 788 665 822 585 q 697 794 754 744 q 566 866 639 843 q 415 889 493 889 q 349 884 385 889 q 301 872 313 879 l 313 908 l 313 192 q 322 113 313 140 q 359 74 332 85 q 438 63 386 63 m 226 -229 q 230 -199 226 -221 q 239 -165 233 -178 l 732 -165 q 729 -194 732 -179 q 719 -225 726 -210 q 625 -225 697 -225 q 449 -226 553 -225 q 226 -229 346 -226 z "},"ǲ":{"ha":1710,"x_min":78,"x_max":1647,"o":"m 78 -4 q 79 30 78 15 q 85 56 81 44 q 143 69 122 58 q 173 109 164 81 q 182 192 182 138 l 182 763 q 174 835 182 810 q 144 871 165 860 q 86 883 124 882 q 81 910 82 894 q 79 943 79 926 q 135 941 101 942 q 206 940 169 940 q 274 939 243 939 q 356 940 314 939 q 438 942 397 942 q 586 931 511 942 q 729 894 661 921 q 851 816 797 867 q 935 687 904 765 q 965 493 965 608 q 938 300 965 381 q 863 165 910 219 q 760 78 817 111 q 644 28 703 44 q 531 6 585 11 q 438 0 476 0 q 348 0 399 0 q 245 -1 297 0 q 149 -2 193 -1 q 78 -4 104 -3 m 438 63 q 591 83 521 63 q 713 149 661 103 q 794 275 765 196 q 822 472 822 354 q 788 665 822 585 q 697 794 754 744 q 566 866 639 843 q 415 889 493 889 q 349 884 385 889 q 301 872 313 879 l 313 908 l 313 192 q 322 113 313 140 q 359 74 332 85 q 438 63 386 63 m 1107 -3 q 1091 22 1097 7 q 1085 53 1085 36 q 1155 151 1114 93 q 1242 273 1196 208 q 1331 399 1288 338 q 1410 512 1375 461 q 1463 592 1444 563 l 1490 575 l 1324 575 q 1244 564 1274 575 q 1199 521 1215 553 q 1169 428 1183 489 q 1133 431 1153 428 q 1097 439 1113 433 q 1104 536 1101 485 q 1107 640 1107 588 q 1179 638 1136 639 q 1271 637 1222 638 q 1361 636 1319 636 q 1449 637 1403 636 q 1538 638 1496 638 q 1607 640 1581 639 q 1621 613 1617 629 q 1625 581 1625 596 q 1538 457 1589 529 q 1431 308 1486 385 q 1324 161 1375 231 q 1238 46 1274 92 l 1226 63 l 1426 63 q 1504 74 1476 63 q 1545 117 1532 85 q 1563 217 1558 150 q 1597 215 1579 217 q 1636 208 1615 214 q 1638 152 1636 186 q 1641 83 1639 118 q 1647 24 1643 49 q 1603 -3 1635 -3 q 1534 -1 1568 -1 q 1458 -1 1500 -1 q 1354 0 1415 0 q 1203 -1 1263 0 q 1107 -3 1144 -1 z "},"ǅ":{"ha":1710,"x_min":78,"x_max":1647,"o":"m 78 -4 q 79 30 78 15 q 85 56 81 44 q 143 69 122 58 q 173 109 164 81 q 182 192 182 138 l 182 763 q 174 835 182 810 q 144 871 165 860 q 86 883 124 882 q 81 910 82 894 q 79 943 79 926 q 135 941 101 942 q 206 940 169 940 q 274 939 243 939 q 356 940 314 939 q 438 942 397 942 q 586 931 511 942 q 729 894 661 921 q 851 816 797 867 q 935 687 904 765 q 965 493 965 608 q 938 300 965 381 q 863 165 910 219 q 760 78 817 111 q 644 28 703 44 q 531 6 585 11 q 438 0 476 0 q 348 0 399 0 q 245 -1 297 0 q 149 -2 193 -1 q 78 -4 104 -3 m 438 63 q 591 83 521 63 q 713 149 661 103 q 794 275 765 196 q 822 472 822 354 q 788 665 822 585 q 697 794 754 744 q 566 866 639 843 q 415 889 493 889 q 349 884 385 889 q 301 872 313 879 l 313 908 l 313 192 q 322 113 313 140 q 359 74 332 85 q 438 63 386 63 m 1107 -3 q 1091 22 1097 7 q 1085 53 1085 36 q 1155 151 1114 93 q 1242 273 1196 208 q 1331 399 1288 338 q 1410 512 1375 461 q 1463 592 1444 563 l 1490 575 l 1324 575 q 1244 564 1274 575 q 1199 521 1215 553 q 1169 428 1183 489 q 1133 431 1153 428 q 1097 439 1113 433 q 1104 536 1101 485 q 1107 640 1107 588 q 1179 638 1136 639 q 1271 637 1222 638 q 1361 636 1319 636 q 1449 637 1403 636 q 1538 638 1496 638 q 1607 640 1581 639 q 1621 613 1617 629 q 1625 581 1625 596 q 1538 457 1589 529 q 1431 308 1486 385 q 1324 161 1375 231 q 1238 46 1274 92 l 1226 63 l 1426 63 q 1504 74 1476 63 q 1545 117 1532 85 q 1563 217 1558 150 q 1597 215 1579 217 q 1636 208 1615 214 q 1638 152 1636 186 q 1641 83 1639 118 q 1647 24 1643 49 q 1603 -3 1635 -3 q 1534 -1 1568 -1 q 1458 -1 1500 -1 q 1354 0 1415 0 q 1203 -1 1263 0 q 1107 -3 1144 -1 m 1329 718 q 1240 826 1290 768 q 1133 933 1189 883 q 1142 958 1136 947 q 1161 974 1149 968 q 1262 906 1208 943 q 1360 844 1315 868 q 1404 872 1376 853 q 1462 911 1432 890 q 1516 949 1492 932 q 1549 974 1540 967 q 1574 964 1563 972 q 1592 942 1586 956 q 1479 840 1539 899 q 1374 724 1419 781 q 1350 719 1363 721 q 1329 718 1338 718 z "},"E":{"ha":835,"x_min":78,"x_max":778,"o":"m 78 943 q 130 941 99 942 q 196 940 161 940 q 262 939 231 939 q 311 939 293 939 l 311 192 q 321 113 311 140 q 358 74 331 85 q 438 63 386 63 l 438 0 q 348 0 399 0 q 245 -1 297 0 q 149 -2 193 -1 q 78 -4 104 -3 q 79 30 78 15 q 85 56 81 44 q 143 69 122 58 q 172 109 164 81 q 181 192 181 138 l 181 763 q 172 835 181 810 q 143 871 164 860 q 85 883 122 882 q 79 910 81 894 q 78 943 78 926 m 717 238 q 751 224 738 232 q 778 204 765 217 q 752 101 763 157 q 735 -3 742 46 q 663 -1 708 -1 q 560 -1 618 -1 q 438 0 503 0 l 438 63 l 446 63 q 597 83 546 63 q 672 142 647 103 q 717 238 697 181 m 619 625 q 617 550 618 590 q 617 474 617 510 q 617 393 617 438 q 619 313 618 349 q 586 314 601 313 q 556 319 571 315 q 517 417 550 392 q 399 443 485 443 l 299 443 l 299 503 l 399 503 q 518 525 485 503 q 553 615 551 547 q 586 623 571 621 q 619 625 601 625 m 701 943 q 708 872 704 913 q 718 793 713 832 q 731 724 724 754 q 703 710 719 714 q 668 707 688 707 q 646 790 665 750 q 578 857 626 831 q 440 883 531 883 l 282 883 l 311 939 q 499 940 421 939 q 628 942 578 940 q 701 943 679 943 z "},"É":{"ha":835,"x_min":78,"x_max":778,"o":"m 78 943 q 130 941 99 942 q 196 940 161 940 q 262 939 231 939 q 311 939 293 939 l 311 192 q 321 113 311 140 q 358 74 331 85 q 438 63 386 63 l 438 0 q 348 0 399 0 q 245 -1 297 0 q 149 -2 193 -1 q 78 -4 104 -3 q 79 30 78 15 q 85 56 81 44 q 143 69 122 58 q 172 109 164 81 q 181 192 181 138 l 181 763 q 172 835 181 810 q 143 871 164 860 q 85 883 122 882 q 79 910 81 894 q 78 943 78 926 m 717 238 q 751 224 738 232 q 778 204 765 217 q 752 101 763 157 q 735 -3 742 46 q 663 -1 708 -1 q 560 -1 618 -1 q 438 0 503 0 l 438 63 l 446 63 q 597 83 546 63 q 672 142 647 103 q 717 238 697 181 m 619 625 q 617 550 618 590 q 617 474 617 510 q 617 393 617 438 q 619 313 618 349 q 586 314 601 313 q 556 319 571 315 q 517 417 550 392 q 399 443 485 443 l 299 443 l 299 503 l 399 503 q 518 525 485 503 q 553 615 551 547 q 586 623 571 621 q 619 625 601 625 m 701 943 q 708 872 704 913 q 718 793 713 832 q 731 724 724 754 q 703 710 719 714 q 668 707 688 707 q 646 790 665 750 q 578 857 626 831 q 440 883 531 883 l 282 883 l 311 939 q 499 940 421 939 q 628 942 578 940 q 701 943 679 943 m 410 1017 q 379 1017 392 1017 q 354 1024 367 1018 q 398 1119 378 1072 q 432 1210 418 1167 q 465 1217 449 1214 q 499 1219 482 1219 q 564 1208 535 1219 q 490 1118 526 1164 q 410 1017 453 1072 z "},"Ĕ":{"ha":835,"x_min":78,"x_max":778,"o":"m 78 943 q 130 941 99 942 q 196 940 161 940 q 262 939 231 939 q 311 939 293 939 l 311 192 q 321 113 311 140 q 358 74 331 85 q 438 63 386 63 l 438 0 q 348 0 399 0 q 245 -1 297 0 q 149 -2 193 -1 q 78 -4 104 -3 q 79 30 78 15 q 85 56 81 44 q 143 69 122 58 q 172 109 164 81 q 181 192 181 138 l 181 763 q 172 835 181 810 q 143 871 164 860 q 85 883 122 882 q 79 910 81 894 q 78 943 78 926 m 717 238 q 751 224 738 232 q 778 204 765 217 q 752 101 763 157 q 735 -3 742 46 q 663 -1 708 -1 q 560 -1 618 -1 q 438 0 503 0 l 438 63 l 446 63 q 597 83 546 63 q 672 142 647 103 q 717 238 697 181 m 619 625 q 617 550 618 590 q 617 474 617 510 q 617 393 617 438 q 619 313 618 349 q 586 314 601 313 q 556 319 571 315 q 517 417 550 392 q 399 443 485 443 l 299 443 l 299 503 l 399 503 q 518 525 485 503 q 553 615 551 547 q 586 623 571 621 q 619 625 601 625 m 701 943 q 708 872 704 913 q 718 793 713 832 q 731 724 724 754 q 703 710 719 714 q 668 707 688 707 q 646 790 665 750 q 578 857 626 831 q 440 883 531 883 l 282 883 l 311 939 q 499 940 421 939 q 628 942 578 940 q 701 943 679 943 m 606 1201 q 551 1060 606 1110 q 397 1011 497 1011 q 247 1059 300 1011 q 193 1196 193 1107 q 224 1206 207 1203 q 256 1208 240 1210 q 306 1129 264 1158 q 410 1100 347 1100 q 511 1129 472 1100 q 553 1208 550 1158 q 582 1208 568 1210 q 606 1201 596 1206 z "},"Ě":{"ha":835,"x_min":78,"x_max":778,"o":"m 78 943 q 130 941 99 942 q 196 940 161 940 q 262 939 231 939 q 311 939 293 939 l 311 192 q 321 113 311 140 q 358 74 331 85 q 438 63 386 63 l 438 0 q 348 0 399 0 q 245 -1 297 0 q 149 -2 193 -1 q 78 -4 104 -3 q 79 30 78 15 q 85 56 81 44 q 143 69 122 58 q 172 109 164 81 q 181 192 181 138 l 181 763 q 172 835 181 810 q 143 871 164 860 q 85 883 122 882 q 79 910 81 894 q 78 943 78 926 m 717 238 q 751 224 738 232 q 778 204 765 217 q 752 101 763 157 q 735 -3 742 46 q 663 -1 708 -1 q 560 -1 618 -1 q 438 0 503 0 l 438 63 l 446 63 q 597 83 546 63 q 672 142 647 103 q 717 238 697 181 m 619 625 q 617 550 618 590 q 617 474 617 510 q 617 393 617 438 q 619 313 618 349 q 586 314 601 313 q 556 319 571 315 q 517 417 550 392 q 399 443 485 443 l 299 443 l 299 503 l 399 503 q 518 525 485 503 q 553 615 551 547 q 586 623 571 621 q 619 625 601 625 m 701 943 q 708 872 704 913 q 718 793 713 832 q 731 724 724 754 q 703 710 719 714 q 668 707 688 707 q 646 790 665 750 q 578 857 626 831 q 440 883 531 883 l 282 883 l 311 939 q 499 940 421 939 q 628 942 578 940 q 701 943 679 943 m 368 1015 q 289 1099 335 1054 q 188 1188 243 1143 q 207 1207 194 1199 q 235 1219 219 1215 q 319 1169 274 1197 q 404 1124 365 1142 q 460 1152 424 1133 q 532 1191 496 1171 q 589 1224 568 1211 q 605 1203 600 1218 q 611 1176 610 1188 q 511 1104 564 1146 q 417 1021 458 1063 q 392 1017 406 1018 q 368 1015 379 1015 z "},"Ȩ":{"ha":835,"x_min":78,"x_max":778,"o":"m 78 943 q 130 941 99 942 q 196 940 161 940 q 262 939 231 939 q 311 939 293 939 l 311 192 q 321 113 311 140 q 358 74 331 85 q 438 63 386 63 l 438 0 q 348 0 399 0 q 245 -1 297 0 q 149 -2 193 -1 q 78 -4 104 -3 q 79 30 78 15 q 85 56 81 44 q 143 69 122 58 q 172 109 164 81 q 181 192 181 138 l 181 763 q 172 835 181 810 q 143 871 164 860 q 85 883 122 882 q 79 910 81 894 q 78 943 78 926 m 717 238 q 751 224 738 232 q 778 204 765 217 q 752 101 763 157 q 735 -3 742 46 q 663 -1 708 -1 q 560 -1 618 -1 q 438 0 503 0 l 438 63 l 446 63 q 597 83 546 63 q 672 142 647 103 q 717 238 697 181 m 619 625 q 617 550 618 590 q 617 474 617 510 q 617 393 617 438 q 619 313 618 349 q 586 314 601 313 q 556 319 571 315 q 517 417 550 392 q 399 443 485 443 l 299 443 l 299 503 l 399 503 q 518 525 485 503 q 553 615 551 547 q 586 623 571 621 q 619 625 601 625 m 701 943 q 708 872 704 913 q 718 793 713 832 q 731 724 724 754 q 703 710 719 714 q 668 707 688 707 q 646 790 665 750 q 578 857 626 831 q 440 883 531 883 l 282 883 l 311 939 q 499 940 421 939 q 628 942 578 940 q 701 943 679 943 m 340 -336 q 333 -314 335 -326 q 331 -292 331 -301 q 406 -272 372 -292 q 440 -215 440 -251 q 415 -160 440 -181 q 350 -140 389 -140 q 333 -119 340 -132 q 325 -87 325 -106 l 394 22 l 464 22 l 397 -69 q 485 -112 453 -79 q 518 -196 518 -146 q 489 -273 518 -242 q 418 -320 460 -304 q 340 -336 376 -336 z "},"Ḝ":{"ha":835,"x_min":78,"x_max":778,"o":"m 78 943 q 130 941 99 942 q 196 940 161 940 q 262 939 231 939 q 311 939 293 939 l 311 192 q 321 113 311 140 q 358 74 331 85 q 438 63 386 63 l 438 0 q 348 0 399 0 q 245 -1 297 0 q 149 -2 193 -1 q 78 -4 104 -3 q 79 30 78 15 q 85 56 81 44 q 143 69 122 58 q 172 109 164 81 q 181 192 181 138 l 181 763 q 172 835 181 810 q 143 871 164 860 q 85 883 122 882 q 79 910 81 894 q 78 943 78 926 m 717 238 q 751 224 738 232 q 778 204 765 217 q 752 101 763 157 q 735 -3 742 46 q 663 -1 708 -1 q 560 -1 618 -1 q 438 0 503 0 l 438 63 l 446 63 q 597 83 546 63 q 672 142 647 103 q 717 238 697 181 m 619 625 q 617 550 618 590 q 617 474 617 510 q 617 393 617 438 q 619 313 618 349 q 586 314 601 313 q 556 319 571 315 q 517 417 550 392 q 399 443 485 443 l 299 443 l 299 503 l 399 503 q 518 525 485 503 q 553 615 551 547 q 586 623 571 621 q 619 625 601 625 m 701 943 q 708 872 704 913 q 718 793 713 832 q 731 724 724 754 q 703 710 719 714 q 668 707 688 707 q 646 790 665 750 q 578 857 626 831 q 440 883 531 883 l 282 883 l 311 939 q 499 940 421 939 q 628 942 578 940 q 701 943 679 943 m 340 -336 q 333 -314 335 -326 q 331 -292 331 -301 q 406 -272 372 -292 q 440 -215 440 -251 q 415 -160 440 -181 q 350 -140 389 -140 q 333 -119 340 -132 q 325 -87 325 -106 l 394 22 l 464 22 l 397 -69 q 485 -112 453 -79 q 518 -196 518 -146 q 489 -273 518 -242 q 418 -320 460 -304 q 340 -336 376 -336 m 606 1201 q 551 1060 606 1110 q 397 1011 497 1011 q 247 1059 300 1011 q 193 1196 193 1107 q 224 1206 207 1203 q 256 1208 240 1210 q 306 1129 264 1158 q 410 1100 347 1100 q 511 1129 472 1100 q 553 1208 550 1158 q 582 1208 568 1210 q 606 1201 596 1206 z "},"Ê":{"ha":835,"x_min":78,"x_max":778,"o":"m 78 943 q 130 941 99 942 q 196 940 161 940 q 262 939 231 939 q 311 939 293 939 l 311 192 q 321 113 311 140 q 358 74 331 85 q 438 63 386 63 l 438 0 q 348 0 399 0 q 245 -1 297 0 q 149 -2 193 -1 q 78 -4 104 -3 q 79 30 78 15 q 85 56 81 44 q 143 69 122 58 q 172 109 164 81 q 181 192 181 138 l 181 763 q 172 835 181 810 q 143 871 164 860 q 85 883 122 882 q 79 910 81 894 q 78 943 78 926 m 717 238 q 751 224 738 232 q 778 204 765 217 q 752 101 763 157 q 735 -3 742 46 q 663 -1 708 -1 q 560 -1 618 -1 q 438 0 503 0 l 438 63 l 446 63 q 597 83 546 63 q 672 142 647 103 q 717 238 697 181 m 619 625 q 617 550 618 590 q 617 474 617 510 q 617 393 617 438 q 619 313 618 349 q 586 314 601 313 q 556 319 571 315 q 517 417 550 392 q 399 443 485 443 l 299 443 l 299 503 l 399 503 q 518 525 485 503 q 553 615 551 547 q 586 623 571 621 q 619 625 601 625 m 701 943 q 708 872 704 913 q 718 793 713 832 q 731 724 724 754 q 703 710 719 714 q 668 707 688 707 q 646 790 665 750 q 578 857 626 831 q 440 883 531 883 l 282 883 l 311 939 q 499 940 421 939 q 628 942 578 940 q 701 943 679 943 m 210 1011 q 194 1033 199 1018 q 188 1058 189 1049 q 288 1131 235 1089 q 382 1214 340 1172 q 407 1218 393 1217 q 431 1219 421 1219 q 510 1136 464 1181 q 611 1047 556 1092 q 592 1028 604 1036 q 564 1015 579 1019 q 480 1066 525 1039 q 394 1111 435 1093 q 339 1083 375 1103 q 267 1044 303 1064 q 210 1011 231 1025 z "},"Ế":{"ha":835,"x_min":78,"x_max":778,"o":"m 78 943 q 130 941 99 942 q 196 940 161 940 q 262 939 231 939 q 311 939 293 939 l 311 192 q 321 113 311 140 q 358 74 331 85 q 438 63 386 63 l 438 0 q 348 0 399 0 q 245 -1 297 0 q 149 -2 193 -1 q 78 -4 104 -3 q 79 30 78 15 q 85 56 81 44 q 143 69 122 58 q 172 109 164 81 q 181 192 181 138 l 181 763 q 172 835 181 810 q 143 871 164 860 q 85 883 122 882 q 79 910 81 894 q 78 943 78 926 m 717 238 q 751 224 738 232 q 778 204 765 217 q 752 101 763 157 q 735 -3 742 46 q 663 -1 708 -1 q 560 -1 618 -1 q 438 0 503 0 l 438 63 l 446 63 q 597 83 546 63 q 672 142 647 103 q 717 238 697 181 m 619 625 q 617 550 618 590 q 617 474 617 510 q 617 393 617 438 q 619 313 618 349 q 586 314 601 313 q 556 319 571 315 q 517 417 550 392 q 399 443 485 443 l 299 443 l 299 503 l 399 503 q 518 525 485 503 q 553 615 551 547 q 586 623 571 621 q 619 625 601 625 m 701 943 q 708 872 704 913 q 718 793 713 832 q 731 724 724 754 q 703 710 719 714 q 668 707 688 707 q 646 790 665 750 q 578 857 626 831 q 440 883 531 883 l 282 883 l 311 939 q 499 940 421 939 q 628 942 578 940 q 701 943 679 943 m 597 1181 q 568 1181 581 1181 q 544 1188 556 1182 q 585 1277 567 1233 q 618 1363 604 1321 q 649 1369 633 1367 q 681 1371 664 1371 q 742 1361 714 1371 q 672 1275 707 1318 q 597 1181 638 1232 m 210 1011 q 194 1033 199 1018 q 188 1058 189 1049 q 288 1131 235 1089 q 382 1214 340 1172 q 407 1218 393 1217 q 431 1219 421 1219 q 510 1136 464 1181 q 611 1047 556 1092 q 592 1028 604 1036 q 564 1015 579 1019 q 480 1066 525 1039 q 394 1111 435 1093 q 339 1083 375 1103 q 267 1044 303 1064 q 210 1011 231 1025 z "},"Ệ":{"ha":835,"x_min":78,"x_max":778,"o":"m 78 943 q 130 941 99 942 q 196 940 161 940 q 262 939 231 939 q 311 939 293 939 l 311 192 q 321 113 311 140 q 358 74 331 85 q 438 63 386 63 l 438 0 q 348 0 399 0 q 245 -1 297 0 q 149 -2 193 -1 q 78 -4 104 -3 q 79 30 78 15 q 85 56 81 44 q 143 69 122 58 q 172 109 164 81 q 181 192 181 138 l 181 763 q 172 835 181 810 q 143 871 164 860 q 85 883 122 882 q 79 910 81 894 q 78 943 78 926 m 717 238 q 751 224 738 232 q 778 204 765 217 q 752 101 763 157 q 735 -3 742 46 q 663 -1 708 -1 q 560 -1 618 -1 q 438 0 503 0 l 438 63 l 446 63 q 597 83 546 63 q 672 142 647 103 q 717 238 697 181 m 619 625 q 617 550 618 590 q 617 474 617 510 q 617 393 617 438 q 619 313 618 349 q 586 314 601 313 q 556 319 571 315 q 517 417 550 392 q 399 443 485 443 l 299 443 l 299 503 l 399 503 q 518 525 485 503 q 553 615 551 547 q 586 623 571 621 q 619 625 601 625 m 701 943 q 708 872 704 913 q 718 793 713 832 q 731 724 724 754 q 703 710 719 714 q 668 707 688 707 q 646 790 665 750 q 578 857 626 831 q 440 883 531 883 l 282 883 l 311 939 q 499 940 421 939 q 628 942 578 940 q 701 943 679 943 m 421 -292 q 363 -268 386 -292 q 339 -211 339 -244 q 364 -150 339 -174 q 421 -126 389 -126 q 481 -150 458 -126 q 504 -211 504 -174 q 480 -267 504 -243 q 421 -292 456 -292 m 210 1011 q 194 1033 199 1018 q 188 1058 189 1049 q 288 1131 235 1089 q 382 1214 340 1172 q 407 1218 393 1217 q 431 1219 421 1219 q 510 1136 464 1181 q 611 1047 556 1092 q 592 1028 604 1036 q 564 1015 579 1019 q 480 1066 525 1039 q 394 1111 435 1093 q 339 1083 375 1103 q 267 1044 303 1064 q 210 1011 231 1025 z "},"Ề":{"ha":835,"x_min":78,"x_max":778,"o":"m 78 943 q 130 941 99 942 q 196 940 161 940 q 262 939 231 939 q 311 939 293 939 l 311 192 q 321 113 311 140 q 358 74 331 85 q 438 63 386 63 l 438 0 q 348 0 399 0 q 245 -1 297 0 q 149 -2 193 -1 q 78 -4 104 -3 q 79 30 78 15 q 85 56 81 44 q 143 69 122 58 q 172 109 164 81 q 181 192 181 138 l 181 763 q 172 835 181 810 q 143 871 164 860 q 85 883 122 882 q 79 910 81 894 q 78 943 78 926 m 717 238 q 751 224 738 232 q 778 204 765 217 q 752 101 763 157 q 735 -3 742 46 q 663 -1 708 -1 q 560 -1 618 -1 q 438 0 503 0 l 438 63 l 446 63 q 597 83 546 63 q 672 142 647 103 q 717 238 697 181 m 619 625 q 617 550 618 590 q 617 474 617 510 q 617 393 617 438 q 619 313 618 349 q 586 314 601 313 q 556 319 571 315 q 517 417 550 392 q 399 443 485 443 l 299 443 l 299 503 l 399 503 q 518 525 485 503 q 553 615 551 547 q 586 623 571 621 q 619 625 601 625 m 701 943 q 708 872 704 913 q 718 793 713 832 q 731 724 724 754 q 703 710 719 714 q 668 707 688 707 q 646 790 665 750 q 578 857 626 831 q 440 883 531 883 l 282 883 l 311 939 q 499 940 421 939 q 628 942 578 940 q 701 943 679 943 m 210 1011 q 194 1033 199 1018 q 188 1058 189 1049 q 288 1131 235 1089 q 382 1214 340 1172 q 407 1218 393 1217 q 431 1219 421 1219 q 510 1136 464 1181 q 611 1047 556 1092 q 592 1028 604 1036 q 564 1015 579 1019 q 480 1066 525 1039 q 394 1111 435 1093 q 339 1083 375 1103 q 267 1044 303 1064 q 210 1011 231 1025 m 561 1172 q 481 1270 518 1228 q 407 1350 444 1313 q 465 1366 431 1363 q 532 1367 499 1369 q 570 1276 550 1324 q 617 1179 590 1228 q 592 1173 604 1174 q 561 1172 579 1172 z "},"Ể":{"ha":835,"x_min":78,"x_max":778,"o":"m 78 943 q 130 941 99 942 q 196 940 161 940 q 262 939 231 939 q 311 939 293 939 l 311 192 q 321 113 311 140 q 358 74 331 85 q 438 63 386 63 l 438 0 q 348 0 399 0 q 245 -1 297 0 q 149 -2 193 -1 q 78 -4 104 -3 q 79 30 78 15 q 85 56 81 44 q 143 69 122 58 q 172 109 164 81 q 181 192 181 138 l 181 763 q 172 835 181 810 q 143 871 164 860 q 85 883 122 882 q 79 910 81 894 q 78 943 78 926 m 717 238 q 751 224 738 232 q 778 204 765 217 q 752 101 763 157 q 735 -3 742 46 q 663 -1 708 -1 q 560 -1 618 -1 q 438 0 503 0 l 438 63 l 446 63 q 597 83 546 63 q 672 142 647 103 q 717 238 697 181 m 619 625 q 617 550 618 590 q 617 474 617 510 q 617 393 617 438 q 619 313 618 349 q 586 314 601 313 q 556 319 571 315 q 517 417 550 392 q 399 443 485 443 l 299 443 l 299 503 l 399 503 q 518 525 485 503 q 553 615 551 547 q 586 623 571 621 q 619 625 601 625 m 701 943 q 708 872 704 913 q 718 793 713 832 q 731 724 724 754 q 703 710 719 714 q 668 707 688 707 q 646 790 665 750 q 578 857 626 831 q 440 883 531 883 l 282 883 l 311 939 q 499 940 421 939 q 628 942 578 940 q 701 943 679 943 m 210 1011 q 194 1033 199 1018 q 188 1058 189 1049 q 288 1131 235 1089 q 382 1214 340 1172 q 407 1218 393 1217 q 431 1219 421 1219 q 510 1136 464 1181 q 611 1047 556 1092 q 592 1028 604 1036 q 564 1015 579 1019 q 480 1066 525 1039 q 394 1111 435 1093 q 339 1083 375 1103 q 267 1044 303 1064 q 210 1011 231 1025 m 553 1200 q 535 1243 535 1222 q 548 1278 535 1265 q 578 1302 561 1292 q 609 1323 596 1313 q 622 1350 622 1333 q 611 1371 622 1364 q 581 1378 600 1378 q 534 1360 550 1378 q 513 1297 518 1342 q 477 1301 496 1297 q 447 1310 458 1304 q 451 1349 450 1333 q 447 1386 451 1365 q 501 1417 469 1403 q 586 1431 533 1431 q 678 1411 642 1431 q 714 1353 714 1392 q 697 1308 714 1326 q 660 1278 681 1290 q 622 1253 639 1265 q 606 1225 606 1242 q 608 1207 606 1218 q 581 1201 594 1203 q 553 1200 568 1200 z "},"Ễ":{"ha":835,"x_min":78,"x_max":778,"o":"m 78 943 q 130 941 99 942 q 196 940 161 940 q 262 939 231 939 q 311 939 293 939 l 311 192 q 321 113 311 140 q 358 74 331 85 q 438 63 386 63 l 438 0 q 348 0 399 0 q 245 -1 297 0 q 149 -2 193 -1 q 78 -4 104 -3 q 79 30 78 15 q 85 56 81 44 q 143 69 122 58 q 172 109 164 81 q 181 192 181 138 l 181 763 q 172 835 181 810 q 143 871 164 860 q 85 883 122 882 q 79 910 81 894 q 78 943 78 926 m 717 238 q 751 224 738 232 q 778 204 765 217 q 752 101 763 157 q 735 -3 742 46 q 663 -1 708 -1 q 560 -1 618 -1 q 438 0 503 0 l 438 63 l 446 63 q 597 83 546 63 q 672 142 647 103 q 717 238 697 181 m 619 625 q 617 550 618 590 q 617 474 617 510 q 617 393 617 438 q 619 313 618 349 q 586 314 601 313 q 556 319 571 315 q 517 417 550 392 q 399 443 485 443 l 299 443 l 299 503 l 399 503 q 518 525 485 503 q 553 615 551 547 q 586 623 571 621 q 619 625 601 625 m 701 943 q 708 872 704 913 q 718 793 713 832 q 731 724 724 754 q 703 710 719 714 q 668 707 688 707 q 646 790 665 750 q 578 857 626 831 q 440 883 531 883 l 282 883 l 311 939 q 499 940 421 939 q 628 942 578 940 q 701 943 679 943 m 210 1011 q 194 1033 199 1018 q 188 1058 189 1049 q 288 1131 235 1089 q 382 1214 340 1172 q 407 1218 393 1217 q 431 1219 421 1219 q 510 1136 464 1181 q 611 1047 556 1092 q 592 1028 604 1036 q 564 1015 579 1019 q 480 1066 525 1039 q 394 1111 435 1093 q 339 1083 375 1103 q 267 1044 303 1064 q 210 1011 231 1025 m 479 1292 q 431 1299 454 1292 q 385 1316 407 1307 q 340 1333 363 1325 q 292 1340 317 1340 q 241 1329 265 1340 q 193 1296 217 1318 q 179 1314 183 1303 q 175 1339 175 1325 q 254 1410 215 1392 q 329 1429 293 1429 q 396 1417 365 1429 q 454 1394 426 1406 q 511 1382 482 1382 q 551 1391 532 1382 q 589 1418 571 1400 q 608 1413 596 1417 q 625 1399 619 1408 q 557 1317 594 1342 q 479 1292 519 1292 z "},"Ȅ":{"ha":835,"x_min":78,"x_max":778,"o":"m 78 943 q 130 941 99 942 q 196 940 161 940 q 262 939 231 939 q 311 939 293 939 l 311 192 q 321 113 311 140 q 358 74 331 85 q 438 63 386 63 l 438 0 q 348 0 399 0 q 245 -1 297 0 q 149 -2 193 -1 q 78 -4 104 -3 q 79 30 78 15 q 85 56 81 44 q 143 69 122 58 q 172 109 164 81 q 181 192 181 138 l 181 763 q 172 835 181 810 q 143 871 164 860 q 85 883 122 882 q 79 910 81 894 q 78 943 78 926 m 717 238 q 751 224 738 232 q 778 204 765 217 q 752 101 763 157 q 735 -3 742 46 q 663 -1 708 -1 q 560 -1 618 -1 q 438 0 503 0 l 438 63 l 446 63 q 597 83 546 63 q 672 142 647 103 q 717 238 697 181 m 619 625 q 617 550 618 590 q 617 474 617 510 q 617 393 617 438 q 619 313 618 349 q 586 314 601 313 q 556 319 571 315 q 517 417 550 392 q 399 443 485 443 l 299 443 l 299 503 l 399 503 q 518 525 485 503 q 553 615 551 547 q 586 623 571 621 q 619 625 601 625 m 701 943 q 708 872 704 913 q 718 793 713 832 q 731 724 724 754 q 703 710 719 714 q 668 707 688 707 q 646 790 665 750 q 578 857 626 831 q 440 883 531 883 l 282 883 l 311 939 q 499 940 421 939 q 628 942 578 940 q 701 943 679 943 m 282 1003 q 202 1101 239 1058 q 128 1181 165 1143 q 185 1197 151 1193 q 253 1197 219 1200 q 291 1106 271 1154 q 338 1010 311 1058 q 313 1003 325 1004 q 282 1003 300 1003 m 490 1003 q 410 1101 447 1058 q 336 1181 374 1143 q 394 1197 360 1193 q 461 1197 428 1200 q 499 1106 479 1154 q 546 1010 519 1058 q 521 1003 533 1004 q 490 1003 508 1003 z "},"Ë":{"ha":835,"x_min":78,"x_max":778,"o":"m 78 943 q 130 941 99 942 q 196 940 161 940 q 262 939 231 939 q 311 939 293 939 l 311 192 q 321 113 311 140 q 358 74 331 85 q 438 63 386 63 l 438 0 q 348 0 399 0 q 245 -1 297 0 q 149 -2 193 -1 q 78 -4 104 -3 q 79 30 78 15 q 85 56 81 44 q 143 69 122 58 q 172 109 164 81 q 181 192 181 138 l 181 763 q 172 835 181 810 q 143 871 164 860 q 85 883 122 882 q 79 910 81 894 q 78 943 78 926 m 717 238 q 751 224 738 232 q 778 204 765 217 q 752 101 763 157 q 735 -3 742 46 q 663 -1 708 -1 q 560 -1 618 -1 q 438 0 503 0 l 438 63 l 446 63 q 597 83 546 63 q 672 142 647 103 q 717 238 697 181 m 619 625 q 617 550 618 590 q 617 474 617 510 q 617 393 617 438 q 619 313 618 349 q 586 314 601 313 q 556 319 571 315 q 517 417 550 392 q 399 443 485 443 l 299 443 l 299 503 l 399 503 q 518 525 485 503 q 553 615 551 547 q 586 623 571 621 q 619 625 601 625 m 701 943 q 708 872 704 913 q 718 793 713 832 q 731 724 724 754 q 703 710 719 714 q 668 707 688 707 q 646 790 665 750 q 578 857 626 831 q 440 883 531 883 l 282 883 l 311 939 q 499 940 421 939 q 628 942 578 940 q 701 943 679 943 m 538 1017 q 476 1039 497 1017 q 456 1096 456 1061 q 477 1148 456 1129 q 533 1167 499 1167 q 590 1147 568 1167 q 613 1096 613 1128 q 596 1042 613 1067 q 538 1017 579 1017 m 265 1017 q 208 1037 231 1017 q 186 1088 186 1057 q 204 1142 186 1118 q 263 1167 222 1167 q 323 1144 304 1167 q 342 1090 342 1122 q 319 1038 342 1058 q 265 1017 297 1017 z "},"Ė":{"ha":835,"x_min":78,"x_max":778,"o":"m 78 943 q 130 941 99 942 q 196 940 161 940 q 262 939 231 939 q 311 939 293 939 l 311 192 q 321 113 311 140 q 358 74 331 85 q 438 63 386 63 l 438 0 q 348 0 399 0 q 245 -1 297 0 q 149 -2 193 -1 q 78 -4 104 -3 q 79 30 78 15 q 85 56 81 44 q 143 69 122 58 q 172 109 164 81 q 181 192 181 138 l 181 763 q 172 835 181 810 q 143 871 164 860 q 85 883 122 882 q 79 910 81 894 q 78 943 78 926 m 717 238 q 751 224 738 232 q 778 204 765 217 q 752 101 763 157 q 735 -3 742 46 q 663 -1 708 -1 q 560 -1 618 -1 q 438 0 503 0 l 438 63 l 446 63 q 597 83 546 63 q 672 142 647 103 q 717 238 697 181 m 619 625 q 617 550 618 590 q 617 474 617 510 q 617 393 617 438 q 619 313 618 349 q 586 314 601 313 q 556 319 571 315 q 517 417 550 392 q 399 443 485 443 l 299 443 l 299 503 l 399 503 q 518 525 485 503 q 553 615 551 547 q 586 623 571 621 q 619 625 601 625 m 701 943 q 708 872 704 913 q 718 793 713 832 q 731 724 724 754 q 703 710 719 714 q 668 707 688 707 q 646 790 665 750 q 578 857 626 831 q 440 883 531 883 l 282 883 l 311 939 q 499 940 421 939 q 628 942 578 940 q 701 943 679 943 m 399 1000 q 340 1024 364 1000 q 317 1081 317 1047 q 342 1142 317 1118 q 399 1165 367 1165 q 459 1142 436 1165 q 482 1081 482 1118 q 458 1024 482 1049 q 399 1000 433 1000 z "},"Ẹ":{"ha":835,"x_min":78,"x_max":778,"o":"m 78 943 q 130 941 99 942 q 196 940 161 940 q 262 939 231 939 q 311 939 293 939 l 311 192 q 321 113 311 140 q 358 74 331 85 q 438 63 386 63 l 438 0 q 348 0 399 0 q 245 -1 297 0 q 149 -2 193 -1 q 78 -4 104 -3 q 79 30 78 15 q 85 56 81 44 q 143 69 122 58 q 172 109 164 81 q 181 192 181 138 l 181 763 q 172 835 181 810 q 143 871 164 860 q 85 883 122 882 q 79 910 81 894 q 78 943 78 926 m 717 238 q 751 224 738 232 q 778 204 765 217 q 752 101 763 157 q 735 -3 742 46 q 663 -1 708 -1 q 560 -1 618 -1 q 438 0 503 0 l 438 63 l 446 63 q 597 83 546 63 q 672 142 647 103 q 717 238 697 181 m 619 625 q 617 550 618 590 q 617 474 617 510 q 617 393 617 438 q 619 313 618 349 q 586 314 601 313 q 556 319 571 315 q 517 417 550 392 q 399 443 485 443 l 299 443 l 299 503 l 399 503 q 518 525 485 503 q 553 615 551 547 q 586 623 571 621 q 619 625 601 625 m 701 943 q 708 872 704 913 q 718 793 713 832 q 731 724 724 754 q 703 710 719 714 q 668 707 688 707 q 646 790 665 750 q 578 857 626 831 q 440 883 531 883 l 282 883 l 311 939 q 499 940 421 939 q 628 942 578 940 q 701 943 679 943 m 421 -292 q 363 -268 386 -292 q 339 -211 339 -244 q 364 -150 339 -174 q 421 -126 389 -126 q 481 -150 458 -126 q 504 -211 504 -174 q 480 -267 504 -243 q 421 -292 456 -292 z "},"È":{"ha":835,"x_min":78,"x_max":778,"o":"m 78 943 q 130 941 99 942 q 196 940 161 940 q 262 939 231 939 q 311 939 293 939 l 311 192 q 321 113 311 140 q 358 74 331 85 q 438 63 386 63 l 438 0 q 348 0 399 0 q 245 -1 297 0 q 149 -2 193 -1 q 78 -4 104 -3 q 79 30 78 15 q 85 56 81 44 q 143 69 122 58 q 172 109 164 81 q 181 192 181 138 l 181 763 q 172 835 181 810 q 143 871 164 860 q 85 883 122 882 q 79 910 81 894 q 78 943 78 926 m 717 238 q 751 224 738 232 q 778 204 765 217 q 752 101 763 157 q 735 -3 742 46 q 663 -1 708 -1 q 560 -1 618 -1 q 438 0 503 0 l 438 63 l 446 63 q 597 83 546 63 q 672 142 647 103 q 717 238 697 181 m 619 625 q 617 550 618 590 q 617 474 617 510 q 617 393 617 438 q 619 313 618 349 q 586 314 601 313 q 556 319 571 315 q 517 417 550 392 q 399 443 485 443 l 299 443 l 299 503 l 399 503 q 518 525 485 503 q 553 615 551 547 q 586 623 571 621 q 619 625 601 625 m 701 943 q 708 872 704 913 q 718 793 713 832 q 731 724 724 754 q 703 710 719 714 q 668 707 688 707 q 646 790 665 750 q 578 857 626 831 q 440 883 531 883 l 282 883 l 311 939 q 499 940 421 939 q 628 942 578 940 q 701 943 679 943 m 390 1017 q 310 1115 347 1072 q 236 1194 274 1157 q 294 1210 260 1207 q 361 1211 328 1214 q 399 1120 379 1168 q 446 1024 419 1072 q 421 1017 433 1018 q 390 1017 408 1017 z "},"Ẻ":{"ha":835,"x_min":78,"x_max":778,"o":"m 78 943 q 130 941 99 942 q 196 940 161 940 q 262 939 231 939 q 311 939 293 939 l 311 192 q 321 113 311 140 q 358 74 331 85 q 438 63 386 63 l 438 0 q 348 0 399 0 q 245 -1 297 0 q 149 -2 193 -1 q 78 -4 104 -3 q 79 30 78 15 q 85 56 81 44 q 143 69 122 58 q 172 109 164 81 q 181 192 181 138 l 181 763 q 172 835 181 810 q 143 871 164 860 q 85 883 122 882 q 79 910 81 894 q 78 943 78 926 m 717 238 q 751 224 738 232 q 778 204 765 217 q 752 101 763 157 q 735 -3 742 46 q 663 -1 708 -1 q 560 -1 618 -1 q 438 0 503 0 l 438 63 l 446 63 q 597 83 546 63 q 672 142 647 103 q 717 238 697 181 m 619 625 q 617 550 618 590 q 617 474 617 510 q 617 393 617 438 q 619 313 618 349 q 586 314 601 313 q 556 319 571 315 q 517 417 550 392 q 399 443 485 443 l 299 443 l 299 503 l 399 503 q 518 525 485 503 q 553 615 551 547 q 586 623 571 621 q 619 625 601 625 m 701 943 q 708 872 704 913 q 718 793 713 832 q 731 724 724 754 q 703 710 719 714 q 668 707 688 707 q 646 790 665 750 q 578 857 626 831 q 440 883 531 883 l 282 883 l 311 939 q 499 940 421 939 q 628 942 578 940 q 701 943 679 943 m 372 1008 q 354 1051 354 1031 q 367 1087 354 1074 q 398 1110 381 1100 q 428 1131 415 1121 q 442 1158 442 1142 q 431 1179 442 1172 q 400 1186 419 1186 q 353 1168 369 1186 q 332 1106 338 1150 q 297 1109 315 1106 q 267 1118 278 1113 q 270 1158 269 1142 q 267 1194 271 1174 q 321 1225 289 1211 q 406 1239 353 1239 q 497 1219 461 1239 q 533 1161 533 1200 q 517 1117 533 1135 q 479 1086 500 1099 q 442 1062 458 1074 q 425 1033 425 1050 q 428 1015 425 1026 q 401 1010 414 1011 q 372 1008 388 1008 z "},"Ȇ":{"ha":835,"x_min":78,"x_max":778,"o":"m 78 943 q 130 941 99 942 q 196 940 161 940 q 262 939 231 939 q 311 939 293 939 l 311 192 q 321 113 311 140 q 358 74 331 85 q 438 63 386 63 l 438 0 q 348 0 399 0 q 245 -1 297 0 q 149 -2 193 -1 q 78 -4 104 -3 q 79 30 78 15 q 85 56 81 44 q 143 69 122 58 q 172 109 164 81 q 181 192 181 138 l 181 763 q 172 835 181 810 q 143 871 164 860 q 85 883 122 882 q 79 910 81 894 q 78 943 78 926 m 717 238 q 751 224 738 232 q 778 204 765 217 q 752 101 763 157 q 735 -3 742 46 q 663 -1 708 -1 q 560 -1 618 -1 q 438 0 503 0 l 438 63 l 446 63 q 597 83 546 63 q 672 142 647 103 q 717 238 697 181 m 619 625 q 617 550 618 590 q 617 474 617 510 q 617 393 617 438 q 619 313 618 349 q 586 314 601 313 q 556 319 571 315 q 517 417 550 392 q 399 443 485 443 l 299 443 l 299 503 l 399 503 q 518 525 485 503 q 553 615 551 547 q 586 623 571 621 q 619 625 601 625 m 701 943 q 708 872 704 913 q 718 793 713 832 q 731 724 724 754 q 703 710 719 714 q 668 707 688 707 q 646 790 665 750 q 578 857 626 831 q 440 883 531 883 l 282 883 l 311 939 q 499 940 421 939 q 628 942 578 940 q 701 943 679 943 m 193 1018 q 247 1159 193 1110 q 401 1208 301 1208 q 553 1161 500 1208 q 606 1024 606 1114 q 575 1013 592 1017 q 543 1011 558 1010 q 493 1090 535 1061 q 389 1119 451 1119 q 288 1090 326 1119 q 246 1011 249 1061 q 217 1012 231 1010 q 193 1018 203 1014 z "},"Ē":{"ha":835,"x_min":78,"x_max":778,"o":"m 78 943 q 130 941 99 942 q 196 940 161 940 q 262 939 231 939 q 311 939 293 939 l 311 192 q 321 113 311 140 q 358 74 331 85 q 438 63 386 63 l 438 0 q 348 0 399 0 q 245 -1 297 0 q 149 -2 193 -1 q 78 -4 104 -3 q 79 30 78 15 q 85 56 81 44 q 143 69 122 58 q 172 109 164 81 q 181 192 181 138 l 181 763 q 172 835 181 810 q 143 871 164 860 q 85 883 122 882 q 79 910 81 894 q 78 943 78 926 m 717 238 q 751 224 738 232 q 778 204 765 217 q 752 101 763 157 q 735 -3 742 46 q 663 -1 708 -1 q 560 -1 618 -1 q 438 0 503 0 l 438 63 l 446 63 q 597 83 546 63 q 672 142 647 103 q 717 238 697 181 m 619 625 q 617 550 618 590 q 617 474 617 510 q 617 393 617 438 q 619 313 618 349 q 586 314 601 313 q 556 319 571 315 q 517 417 550 392 q 399 443 485 443 l 299 443 l 299 503 l 399 503 q 518 525 485 503 q 553 615 551 547 q 586 623 571 621 q 619 625 601 625 m 701 943 q 708 872 704 913 q 718 793 713 832 q 731 724 724 754 q 703 710 719 714 q 668 707 688 707 q 646 790 665 750 q 578 857 626 831 q 440 883 531 883 l 282 883 l 311 939 q 499 940 421 939 q 628 942 578 940 q 701 943 679 943 m 653 1118 q 650 1089 653 1104 q 640 1058 647 1074 q 546 1058 618 1058 q 370 1058 474 1058 q 147 1054 267 1057 q 151 1084 147 1063 q 160 1118 154 1106 l 653 1118 z "},"Ḗ":{"ha":835,"x_min":78,"x_max":778,"o":"m 78 943 q 130 941 99 942 q 196 940 161 940 q 262 939 231 939 q 311 939 293 939 l 311 192 q 321 113 311 140 q 358 74 331 85 q 438 63 386 63 l 438 0 q 348 0 399 0 q 245 -1 297 0 q 149 -2 193 -1 q 78 -4 104 -3 q 79 30 78 15 q 85 56 81 44 q 143 69 122 58 q 172 109 164 81 q 181 192 181 138 l 181 763 q 172 835 181 810 q 143 871 164 860 q 85 883 122 882 q 79 910 81 894 q 78 943 78 926 m 717 238 q 751 224 738 232 q 778 204 765 217 q 752 101 763 157 q 735 -3 742 46 q 663 -1 708 -1 q 560 -1 618 -1 q 438 0 503 0 l 438 63 l 446 63 q 597 83 546 63 q 672 142 647 103 q 717 238 697 181 m 619 625 q 617 550 618 590 q 617 474 617 510 q 617 393 617 438 q 619 313 618 349 q 586 314 601 313 q 556 319 571 315 q 517 417 550 392 q 399 443 485 443 l 299 443 l 299 503 l 399 503 q 518 525 485 503 q 553 615 551 547 q 586 623 571 621 q 619 625 601 625 m 701 943 q 708 872 704 913 q 718 793 713 832 q 731 724 724 754 q 703 710 719 714 q 668 707 688 707 q 646 790 665 750 q 578 857 626 831 q 440 883 531 883 l 282 883 l 311 939 q 499 940 421 939 q 628 942 578 940 q 701 943 679 943 m 653 1118 q 650 1089 653 1104 q 640 1058 647 1074 q 546 1058 618 1058 q 370 1058 474 1058 q 147 1054 267 1057 q 151 1084 147 1063 q 160 1118 154 1106 l 653 1118 m 410 1196 q 379 1197 392 1196 q 354 1203 367 1197 q 398 1299 378 1251 q 432 1389 418 1346 q 465 1396 449 1393 q 499 1399 482 1399 q 564 1388 535 1399 q 490 1297 526 1343 q 410 1196 453 1251 z "},"Ḕ":{"ha":835,"x_min":78,"x_max":778,"o":"m 78 943 q 130 941 99 942 q 196 940 161 940 q 262 939 231 939 q 311 939 293 939 l 311 192 q 321 113 311 140 q 358 74 331 85 q 438 63 386 63 l 438 0 q 348 0 399 0 q 245 -1 297 0 q 149 -2 193 -1 q 78 -4 104 -3 q 79 30 78 15 q 85 56 81 44 q 143 69 122 58 q 172 109 164 81 q 181 192 181 138 l 181 763 q 172 835 181 810 q 143 871 164 860 q 85 883 122 882 q 79 910 81 894 q 78 943 78 926 m 717 238 q 751 224 738 232 q 778 204 765 217 q 752 101 763 157 q 735 -3 742 46 q 663 -1 708 -1 q 560 -1 618 -1 q 438 0 503 0 l 438 63 l 446 63 q 597 83 546 63 q 672 142 647 103 q 717 238 697 181 m 619 625 q 617 550 618 590 q 617 474 617 510 q 617 393 617 438 q 619 313 618 349 q 586 314 601 313 q 556 319 571 315 q 517 417 550 392 q 399 443 485 443 l 299 443 l 299 503 l 399 503 q 518 525 485 503 q 553 615 551 547 q 586 623 571 621 q 619 625 601 625 m 701 943 q 708 872 704 913 q 718 793 713 832 q 731 724 724 754 q 703 710 719 714 q 668 707 688 707 q 646 790 665 750 q 578 857 626 831 q 440 883 531 883 l 282 883 l 311 939 q 499 940 421 939 q 628 942 578 940 q 701 943 679 943 m 653 1118 q 650 1089 653 1104 q 640 1058 647 1074 q 546 1058 618 1058 q 370 1058 474 1058 q 147 1054 267 1057 q 151 1084 147 1063 q 160 1118 154 1106 l 653 1118 m 390 1196 q 310 1294 347 1251 q 236 1374 274 1336 q 294 1390 260 1386 q 361 1390 328 1393 q 399 1299 379 1347 q 446 1203 419 1251 q 421 1197 433 1197 q 390 1196 408 1196 z "},"Ę":{"ha":835,"x_min":78,"x_max":778,"o":"m 78 943 q 130 941 99 942 q 196 940 161 940 q 262 939 231 939 q 311 939 293 939 l 311 192 q 321 113 311 140 q 358 74 331 85 q 438 63 386 63 l 438 0 q 348 0 399 0 q 245 -1 297 0 q 149 -2 193 -1 q 78 -4 104 -3 q 79 30 78 15 q 85 56 81 44 q 143 69 122 58 q 172 109 164 81 q 181 192 181 138 l 181 763 q 172 835 181 810 q 143 871 164 860 q 85 883 122 882 q 79 910 81 894 q 78 943 78 926 m 717 238 q 751 224 738 232 q 778 204 765 217 q 752 101 763 157 q 735 -3 742 46 q 663 -1 708 -1 q 560 -1 618 -1 q 438 0 503 0 l 438 63 l 446 63 q 597 83 546 63 q 672 142 647 103 q 717 238 697 181 m 619 625 q 617 550 618 590 q 617 474 617 510 q 617 393 617 438 q 619 313 618 349 q 586 314 601 313 q 556 319 571 315 q 517 417 550 392 q 399 443 485 443 l 299 443 l 299 503 l 399 503 q 518 525 485 503 q 553 615 551 547 q 586 623 571 621 q 619 625 601 625 m 701 943 q 708 872 704 913 q 718 793 713 832 q 731 724 724 754 q 703 710 719 714 q 668 707 688 707 q 646 790 665 750 q 578 857 626 831 q 440 883 531 883 l 282 883 l 311 939 q 499 940 421 939 q 628 942 578 940 q 701 943 679 943 m 619 28 l 665 0 q 556 -68 592 -26 q 521 -151 521 -110 q 544 -206 521 -186 q 608 -226 567 -226 q 636 -224 621 -226 q 667 -215 651 -221 q 673 -231 671 -222 q 676 -249 675 -239 q 676 -269 678 -258 q 624 -301 650 -283 q 574 -343 599 -319 q 561 -345 568 -344 q 547 -346 554 -346 q 493 -335 525 -346 q 437 -294 461 -324 q 413 -211 413 -265 q 457 -90 413 -149 q 619 28 501 -32 z "},"Ǝ":{"ha":835,"x_min":57,"x_max":757,"o":"m 757 943 q 705 941 736 942 q 639 940 674 940 q 574 939 604 939 q 524 939 543 939 l 524 192 q 514 113 524 140 q 477 74 504 85 q 397 63 450 63 l 397 0 q 487 0 436 0 q 590 -1 538 0 q 686 -2 642 -1 q 757 -4 731 -3 q 756 30 757 15 q 750 56 754 44 q 692 69 713 58 q 663 109 671 81 q 654 192 654 138 l 654 763 q 663 835 654 810 q 692 871 671 860 q 750 883 714 882 q 756 910 754 894 q 757 943 757 926 m 118 238 q 83 224 97 232 q 57 204 69 217 q 83 101 72 157 q 100 -3 94 46 q 172 -1 128 -1 q 274 -1 217 -1 q 397 0 332 0 l 397 63 l 389 63 q 239 83 290 63 q 163 142 188 103 q 118 238 139 181 m 215 625 q 218 550 218 590 q 218 474 218 510 q 218 393 218 438 q 215 313 218 349 q 249 314 235 313 q 279 319 264 315 q 318 417 285 392 q 436 443 351 443 l 536 443 l 536 503 l 436 503 q 317 525 351 503 q 282 615 283 547 q 249 623 264 621 q 215 625 235 625 m 133 943 q 126 872 131 913 q 117 793 122 832 q 104 724 111 754 q 132 710 115 714 q 167 707 149 707 q 190 790 171 750 q 257 857 208 831 q 394 883 306 883 l 553 883 l 524 939 q 336 940 415 939 q 207 942 257 940 q 133 943 157 943 z "},"Ẽ":{"ha":835,"x_min":78,"x_max":778,"o":"m 78 943 q 130 941 99 942 q 196 940 161 940 q 262 939 231 939 q 311 939 293 939 l 311 192 q 321 113 311 140 q 358 74 331 85 q 438 63 386 63 l 438 0 q 348 0 399 0 q 245 -1 297 0 q 149 -2 193 -1 q 78 -4 104 -3 q 79 30 78 15 q 85 56 81 44 q 143 69 122 58 q 172 109 164 81 q 181 192 181 138 l 181 763 q 172 835 181 810 q 143 871 164 860 q 85 883 122 882 q 79 910 81 894 q 78 943 78 926 m 717 238 q 751 224 738 232 q 778 204 765 217 q 752 101 763 157 q 735 -3 742 46 q 663 -1 708 -1 q 560 -1 618 -1 q 438 0 503 0 l 438 63 l 446 63 q 597 83 546 63 q 672 142 647 103 q 717 238 697 181 m 619 625 q 617 550 618 590 q 617 474 617 510 q 617 393 617 438 q 619 313 618 349 q 586 314 601 313 q 556 319 571 315 q 517 417 550 392 q 399 443 485 443 l 299 443 l 299 503 l 399 503 q 518 525 485 503 q 553 615 551 547 q 586 623 571 621 q 619 625 601 625 m 701 943 q 708 872 704 913 q 718 793 713 832 q 731 724 724 754 q 703 710 719 714 q 668 707 688 707 q 646 790 665 750 q 578 857 626 831 q 440 883 531 883 l 282 883 l 311 939 q 499 940 421 939 q 628 942 578 940 q 701 943 679 943 m 479 1039 q 431 1047 454 1039 q 385 1063 407 1054 q 340 1080 363 1072 q 292 1088 317 1088 q 241 1076 265 1088 q 193 1043 217 1065 q 179 1061 183 1050 q 175 1086 175 1072 q 254 1158 215 1139 q 329 1176 293 1176 q 396 1165 365 1176 q 454 1141 426 1153 q 511 1129 482 1129 q 551 1138 532 1129 q 589 1165 571 1147 q 608 1160 596 1164 q 625 1146 619 1156 q 557 1064 594 1089 q 479 1039 519 1039 z "},"Ʒ":{"ha":846,"x_min":85,"x_max":769,"o":"m 389 -12 q 229 6 300 -12 q 94 57 158 25 q 95 125 96 89 q 92 198 94 161 q 85 265 89 235 q 125 272 101 269 q 165 274 149 274 q 226 110 176 165 q 388 54 276 54 q 560 108 500 54 q 619 253 619 161 q 539 417 619 360 q 314 474 458 474 q 303 501 308 486 q 299 531 299 515 q 400 655 349 588 q 499 791 451 722 q 585 922 546 860 l 586 883 l 365 883 q 266 870 304 883 q 205 819 228 857 q 167 706 182 782 q 125 708 149 706 q 88 719 101 711 q 107 825 100 764 q 114 942 114 886 q 177 941 135 942 q 270 940 219 940 q 369 939 321 939 q 453 939 418 939 q 541 939 499 939 q 627 940 583 939 q 719 942 671 940 q 731 922 726 935 q 735 896 735 910 q 612 719 686 821 q 451 517 538 617 l 447 528 q 687 458 604 525 q 769 271 769 390 q 670 63 769 139 q 389 -12 571 -12 z "},"Ǯ":{"ha":846,"x_min":85,"x_max":769,"o":"m 389 -12 q 229 6 300 -12 q 94 57 158 25 q 95 125 96 89 q 92 198 94 161 q 85 265 89 235 q 125 272 101 269 q 165 274 149 274 q 226 110 176 165 q 388 54 276 54 q 560 108 500 54 q 619 253 619 161 q 539 417 619 360 q 314 474 458 474 q 303 501 308 486 q 299 531 299 515 q 400 655 349 588 q 499 791 451 722 q 585 922 546 860 l 586 883 l 365 883 q 266 870 304 883 q 205 819 228 857 q 167 706 182 782 q 125 708 149 706 q 88 719 101 711 q 107 825 100 764 q 114 942 114 886 q 177 941 135 942 q 270 940 219 940 q 369 939 321 939 q 453 939 418 939 q 541 939 499 939 q 627 940 583 939 q 719 942 671 940 q 731 922 726 935 q 735 896 735 910 q 612 719 686 821 q 451 517 538 617 l 447 528 q 687 458 604 525 q 769 271 769 390 q 670 63 769 139 q 389 -12 571 -12 m 372 1015 q 293 1099 339 1054 q 192 1188 247 1143 q 211 1207 199 1199 q 239 1219 224 1215 q 324 1169 278 1197 q 408 1124 369 1142 q 464 1152 428 1133 q 536 1191 500 1171 q 593 1224 572 1211 q 609 1203 604 1218 q 615 1176 614 1188 q 515 1104 568 1146 q 421 1021 463 1063 q 397 1017 410 1018 q 372 1015 383 1015 z "},"F":{"ha":779,"x_min":78,"x_max":725,"o":"m 78 -4 q 79 30 78 15 q 85 56 81 44 q 143 69 122 58 q 172 105 164 79 q 181 176 181 131 l 181 763 q 172 835 181 810 q 143 871 164 860 q 85 883 122 882 q 79 910 81 894 q 78 943 78 925 q 131 941 101 942 q 192 940 160 940 q 256 939 225 939 q 311 939 286 939 l 311 204 q 324 113 311 144 q 364 70 336 82 q 435 56 392 58 q 440 30 439 44 q 442 -4 442 15 q 392 -2 421 -3 q 332 -1 364 -1 q 267 0 300 0 q 162 -1 218 0 q 78 -4 106 -1 m 628 285 q 594 286 610 285 q 564 292 579 288 q 526 390 558 364 q 407 415 493 415 l 307 415 l 307 475 l 407 475 q 526 497 493 475 q 561 588 560 519 q 594 595 579 593 q 628 597 610 597 q 626 522 626 563 q 625 446 625 482 q 626 365 625 410 q 628 285 626 321 m 663 707 q 640 790 660 750 q 573 857 621 831 q 435 883 525 883 l 276 883 l 307 939 q 495 940 417 939 q 624 942 574 940 q 696 943 674 943 q 703 872 699 913 q 713 793 707 832 q 725 724 718 754 q 698 710 714 714 q 663 707 682 707 z "},"G":{"ha":1015,"x_min":49,"x_max":925,"o":"m 506 -12 q 266 49 369 -12 q 106 221 163 110 q 49 482 49 332 q 89 687 49 599 q 198 833 129 775 q 353 922 267 892 q 531 951 439 951 q 717 933 631 951 q 864 886 803 915 q 851 785 854 838 q 849 671 849 732 q 815 662 832 665 q 775 658 797 658 q 740 806 772 756 q 657 876 708 857 q 542 894 606 894 q 347 840 424 894 q 233 699 269 786 q 196 513 196 613 q 233 283 196 386 q 346 117 271 179 q 533 56 421 56 q 608 60 575 56 q 674 78 640 64 q 709 109 697 89 q 721 182 721 129 l 721 251 q 713 344 721 315 q 680 381 706 372 q 601 390 654 389 q 595 419 597 401 q 593 454 593 438 q 669 451 619 453 q 763 450 719 450 q 854 451 806 450 q 925 453 903 451 q 924 422 925 440 q 917 390 922 404 q 875 381 889 389 q 856 343 861 372 q 851 251 851 314 l 851 189 q 855 136 851 160 q 869 92 858 113 q 717 18 810 49 q 506 -12 624 -12 z "},"Ğ":{"ha":1015,"x_min":49,"x_max":925,"o":"m 506 -12 q 266 49 369 -12 q 106 221 163 110 q 49 482 49 332 q 89 687 49 599 q 198 833 129 775 q 353 922 267 892 q 531 951 439 951 q 717 933 631 951 q 864 886 803 915 q 851 785 854 838 q 849 671 849 732 q 815 662 832 665 q 775 658 797 658 q 740 806 772 756 q 657 876 708 857 q 542 894 606 894 q 347 840 424 894 q 233 699 269 786 q 196 513 196 613 q 233 283 196 386 q 346 117 271 179 q 533 56 421 56 q 608 60 575 56 q 674 78 640 64 q 709 109 697 89 q 721 182 721 129 l 721 251 q 713 344 721 315 q 680 381 706 372 q 601 390 654 389 q 595 419 597 401 q 593 454 593 438 q 669 451 619 453 q 763 450 719 450 q 854 451 806 450 q 925 453 903 451 q 924 422 925 440 q 917 390 922 404 q 875 381 889 389 q 856 343 861 372 q 851 251 851 314 l 851 189 q 855 136 851 160 q 869 92 858 113 q 717 18 810 49 q 506 -12 624 -12 m 731 1201 q 676 1060 731 1110 q 522 1011 622 1011 q 372 1059 425 1011 q 318 1196 318 1107 q 349 1206 332 1203 q 381 1208 365 1210 q 431 1129 389 1158 q 535 1100 472 1100 q 636 1129 597 1100 q 678 1208 675 1158 q 707 1208 693 1210 q 731 1201 721 1206 z "},"Ǧ":{"ha":1015,"x_min":49,"x_max":925,"o":"m 506 -12 q 266 49 369 -12 q 106 221 163 110 q 49 482 49 332 q 89 687 49 599 q 198 833 129 775 q 353 922 267 892 q 531 951 439 951 q 717 933 631 951 q 864 886 803 915 q 851 785 854 838 q 849 671 849 732 q 815 662 832 665 q 775 658 797 658 q 740 806 772 756 q 657 876 708 857 q 542 894 606 894 q 347 840 424 894 q 233 699 269 786 q 196 513 196 613 q 233 283 196 386 q 346 117 271 179 q 533 56 421 56 q 608 60 575 56 q 674 78 640 64 q 709 109 697 89 q 721 182 721 129 l 721 251 q 713 344 721 315 q 680 381 706 372 q 601 390 654 389 q 595 419 597 401 q 593 454 593 438 q 669 451 619 453 q 763 450 719 450 q 854 451 806 450 q 925 453 903 451 q 924 422 925 440 q 917 390 922 404 q 875 381 889 389 q 856 343 861 372 q 851 251 851 314 l 851 189 q 855 136 851 160 q 869 92 858 113 q 717 18 810 49 q 506 -12 624 -12 m 493 1015 q 414 1099 460 1054 q 313 1188 368 1143 q 332 1207 319 1199 q 360 1219 344 1215 q 444 1169 399 1197 q 529 1124 490 1142 q 585 1152 549 1133 q 657 1191 621 1171 q 714 1224 693 1211 q 730 1203 725 1218 q 736 1176 735 1188 q 636 1104 689 1146 q 542 1021 583 1063 q 517 1017 531 1018 q 493 1015 504 1015 z "},"Ĝ":{"ha":1015,"x_min":49,"x_max":925,"o":"m 506 -12 q 266 49 369 -12 q 106 221 163 110 q 49 482 49 332 q 89 687 49 599 q 198 833 129 775 q 353 922 267 892 q 531 951 439 951 q 717 933 631 951 q 864 886 803 915 q 851 785 854 838 q 849 671 849 732 q 815 662 832 665 q 775 658 797 658 q 740 806 772 756 q 657 876 708 857 q 542 894 606 894 q 347 840 424 894 q 233 699 269 786 q 196 513 196 613 q 233 283 196 386 q 346 117 271 179 q 533 56 421 56 q 608 60 575 56 q 674 78 640 64 q 709 109 697 89 q 721 182 721 129 l 721 251 q 713 344 721 315 q 680 381 706 372 q 601 390 654 389 q 595 419 597 401 q 593 454 593 438 q 669 451 619 453 q 763 450 719 450 q 854 451 806 450 q 925 453 903 451 q 924 422 925 440 q 917 390 922 404 q 875 381 889 389 q 856 343 861 372 q 851 251 851 314 l 851 189 q 855 136 851 160 q 869 92 858 113 q 717 18 810 49 q 506 -12 624 -12 m 335 1011 q 319 1033 324 1018 q 313 1058 314 1049 q 413 1131 360 1089 q 507 1214 465 1172 q 532 1218 518 1217 q 556 1219 546 1219 q 635 1136 589 1181 q 736 1047 681 1092 q 717 1028 729 1036 q 689 1015 704 1019 q 605 1066 650 1039 q 519 1111 560 1093 q 464 1083 500 1103 q 392 1044 428 1064 q 335 1011 356 1025 z "},"Ģ":{"ha":1015,"x_min":49,"x_max":925,"o":"m 506 -12 q 266 49 369 -12 q 106 221 163 110 q 49 482 49 332 q 89 687 49 599 q 198 833 129 775 q 353 922 267 892 q 531 951 439 951 q 717 933 631 951 q 864 886 803 915 q 851 785 854 838 q 849 671 849 732 q 815 662 832 665 q 775 658 797 658 q 740 806 772 756 q 657 876 708 857 q 542 894 606 894 q 347 840 424 894 q 233 699 269 786 q 196 513 196 613 q 233 283 196 386 q 346 117 271 179 q 533 56 421 56 q 608 60 575 56 q 674 78 640 64 q 709 109 697 89 q 721 182 721 129 l 721 251 q 713 344 721 315 q 680 381 706 372 q 601 390 654 389 q 595 419 597 401 q 593 454 593 438 q 669 451 619 453 q 763 450 719 450 q 854 451 806 450 q 925 453 903 451 q 924 422 925 440 q 917 390 922 404 q 875 381 889 389 q 856 343 861 372 q 851 251 851 314 l 851 189 q 855 136 851 160 q 869 92 858 113 q 717 18 810 49 q 506 -12 624 -12 m 553 -60 q 588 -94 576 -69 q 600 -153 600 -118 q 555 -285 600 -225 q 451 -389 510 -344 q 413 -360 424 -383 q 465 -292 447 -325 q 482 -235 482 -260 q 431 -185 482 -190 q 433 -146 429 -174 q 442 -101 436 -118 q 502 -84 474 -94 q 553 -60 531 -74 z "},"Ġ":{"ha":1015,"x_min":49,"x_max":925,"o":"m 506 -12 q 266 49 369 -12 q 106 221 163 110 q 49 482 49 332 q 89 687 49 599 q 198 833 129 775 q 353 922 267 892 q 531 951 439 951 q 717 933 631 951 q 864 886 803 915 q 851 785 854 838 q 849 671 849 732 q 815 662 832 665 q 775 658 797 658 q 740 806 772 756 q 657 876 708 857 q 542 894 606 894 q 347 840 424 894 q 233 699 269 786 q 196 513 196 613 q 233 283 196 386 q 346 117 271 179 q 533 56 421 56 q 608 60 575 56 q 674 78 640 64 q 709 109 697 89 q 721 182 721 129 l 721 251 q 713 344 721 315 q 680 381 706 372 q 601 390 654 389 q 595 419 597 401 q 593 454 593 438 q 669 451 619 453 q 763 450 719 450 q 854 451 806 450 q 925 453 903 451 q 924 422 925 440 q 917 390 922 404 q 875 381 889 389 q 856 343 861 372 q 851 251 851 314 l 851 189 q 855 136 851 160 q 869 92 858 113 q 717 18 810 49 q 506 -12 624 -12 m 524 1000 q 465 1024 489 1000 q 442 1081 442 1047 q 467 1142 442 1118 q 524 1165 492 1165 q 584 1142 561 1165 q 607 1081 607 1118 q 583 1024 607 1049 q 524 1000 558 1000 z "},"Ḡ":{"ha":1015,"x_min":49,"x_max":925,"o":"m 506 -12 q 266 49 369 -12 q 106 221 163 110 q 49 482 49 332 q 89 687 49 599 q 198 833 129 775 q 353 922 267 892 q 531 951 439 951 q 717 933 631 951 q 864 886 803 915 q 851 785 854 838 q 849 671 849 732 q 815 662 832 665 q 775 658 797 658 q 740 806 772 756 q 657 876 708 857 q 542 894 606 894 q 347 840 424 894 q 233 699 269 786 q 196 513 196 613 q 233 283 196 386 q 346 117 271 179 q 533 56 421 56 q 608 60 575 56 q 674 78 640 64 q 709 109 697 89 q 721 182 721 129 l 721 251 q 713 344 721 315 q 680 381 706 372 q 601 390 654 389 q 595 419 597 401 q 593 454 593 438 q 669 451 619 453 q 763 450 719 450 q 854 451 806 450 q 925 453 903 451 q 924 422 925 440 q 917 390 922 404 q 875 381 889 389 q 856 343 861 372 q 851 251 851 314 l 851 189 q 855 136 851 160 q 869 92 858 113 q 717 18 810 49 q 506 -12 624 -12 m 778 1118 q 775 1089 778 1104 q 765 1058 772 1074 q 671 1058 743 1058 q 495 1058 599 1058 q 272 1054 392 1057 q 276 1084 272 1063 q 285 1118 279 1106 l 778 1118 z "},"Ǥ":{"ha":1015,"x_min":49,"x_max":972,"o":"m 515 196 q 519 234 515 211 q 529 267 524 257 l 719 267 l 772 267 l 972 267 q 970 229 972 246 q 960 197 968 213 q 894 199 924 199 q 835 199 865 199 q 769 199 806 199 l 718 199 q 656 199 685 199 q 594 198 626 199 q 515 196 561 197 m 506 -12 q 266 49 369 -12 q 106 221 163 110 q 49 482 49 332 q 89 687 49 599 q 198 833 129 775 q 353 922 267 892 q 531 951 439 951 q 717 933 631 951 q 864 886 803 915 q 851 785 854 838 q 849 671 849 732 q 815 662 832 665 q 775 658 797 658 q 740 806 772 756 q 657 876 708 857 q 542 894 606 894 q 347 840 424 894 q 233 699 269 786 q 196 513 196 613 q 233 283 196 386 q 346 117 271 179 q 533 56 421 56 q 608 60 575 56 q 674 78 640 64 q 709 109 697 89 q 721 182 721 129 l 721 251 q 713 344 721 315 q 680 381 706 372 q 601 390 654 389 q 595 419 597 401 q 593 454 593 438 q 669 451 619 453 q 763 450 719 450 q 854 451 806 450 q 925 453 903 451 q 924 422 925 440 q 917 390 922 404 q 875 381 889 389 q 856 343 861 372 q 851 251 851 314 l 851 189 q 855 136 851 160 q 869 92 858 113 q 717 18 810 49 q 506 -12 624 -12 z "},"Ȝ":{"ha":814,"x_min":94,"x_max":738,"o":"m 317 -237 q 182 -219 238 -237 q 94 -175 126 -201 q 99 -152 94 -164 q 113 -129 103 -140 q 182 -155 128 -142 q 296 -168 236 -168 q 453 -132 386 -168 q 557 -28 519 -96 q 594 132 594 39 q 538 306 594 247 q 383 364 482 364 q 312 356 349 364 q 242 332 275 349 q 228 368 232 349 q 225 404 225 388 q 426 481 357 438 q 521 576 496 524 q 546 688 546 628 q 496 838 546 788 q 357 889 446 889 q 242 847 285 889 q 181 697 200 806 q 147 698 163 696 q 111 706 131 700 q 115 794 114 749 q 110 886 115 839 q 226 935 158 918 q 371 951 294 951 q 610 881 532 951 q 689 703 689 811 q 660 585 689 639 q 567 486 631 531 q 397 406 503 442 l 418 428 q 572 408 499 433 q 691 320 644 383 q 738 146 738 257 q 685 -55 738 32 q 537 -190 632 -142 q 317 -237 442 -237 z "},"H":{"ha":1046,"x_min":78,"x_max":968,"o":"m 632 -4 q 633 30 632 15 q 639 56 635 44 q 697 69 676 58 q 726 105 718 79 q 735 176 735 131 l 735 763 q 726 835 735 810 q 697 871 718 860 q 639 883 676 882 q 633 910 635 894 q 632 943 632 925 q 685 941 658 942 q 742 940 713 940 q 800 939 771 939 q 858 940 831 939 q 913 941 886 940 q 968 943 940 942 q 967 910 968 925 q 961 883 965 894 q 903 871 925 882 q 874 835 882 860 q 865 763 865 810 l 865 176 q 874 105 865 131 q 903 69 882 79 q 961 56 925 58 q 967 30 965 44 q 968 -4 968 15 q 883 -1 926 -1 q 800 0 840 0 q 714 -1 760 0 q 632 -4 668 -1 m 78 -4 q 79 30 78 15 q 85 56 81 44 q 143 69 122 58 q 172 105 164 79 q 181 176 181 131 l 181 763 q 172 835 181 810 q 143 871 164 860 q 85 883 122 882 q 79 910 81 894 q 78 943 78 925 q 131 941 104 942 q 188 940 158 940 q 246 939 217 939 q 304 940 276 939 q 359 941 332 940 q 414 943 386 942 q 413 910 414 925 q 407 883 411 894 q 349 871 371 882 q 319 835 328 860 q 311 763 311 810 l 311 176 q 319 105 311 131 q 349 69 328 79 q 407 56 371 58 q 413 30 411 44 q 414 -4 414 15 q 329 -1 372 -1 q 246 0 286 0 q 160 -1 206 0 q 78 -4 114 -1 m 304 443 l 304 511 l 742 511 l 742 451 q 644 451 703 451 q 523 451 586 451 q 402 448 460 450 q 304 443 344 446 z "},"Ħ":{"ha":1046,"x_min":78,"x_max":968,"o":"m 632 -4 q 633 30 632 15 q 639 56 635 44 q 697 69 676 58 q 726 105 718 79 q 735 176 735 131 l 735 763 q 726 835 735 810 q 697 871 718 860 q 639 883 676 882 q 633 910 635 894 q 632 943 632 925 q 685 941 658 942 q 742 940 713 940 q 800 939 771 939 q 858 940 831 939 q 913 941 886 940 q 968 943 940 942 q 967 910 968 925 q 961 883 965 894 q 903 871 925 882 q 874 835 882 860 q 865 763 865 810 l 865 176 q 874 105 865 131 q 903 69 882 79 q 961 56 925 58 q 967 30 965 44 q 968 -4 968 15 q 883 -1 926 -1 q 800 0 840 0 q 714 -1 760 0 q 632 -4 668 -1 m 78 -4 q 79 30 78 15 q 85 56 81 44 q 143 69 122 58 q 172 105 164 79 q 181 176 181 131 l 181 763 q 172 835 181 810 q 143 871 164 860 q 85 883 122 882 q 79 910 81 894 q 78 943 78 925 q 131 941 104 942 q 188 940 158 940 q 246 939 217 939 q 304 940 276 939 q 359 941 332 940 q 414 943 386 942 q 413 910 414 925 q 407 883 411 894 q 349 871 371 882 q 319 835 328 860 q 311 763 311 810 l 311 176 q 319 105 311 131 q 349 69 328 79 q 407 56 371 58 q 413 30 411 44 q 414 -4 414 15 q 329 -1 372 -1 q 246 0 286 0 q 160 -1 206 0 q 78 -4 114 -1 m 304 443 l 304 511 l 742 511 l 742 451 q 644 451 703 451 q 523 451 586 451 q 402 448 460 450 q 304 443 344 446 m 90 635 q 94 665 90 643 q 103 699 97 686 l 956 699 q 953 669 956 685 q 943 639 950 654 q 882 639 932 639 q 756 639 832 639 q 589 638 679 639 q 406 638 499 638 q 232 637 314 638 q 90 635 150 636 z "},"Ḫ":{"ha":1046,"x_min":78,"x_max":968,"o":"m 632 -4 q 633 30 632 15 q 639 56 635 44 q 697 69 676 58 q 726 105 718 79 q 735 176 735 131 l 735 763 q 726 835 735 810 q 697 871 718 860 q 639 883 676 882 q 633 910 635 894 q 632 943 632 925 q 685 941 658 942 q 742 940 713 940 q 800 939 771 939 q 858 940 831 939 q 913 941 886 940 q 968 943 940 942 q 967 910 968 925 q 961 883 965 894 q 903 871 925 882 q 874 835 882 860 q 865 763 865 810 l 865 176 q 874 105 865 131 q 903 69 882 79 q 961 56 925 58 q 967 30 965 44 q 968 -4 968 15 q 883 -1 926 -1 q 800 0 840 0 q 714 -1 760 0 q 632 -4 668 -1 m 78 -4 q 79 30 78 15 q 85 56 81 44 q 143 69 122 58 q 172 105 164 79 q 181 176 181 131 l 181 763 q 172 835 181 810 q 143 871 164 860 q 85 883 122 882 q 79 910 81 894 q 78 943 78 925 q 131 941 104 942 q 188 940 158 940 q 246 939 217 939 q 304 940 276 939 q 359 941 332 940 q 414 943 386 942 q 413 910 414 925 q 407 883 411 894 q 349 871 371 882 q 319 835 328 860 q 311 763 311 810 l 311 176 q 319 105 311 131 q 349 69 328 79 q 407 56 371 58 q 413 30 411 44 q 414 -4 414 15 q 329 -1 372 -1 q 246 0 286 0 q 160 -1 206 0 q 78 -4 114 -1 m 304 443 l 304 511 l 742 511 l 742 451 q 644 451 703 451 q 523 451 586 451 q 402 448 460 450 q 304 443 344 446 m 729 -76 q 675 -217 729 -168 q 521 -267 621 -267 q 370 -219 424 -267 q 317 -82 317 -171 q 347 -72 331 -75 q 379 -69 364 -68 q 429 -149 388 -119 q 533 -178 471 -178 q 635 -149 596 -178 q 676 -69 674 -119 q 706 -70 692 -68 q 729 -76 719 -72 z "},"Ȟ":{"ha":1046,"x_min":78,"x_max":968,"o":"m 632 -4 q 633 30 632 15 q 639 56 635 44 q 697 69 676 58 q 726 105 718 79 q 735 176 735 131 l 735 763 q 726 835 735 810 q 697 871 718 860 q 639 883 676 882 q 633 910 635 894 q 632 943 632 925 q 685 941 658 942 q 742 940 713 940 q 800 939 771 939 q 858 940 831 939 q 913 941 886 940 q 968 943 940 942 q 967 910 968 925 q 961 883 965 894 q 903 871 925 882 q 874 835 882 860 q 865 763 865 810 l 865 176 q 874 105 865 131 q 903 69 882 79 q 961 56 925 58 q 967 30 965 44 q 968 -4 968 15 q 883 -1 926 -1 q 800 0 840 0 q 714 -1 760 0 q 632 -4 668 -1 m 78 -4 q 79 30 78 15 q 85 56 81 44 q 143 69 122 58 q 172 105 164 79 q 181 176 181 131 l 181 763 q 172 835 181 810 q 143 871 164 860 q 85 883 122 882 q 79 910 81 894 q 78 943 78 925 q 131 941 104 942 q 188 940 158 940 q 246 939 217 939 q 304 940 276 939 q 359 941 332 940 q 414 943 386 942 q 413 910 414 925 q 407 883 411 894 q 349 871 371 882 q 319 835 328 860 q 311 763 311 810 l 311 176 q 319 105 311 131 q 349 69 328 79 q 407 56 371 58 q 413 30 411 44 q 414 -4 414 15 q 329 -1 372 -1 q 246 0 286 0 q 160 -1 206 0 q 78 -4 114 -1 m 304 443 l 304 511 l 742 511 l 742 451 q 644 451 703 451 q 523 451 586 451 q 402 448 460 450 q 304 443 344 446 m 492 1015 q 413 1099 458 1054 q 311 1188 367 1143 q 331 1207 318 1199 q 358 1219 343 1215 q 443 1169 397 1197 q 528 1124 489 1142 q 583 1152 547 1133 q 656 1191 619 1171 q 713 1224 692 1211 q 728 1203 724 1218 q 735 1176 733 1188 q 635 1104 688 1146 q 540 1021 582 1063 q 516 1017 529 1018 q 492 1015 503 1015 z "},"Ĥ":{"ha":1046,"x_min":78,"x_max":968,"o":"m 632 -4 q 633 30 632 15 q 639 56 635 44 q 697 69 676 58 q 726 105 718 79 q 735 176 735 131 l 735 763 q 726 835 735 810 q 697 871 718 860 q 639 883 676 882 q 633 910 635 894 q 632 943 632 925 q 685 941 658 942 q 742 940 713 940 q 800 939 771 939 q 858 940 831 939 q 913 941 886 940 q 968 943 940 942 q 967 910 968 925 q 961 883 965 894 q 903 871 925 882 q 874 835 882 860 q 865 763 865 810 l 865 176 q 874 105 865 131 q 903 69 882 79 q 961 56 925 58 q 967 30 965 44 q 968 -4 968 15 q 883 -1 926 -1 q 800 0 840 0 q 714 -1 760 0 q 632 -4 668 -1 m 78 -4 q 79 30 78 15 q 85 56 81 44 q 143 69 122 58 q 172 105 164 79 q 181 176 181 131 l 181 763 q 172 835 181 810 q 143 871 164 860 q 85 883 122 882 q 79 910 81 894 q 78 943 78 925 q 131 941 104 942 q 188 940 158 940 q 246 939 217 939 q 304 940 276 939 q 359 941 332 940 q 414 943 386 942 q 413 910 414 925 q 407 883 411 894 q 349 871 371 882 q 319 835 328 860 q 311 763 311 810 l 311 176 q 319 105 311 131 q 349 69 328 79 q 407 56 371 58 q 413 30 411 44 q 414 -4 414 15 q 329 -1 372 -1 q 246 0 286 0 q 160 -1 206 0 q 78 -4 114 -1 m 304 443 l 304 511 l 742 511 l 742 451 q 644 451 703 451 q 523 451 586 451 q 402 448 460 450 q 304 443 344 446 m 333 1011 q 317 1033 322 1018 q 311 1058 313 1049 q 411 1131 358 1089 q 506 1214 464 1172 q 531 1218 517 1217 q 554 1219 544 1219 q 633 1136 588 1181 q 735 1047 679 1092 q 715 1028 728 1036 q 688 1015 703 1019 q 603 1066 649 1039 q 518 1111 558 1093 q 463 1083 499 1103 q 390 1044 426 1064 q 333 1011 354 1025 z "},"Ḥ":{"ha":1046,"x_min":78,"x_max":968,"o":"m 632 -4 q 633 30 632 15 q 639 56 635 44 q 697 69 676 58 q 726 105 718 79 q 735 176 735 131 l 735 763 q 726 835 735 810 q 697 871 718 860 q 639 883 676 882 q 633 910 635 894 q 632 943 632 925 q 685 941 658 942 q 742 940 713 940 q 800 939 771 939 q 858 940 831 939 q 913 941 886 940 q 968 943 940 942 q 967 910 968 925 q 961 883 965 894 q 903 871 925 882 q 874 835 882 860 q 865 763 865 810 l 865 176 q 874 105 865 131 q 903 69 882 79 q 961 56 925 58 q 967 30 965 44 q 968 -4 968 15 q 883 -1 926 -1 q 800 0 840 0 q 714 -1 760 0 q 632 -4 668 -1 m 78 -4 q 79 30 78 15 q 85 56 81 44 q 143 69 122 58 q 172 105 164 79 q 181 176 181 131 l 181 763 q 172 835 181 810 q 143 871 164 860 q 85 883 122 882 q 79 910 81 894 q 78 943 78 925 q 131 941 104 942 q 188 940 158 940 q 246 939 217 939 q 304 940 276 939 q 359 941 332 940 q 414 943 386 942 q 413 910 414 925 q 407 883 411 894 q 349 871 371 882 q 319 835 328 860 q 311 763 311 810 l 311 176 q 319 105 311 131 q 349 69 328 79 q 407 56 371 58 q 413 30 411 44 q 414 -4 414 15 q 329 -1 372 -1 q 246 0 286 0 q 160 -1 206 0 q 78 -4 114 -1 m 304 443 l 304 511 l 742 511 l 742 451 q 644 451 703 451 q 523 451 586 451 q 402 448 460 450 q 304 443 344 446 m 522 -292 q 464 -268 488 -292 q 440 -211 440 -244 q 465 -150 440 -174 q 522 -126 490 -126 q 583 -150 560 -126 q 606 -211 606 -174 q 581 -267 606 -243 q 522 -292 557 -292 z "},"I":{"ha":492,"x_min":78,"x_max":414,"o":"m 181 763 q 172 835 181 810 q 143 871 164 860 q 85 883 122 882 q 79 910 81 894 q 78 943 78 925 q 131 941 104 942 q 188 940 158 940 q 246 939 217 939 q 304 940 276 939 q 359 941 332 940 q 414 943 386 942 q 413 910 414 925 q 407 883 411 894 q 349 871 371 882 q 319 835 328 860 q 311 763 311 810 l 311 176 q 319 105 311 131 q 349 69 328 79 q 407 56 371 58 q 413 30 411 44 q 414 -4 414 15 q 329 -1 372 -1 q 246 0 286 0 q 160 -1 206 0 q 78 -4 114 -1 q 79 30 78 15 q 85 56 81 44 q 143 69 122 58 q 172 105 164 79 q 181 176 181 131 l 181 763 z "},"Ĳ":{"ha":839,"x_min":78,"x_max":782,"o":"m 181 763 q 172 835 181 810 q 143 871 164 860 q 85 883 122 882 q 79 910 81 894 q 78 943 78 925 q 131 941 104 942 q 188 940 158 940 q 246 939 217 939 q 304 940 276 939 q 359 941 332 940 q 414 943 386 942 q 413 910 414 925 q 407 883 411 894 q 349 871 371 882 q 319 835 328 860 q 311 763 311 810 l 311 176 q 319 105 311 131 q 349 69 328 79 q 407 56 371 58 q 413 30 411 44 q 414 -4 414 15 q 329 -1 372 -1 q 246 0 286 0 q 160 -1 206 0 q 78 -4 114 -1 q 79 30 78 15 q 85 56 81 44 q 143 69 122 58 q 172 105 164 79 q 181 176 181 131 l 181 763 m 679 174 q 670 1 679 76 q 633 -134 661 -74 q 552 -246 606 -194 q 410 -346 499 -297 q 394 -331 400 -340 q 386 -310 389 -321 q 475 -217 439 -265 q 530 -104 511 -168 q 549 47 549 -40 l 549 763 q 540 835 549 810 q 511 871 532 860 q 453 883 490 882 q 447 910 449 894 q 446 943 446 925 q 494 941 467 942 q 552 940 521 940 q 614 939 583 939 q 708 940 660 939 q 782 943 757 942 q 781 910 782 925 q 775 883 779 894 q 719 871 740 882 q 688 835 697 860 q 679 763 679 810 l 679 174 z "},"Í":{"ha":492,"x_min":78,"x_max":414,"o":"m 181 763 q 172 835 181 810 q 143 871 164 860 q 85 883 122 882 q 79 910 81 894 q 78 943 78 925 q 131 941 104 942 q 188 940 158 940 q 246 939 217 939 q 304 940 276 939 q 359 941 332 940 q 414 943 386 942 q 413 910 414 925 q 407 883 411 894 q 349 871 371 882 q 319 835 328 860 q 311 763 311 810 l 311 176 q 319 105 311 131 q 349 69 328 79 q 407 56 371 58 q 413 30 411 44 q 414 -4 414 15 q 329 -1 372 -1 q 246 0 286 0 q 160 -1 206 0 q 78 -4 114 -1 q 79 30 78 15 q 85 56 81 44 q 143 69 122 58 q 172 105 164 79 q 181 176 181 131 l 181 763 m 256 1017 q 225 1017 238 1017 q 200 1024 213 1018 q 244 1119 224 1072 q 278 1210 264 1167 q 311 1217 294 1214 q 344 1219 328 1219 q 410 1208 381 1219 q 335 1118 372 1164 q 256 1017 299 1072 z "},"Ĭ":{"ha":492,"x_min":56,"x_max":435,"o":"m 181 763 q 172 835 181 810 q 143 871 164 860 q 85 883 122 882 q 79 910 81 894 q 78 943 78 925 q 131 941 104 942 q 188 940 158 940 q 246 939 217 939 q 304 940 276 939 q 359 941 332 940 q 414 943 386 942 q 413 910 414 925 q 407 883 411 894 q 349 871 371 882 q 319 835 328 860 q 311 763 311 810 l 311 176 q 319 105 311 131 q 349 69 328 79 q 407 56 371 58 q 413 30 411 44 q 414 -4 414 15 q 329 -1 372 -1 q 246 0 286 0 q 160 -1 206 0 q 78 -4 114 -1 q 79 30 78 15 q 85 56 81 44 q 143 69 122 58 q 172 105 164 79 q 181 176 181 131 l 181 763 m 243 994 q 103 1046 150 994 q 56 1192 56 1097 q 83 1202 68 1199 q 111 1204 97 1206 q 158 1116 122 1149 q 253 1083 193 1083 q 349 1116 314 1083 q 389 1204 385 1149 q 417 1203 404 1206 q 435 1197 429 1201 q 387 1047 435 1100 q 243 994 339 994 z "},"Ǐ":{"ha":492,"x_min":64,"x_max":428,"o":"m 181 763 q 172 835 181 810 q 143 871 164 860 q 85 883 122 882 q 79 910 81 894 q 78 943 78 925 q 131 941 104 942 q 188 940 158 940 q 246 939 217 939 q 304 940 276 939 q 359 941 332 940 q 414 943 386 942 q 413 910 414 925 q 407 883 411 894 q 349 871 371 882 q 319 835 328 860 q 311 763 311 810 l 311 176 q 319 105 311 131 q 349 69 328 79 q 407 56 371 58 q 413 30 411 44 q 414 -4 414 15 q 329 -1 372 -1 q 246 0 286 0 q 160 -1 206 0 q 78 -4 114 -1 q 79 30 78 15 q 85 56 81 44 q 143 69 122 58 q 172 105 164 79 q 181 176 181 131 l 181 763 m 218 985 q 146 1080 185 1031 q 64 1181 107 1129 q 85 1197 71 1190 q 114 1207 100 1204 q 185 1147 147 1176 q 257 1093 224 1117 q 330 1151 296 1121 q 394 1211 364 1182 q 428 1164 424 1194 q 344 1081 386 1125 q 265 992 303 1036 q 237 986 247 988 q 218 985 226 985 z "},"Î":{"ha":492,"x_min":64,"x_max":428,"o":"m 181 763 q 172 835 181 810 q 143 871 164 860 q 85 883 122 882 q 79 910 81 894 q 78 943 78 925 q 131 941 104 942 q 188 940 158 940 q 246 939 217 939 q 304 940 276 939 q 359 941 332 940 q 414 943 386 942 q 413 910 414 925 q 407 883 411 894 q 349 871 371 882 q 319 835 328 860 q 311 763 311 810 l 311 176 q 319 105 311 131 q 349 69 328 79 q 407 56 371 58 q 413 30 411 44 q 414 -4 414 15 q 329 -1 372 -1 q 246 0 286 0 q 160 -1 206 0 q 78 -4 114 -1 q 79 30 78 15 q 85 56 81 44 q 143 69 122 58 q 172 105 164 79 q 181 176 181 131 l 181 763 m 97 986 q 75 1006 83 993 q 64 1033 67 1018 q 147 1116 106 1071 q 226 1206 189 1161 q 255 1210 244 1208 q 274 1213 265 1213 q 346 1118 307 1167 q 428 1017 385 1069 q 406 1000 421 1007 q 378 990 392 993 q 306 1051 344 1021 q 235 1103 268 1081 q 162 1045 196 1075 q 97 986 128 1015 z "},"Ȉ":{"ha":492,"x_min":-7,"x_max":414,"o":"m 181 763 q 172 835 181 810 q 143 871 164 860 q 85 883 122 882 q 79 910 81 894 q 78 943 78 925 q 131 941 104 942 q 188 940 158 940 q 246 939 217 939 q 304 940 276 939 q 359 941 332 940 q 414 943 386 942 q 413 910 414 925 q 407 883 411 894 q 349 871 371 882 q 319 835 328 860 q 311 763 311 810 l 311 176 q 319 105 311 131 q 349 69 328 79 q 407 56 371 58 q 413 30 411 44 q 414 -4 414 15 q 329 -1 372 -1 q 246 0 286 0 q 160 -1 206 0 q 78 -4 114 -1 q 79 30 78 15 q 85 56 81 44 q 143 69 122 58 q 172 105 164 79 q 181 176 181 131 l 181 763 m 133 1003 q 61 1101 94 1058 q -7 1181 28 1143 q 51 1197 17 1193 q 118 1197 85 1200 q 150 1106 133 1154 q 189 1010 167 1058 q 164 1003 176 1004 q 133 1003 151 1003 m 329 1003 q 258 1101 290 1058 q 192 1181 225 1143 q 249 1197 215 1193 q 314 1197 282 1200 q 346 1106 329 1154 q 385 1010 363 1058 q 360 1003 372 1004 q 329 1003 347 1003 z "},"Ï":{"ha":492,"x_min":60,"x_max":431,"o":"m 181 763 q 172 835 181 810 q 143 871 164 860 q 85 883 122 882 q 79 910 81 894 q 78 943 78 925 q 131 941 104 942 q 188 940 158 940 q 246 939 217 939 q 304 940 276 939 q 359 941 332 940 q 414 943 386 942 q 413 910 414 925 q 407 883 411 894 q 349 871 371 882 q 319 835 328 860 q 311 763 311 810 l 311 176 q 319 105 311 131 q 349 69 328 79 q 407 56 371 58 q 413 30 411 44 q 414 -4 414 15 q 329 -1 372 -1 q 246 0 286 0 q 160 -1 206 0 q 78 -4 114 -1 q 79 30 78 15 q 85 56 81 44 q 143 69 122 58 q 172 105 164 79 q 181 176 181 131 l 181 763 m 139 1024 q 82 1043 104 1024 q 60 1090 60 1063 q 78 1142 60 1119 q 136 1165 96 1165 q 197 1144 178 1165 q 215 1093 215 1124 q 193 1043 215 1063 q 139 1024 171 1024 m 356 1025 q 294 1046 315 1025 q 274 1099 274 1067 q 295 1148 274 1131 q 351 1165 317 1165 q 408 1147 386 1165 q 431 1099 431 1128 q 414 1048 431 1071 q 356 1025 397 1025 z "},"Ḯ":{"ha":492,"x_min":60,"x_max":431,"o":"m 181 763 q 172 835 181 810 q 143 871 164 860 q 85 883 122 882 q 79 910 81 894 q 78 943 78 925 q 131 941 104 942 q 188 940 158 940 q 246 939 217 939 q 304 940 276 939 q 359 941 332 940 q 414 943 386 942 q 413 910 414 925 q 407 883 411 894 q 349 871 371 882 q 319 835 328 860 q 311 763 311 810 l 311 176 q 319 105 311 131 q 349 69 328 79 q 407 56 371 58 q 413 30 411 44 q 414 -4 414 15 q 329 -1 372 -1 q 246 0 286 0 q 160 -1 206 0 q 78 -4 114 -1 q 79 30 78 15 q 85 56 81 44 q 143 69 122 58 q 172 105 164 79 q 181 176 181 131 l 181 763 m 139 1024 q 82 1043 104 1024 q 60 1090 60 1063 q 78 1142 60 1119 q 136 1165 96 1165 q 197 1144 178 1165 q 215 1093 215 1124 q 193 1043 215 1063 q 139 1024 171 1024 m 356 1025 q 294 1046 315 1025 q 274 1099 274 1067 q 295 1148 274 1131 q 351 1165 317 1165 q 408 1147 386 1165 q 431 1099 431 1128 q 414 1048 431 1071 q 356 1025 397 1025 m 256 1214 q 225 1215 238 1214 q 200 1221 213 1215 q 244 1317 224 1269 q 278 1407 264 1364 q 311 1414 294 1411 q 344 1417 328 1417 q 410 1406 381 1417 q 335 1315 372 1361 q 256 1214 299 1269 z "},"İ":{"ha":492,"x_min":78,"x_max":414,"o":"m 181 763 q 172 835 181 810 q 143 871 164 860 q 85 883 122 882 q 79 910 81 894 q 78 943 78 925 q 131 941 104 942 q 188 940 158 940 q 246 939 217 939 q 304 940 276 939 q 359 941 332 940 q 414 943 386 942 q 413 910 414 925 q 407 883 411 894 q 349 871 371 882 q 319 835 328 860 q 311 763 311 810 l 311 176 q 319 105 311 131 q 349 69 328 79 q 407 56 371 58 q 413 30 411 44 q 414 -4 414 15 q 329 -1 372 -1 q 246 0 286 0 q 160 -1 206 0 q 78 -4 114 -1 q 79 30 78 15 q 85 56 81 44 q 143 69 122 58 q 172 105 164 79 q 181 176 181 131 l 181 763 m 244 1000 q 186 1024 210 1000 q 163 1081 163 1047 q 188 1142 163 1118 q 244 1165 213 1165 q 305 1142 282 1165 q 328 1081 328 1118 q 303 1024 328 1049 q 244 1000 279 1000 z "},"Ị":{"ha":492,"x_min":78,"x_max":414,"o":"m 181 763 q 172 835 181 810 q 143 871 164 860 q 85 883 122 882 q 79 910 81 894 q 78 943 78 925 q 131 941 104 942 q 188 940 158 940 q 246 939 217 939 q 304 940 276 939 q 359 941 332 940 q 414 943 386 942 q 413 910 414 925 q 407 883 411 894 q 349 871 371 882 q 319 835 328 860 q 311 763 311 810 l 311 176 q 319 105 311 131 q 349 69 328 79 q 407 56 371 58 q 413 30 411 44 q 414 -4 414 15 q 329 -1 372 -1 q 246 0 286 0 q 160 -1 206 0 q 78 -4 114 -1 q 79 30 78 15 q 85 56 81 44 q 143 69 122 58 q 172 105 164 79 q 181 176 181 131 l 181 763 m 244 -292 q 186 -268 210 -292 q 163 -211 163 -244 q 188 -150 163 -174 q 244 -126 213 -126 q 305 -150 282 -126 q 328 -211 328 -174 q 303 -267 328 -243 q 244 -292 279 -292 z "},"Ì":{"ha":492,"x_min":78,"x_max":414,"o":"m 181 763 q 172 835 181 810 q 143 871 164 860 q 85 883 122 882 q 79 910 81 894 q 78 943 78 925 q 131 941 104 942 q 188 940 158 940 q 246 939 217 939 q 304 940 276 939 q 359 941 332 940 q 414 943 386 942 q 413 910 414 925 q 407 883 411 894 q 349 871 371 882 q 319 835 328 860 q 311 763 311 810 l 311 176 q 319 105 311 131 q 349 69 328 79 q 407 56 371 58 q 413 30 411 44 q 414 -4 414 15 q 329 -1 372 -1 q 246 0 286 0 q 160 -1 206 0 q 78 -4 114 -1 q 79 30 78 15 q 85 56 81 44 q 143 69 122 58 q 172 105 164 79 q 181 176 181 131 l 181 763 m 236 1017 q 156 1115 193 1072 q 82 1194 119 1157 q 140 1210 106 1207 q 207 1211 174 1214 q 245 1120 225 1168 q 292 1024 265 1072 q 267 1017 279 1018 q 236 1017 254 1017 z "},"Ỉ":{"ha":492,"x_min":78,"x_max":414,"o":"m 181 763 q 172 835 181 810 q 143 871 164 860 q 85 883 122 882 q 79 910 81 894 q 78 943 78 925 q 131 941 104 942 q 188 940 158 940 q 246 939 217 939 q 304 940 276 939 q 359 941 332 940 q 414 943 386 942 q 413 910 414 925 q 407 883 411 894 q 349 871 371 882 q 319 835 328 860 q 311 763 311 810 l 311 176 q 319 105 311 131 q 349 69 328 79 q 407 56 371 58 q 413 30 411 44 q 414 -4 414 15 q 329 -1 372 -1 q 246 0 286 0 q 160 -1 206 0 q 78 -4 114 -1 q 79 30 78 15 q 85 56 81 44 q 143 69 122 58 q 172 105 164 79 q 181 176 181 131 l 181 763 m 218 1008 q 200 1051 200 1031 q 213 1087 200 1074 q 244 1110 226 1100 q 274 1131 261 1121 q 288 1158 288 1142 q 276 1179 288 1172 q 246 1186 265 1186 q 199 1168 215 1186 q 178 1106 183 1150 q 142 1109 161 1106 q 113 1118 124 1113 q 116 1158 115 1142 q 113 1194 117 1174 q 167 1225 135 1211 q 251 1239 199 1239 q 343 1219 307 1239 q 379 1161 379 1200 q 363 1117 379 1135 q 325 1086 346 1099 q 288 1062 304 1074 q 271 1033 271 1050 q 274 1015 271 1026 q 247 1010 260 1011 q 218 1008 233 1008 z "},"Ȋ":{"ha":492,"x_min":56,"x_max":435,"o":"m 181 763 q 172 835 181 810 q 143 871 164 860 q 85 883 122 882 q 79 910 81 894 q 78 943 78 925 q 131 941 104 942 q 188 940 158 940 q 246 939 217 939 q 304 940 276 939 q 359 941 332 940 q 414 943 386 942 q 413 910 414 925 q 407 883 411 894 q 349 871 371 882 q 319 835 328 860 q 311 763 311 810 l 311 176 q 319 105 311 131 q 349 69 328 79 q 407 56 371 58 q 413 30 411 44 q 414 -4 414 15 q 329 -1 372 -1 q 246 0 286 0 q 160 -1 206 0 q 78 -4 114 -1 q 79 30 78 15 q 85 56 81 44 q 143 69 122 58 q 172 105 164 79 q 181 176 181 131 l 181 763 m 247 1204 q 388 1153 342 1204 q 435 1007 435 1101 q 408 997 422 1000 q 379 994 393 993 q 334 1083 369 1050 q 238 1115 299 1115 q 142 1083 178 1115 q 101 994 106 1050 q 75 995 88 993 q 56 1001 63 997 q 103 1151 56 1099 q 247 1204 151 1204 z "},"Ī":{"ha":492,"x_min":63,"x_max":429,"o":"m 181 763 q 172 835 181 810 q 143 871 164 860 q 85 883 122 882 q 79 910 81 894 q 78 943 78 925 q 131 941 104 942 q 188 940 158 940 q 246 939 217 939 q 304 940 276 939 q 359 941 332 940 q 414 943 386 942 q 413 910 414 925 q 407 883 411 894 q 349 871 371 882 q 319 835 328 860 q 311 763 311 810 l 311 176 q 319 105 311 131 q 349 69 328 79 q 407 56 371 58 q 413 30 411 44 q 414 -4 414 15 q 329 -1 372 -1 q 246 0 286 0 q 160 -1 206 0 q 78 -4 114 -1 q 79 30 78 15 q 85 56 81 44 q 143 69 122 58 q 172 105 164 79 q 181 176 181 131 l 181 763 m 63 1050 q 66 1085 63 1063 q 75 1118 69 1107 l 429 1118 q 426 1090 429 1106 q 417 1056 424 1074 q 283 1055 378 1056 q 63 1050 188 1054 z "},"Į":{"ha":492,"x_min":78,"x_max":414,"o":"m 267 28 l 299 0 q 233 -70 256 -33 q 210 -147 210 -107 q 233 -206 210 -186 q 297 -226 256 -226 q 325 -224 310 -226 q 356 -215 340 -221 q 362 -231 360 -222 q 365 -249 364 -239 q 365 -269 367 -258 q 313 -301 339 -283 q 263 -343 288 -319 q 250 -345 257 -344 q 236 -346 243 -346 q 182 -335 214 -346 q 126 -294 150 -324 q 101 -210 101 -264 q 141 -90 101 -149 q 267 28 181 -32 m 181 763 q 172 835 181 810 q 143 871 164 860 q 85 883 122 882 q 79 910 81 894 q 78 943 78 925 q 131 941 104 942 q 188 940 158 940 q 246 939 217 939 q 304 940 276 939 q 359 941 332 940 q 414 943 386 942 q 413 910 414 925 q 407 883 411 894 q 349 871 371 882 q 319 835 328 860 q 311 763 311 810 l 311 176 q 319 105 311 131 q 349 69 328 79 q 407 56 371 58 q 413 30 411 44 q 414 -4 414 15 q 329 -1 372 -1 q 246 0 286 0 q 160 -1 206 0 q 78 -4 114 -1 q 79 30 78 15 q 85 56 81 44 q 143 69 122 58 q 172 105 164 79 q 181 176 181 131 l 181 763 z "},"Ĩ":{"ha":492,"x_min":44,"x_max":446,"o":"m 181 763 q 172 835 181 810 q 143 871 164 860 q 85 883 122 882 q 79 910 81 894 q 78 943 78 925 q 131 941 104 942 q 188 940 158 940 q 246 939 217 939 q 304 940 276 939 q 359 941 332 940 q 414 943 386 942 q 413 910 414 925 q 407 883 411 894 q 349 871 371 882 q 319 835 328 860 q 311 763 311 810 l 311 176 q 319 105 311 131 q 349 69 328 79 q 407 56 371 58 q 413 30 411 44 q 414 -4 414 15 q 329 -1 372 -1 q 246 0 286 0 q 160 -1 206 0 q 78 -4 114 -1 q 79 30 78 15 q 85 56 81 44 q 143 69 122 58 q 172 105 164 79 q 181 176 181 131 l 181 763 m 318 1018 q 258 1031 279 1018 q 220 1057 238 1044 q 172 1069 203 1069 q 120 1057 146 1069 q 67 1022 94 1044 q 44 1056 47 1035 q 119 1144 81 1121 q 192 1168 157 1168 q 245 1156 225 1168 q 285 1133 265 1144 q 332 1121 304 1121 q 372 1129 350 1121 q 413 1158 394 1138 q 446 1139 436 1153 q 393 1045 425 1072 q 318 1018 361 1018 z "},"J":{"ha":457,"x_min":4,"x_max":400,"o":"m 297 174 q 288 1 297 76 q 251 -134 279 -74 q 170 -246 224 -194 q 28 -346 117 -297 q 13 -331 18 -340 q 4 -310 7 -321 q 93 -217 57 -265 q 148 -104 129 -168 q 167 47 167 -40 l 167 763 q 158 835 167 810 q 129 871 150 860 q 71 883 108 882 q 65 910 67 894 q 64 943 64 925 q 112 941 85 942 q 170 940 139 940 q 232 939 201 939 q 326 940 278 939 q 400 943 375 942 q 399 910 400 925 q 393 883 397 894 q 337 871 358 882 q 306 835 315 860 q 297 763 297 810 l 297 174 z "},"Ĵ":{"ha":457,"x_min":4,"x_max":414,"o":"m 297 174 q 288 1 297 76 q 251 -134 279 -74 q 170 -246 224 -194 q 28 -346 117 -297 q 13 -331 18 -340 q 4 -310 7 -321 q 93 -217 57 -265 q 148 -104 129 -168 q 167 47 167 -40 l 167 763 q 158 835 167 810 q 129 871 150 860 q 71 883 108 882 q 65 910 67 894 q 64 943 64 925 q 112 941 85 942 q 170 940 139 940 q 232 939 201 939 q 326 940 278 939 q 400 943 375 942 q 399 910 400 925 q 393 883 397 894 q 337 871 358 882 q 306 835 315 860 q 297 763 297 810 l 297 174 m 83 986 q 61 1006 69 993 q 50 1033 53 1018 q 133 1116 92 1071 q 213 1206 175 1161 q 241 1210 231 1208 q 260 1213 251 1213 q 332 1118 293 1167 q 414 1017 371 1069 q 392 1000 407 1007 q 364 990 378 993 q 292 1051 331 1021 q 221 1103 254 1081 q 148 1045 182 1075 q 83 986 114 1015 z "},"K":{"ha":942,"x_min":78,"x_max":911,"o":"m 683 -8 q 614 95 658 32 q 513 229 569 158 q 399 364 457 300 q 290 471 340 428 l 574 768 q 626 851 625 821 q 579 883 626 881 q 574 913 575 897 q 572 943 572 928 q 635 940 596 942 q 715 939 674 939 q 769 940 743 939 q 817 941 794 940 q 858 943 840 942 q 857 913 858 929 q 850 883 856 896 q 791 872 819 882 q 730 836 763 861 q 653 763 697 811 l 410 504 l 410 538 q 542 397 468 486 q 701 197 617 307 q 763 124 736 153 q 823 79 789 94 q 911 60 857 64 q 910 32 911 49 q 904 0 908 15 q 850 0 878 0 q 793 -1 822 0 q 736 -4 764 -3 q 683 -8 708 -6 m 78 -4 q 79 30 78 15 q 85 56 81 44 q 143 69 122 58 q 172 105 164 79 q 181 176 181 131 l 181 763 q 172 835 181 810 q 143 871 164 860 q 85 883 122 882 q 79 910 81 894 q 78 943 78 925 q 131 941 104 942 q 188 940 158 940 q 246 939 217 939 q 304 940 276 939 q 359 941 332 940 q 414 943 386 942 q 413 910 414 925 q 407 883 411 894 q 349 871 371 882 q 319 835 328 860 q 311 763 311 810 l 311 176 q 319 105 311 131 q 349 69 328 79 q 407 56 371 58 q 413 30 411 44 q 414 -4 414 15 q 329 -1 372 -1 q 246 0 286 0 q 160 -1 206 0 q 78 -4 114 -1 z "},"Ǩ":{"ha":942,"x_min":78,"x_max":911,"o":"m 683 -8 q 614 95 658 32 q 513 229 569 158 q 399 364 457 300 q 290 471 340 428 l 574 768 q 626 851 625 821 q 579 883 626 881 q 574 913 575 897 q 572 943 572 928 q 635 940 596 942 q 715 939 674 939 q 769 940 743 939 q 817 941 794 940 q 858 943 840 942 q 857 913 858 929 q 850 883 856 896 q 791 872 819 882 q 730 836 763 861 q 653 763 697 811 l 410 504 l 410 538 q 542 397 468 486 q 701 197 617 307 q 763 124 736 153 q 823 79 789 94 q 911 60 857 64 q 910 32 911 49 q 904 0 908 15 q 850 0 878 0 q 793 -1 822 0 q 736 -4 764 -3 q 683 -8 708 -6 m 78 -4 q 79 30 78 15 q 85 56 81 44 q 143 69 122 58 q 172 105 164 79 q 181 176 181 131 l 181 763 q 172 835 181 810 q 143 871 164 860 q 85 883 122 882 q 79 910 81 894 q 78 943 78 925 q 131 941 104 942 q 188 940 158 940 q 246 939 217 939 q 304 940 276 939 q 359 941 332 940 q 414 943 386 942 q 413 910 414 925 q 407 883 411 894 q 349 871 371 882 q 319 835 328 860 q 311 763 311 810 l 311 176 q 319 105 311 131 q 349 69 328 79 q 407 56 371 58 q 413 30 411 44 q 414 -4 414 15 q 329 -1 372 -1 q 246 0 286 0 q 160 -1 206 0 q 78 -4 114 -1 m 463 1015 q 383 1099 429 1054 q 282 1188 338 1143 q 301 1207 289 1199 q 329 1219 314 1215 q 414 1169 368 1197 q 499 1124 460 1142 q 554 1152 518 1133 q 626 1191 590 1171 q 683 1224 663 1211 q 699 1203 694 1218 q 706 1176 704 1188 q 606 1104 658 1146 q 511 1021 553 1063 q 487 1017 500 1018 q 463 1015 474 1015 z "},"Ķ":{"ha":942,"x_min":78,"x_max":911,"o":"m 683 -8 q 614 95 658 32 q 513 229 569 158 q 399 364 457 300 q 290 471 340 428 l 574 768 q 626 851 625 821 q 579 883 626 881 q 574 913 575 897 q 572 943 572 928 q 635 940 596 942 q 715 939 674 939 q 769 940 743 939 q 817 941 794 940 q 858 943 840 942 q 857 913 858 929 q 850 883 856 896 q 791 872 819 882 q 730 836 763 861 q 653 763 697 811 l 410 504 l 410 538 q 542 397 468 486 q 701 197 617 307 q 763 124 736 153 q 823 79 789 94 q 911 60 857 64 q 910 32 911 49 q 904 0 908 15 q 850 0 878 0 q 793 -1 822 0 q 736 -4 764 -3 q 683 -8 708 -6 m 78 -4 q 79 30 78 15 q 85 56 81 44 q 143 69 122 58 q 172 105 164 79 q 181 176 181 131 l 181 763 q 172 835 181 810 q 143 871 164 860 q 85 883 122 882 q 79 910 81 894 q 78 943 78 925 q 131 941 104 942 q 188 940 158 940 q 246 939 217 939 q 304 940 276 939 q 359 941 332 940 q 414 943 386 942 q 413 910 414 925 q 407 883 411 894 q 349 871 371 882 q 319 835 328 860 q 311 763 311 810 l 311 176 q 319 105 311 131 q 349 69 328 79 q 407 56 371 58 q 413 30 411 44 q 414 -4 414 15 q 329 -1 372 -1 q 246 0 286 0 q 160 -1 206 0 q 78 -4 114 -1 m 506 -60 q 541 -94 529 -69 q 553 -153 553 -118 q 508 -285 553 -225 q 404 -389 463 -344 q 365 -360 376 -383 q 417 -292 400 -325 q 435 -235 435 -260 q 383 -185 435 -190 q 385 -146 382 -174 q 394 -101 389 -118 q 455 -84 426 -94 q 506 -60 483 -74 z "},"L":{"ha":778,"x_min":78,"x_max":750,"o":"m 446 63 q 568 79 524 63 q 640 135 613 96 q 689 238 667 174 q 724 224 710 232 q 750 204 738 217 q 724 101 735 157 q 707 -3 714 46 q 637 -1 681 -1 q 541 -1 593 -1 q 438 0 489 0 q 348 0 399 0 q 245 -1 297 0 q 149 -2 193 -1 q 78 -4 104 -3 q 79 30 78 15 q 85 56 81 44 q 143 69 122 58 q 173 109 164 81 q 182 192 182 138 l 182 763 q 174 835 182 810 q 144 871 165 860 q 86 883 124 882 q 81 910 82 894 q 79 943 79 926 q 138 941 107 942 q 199 940 169 940 q 247 939 228 939 q 306 940 278 939 q 360 941 333 940 q 415 943 388 942 q 414 910 415 925 q 408 883 413 894 q 351 871 372 882 q 321 833 329 860 q 313 758 313 807 l 313 192 q 322 113 313 140 q 359 74 332 85 q 438 63 386 63 l 446 63 z "},"Ǉ":{"ha":1235,"x_min":78,"x_max":1178,"o":"m 446 63 q 568 79 524 63 q 640 135 613 96 q 689 238 667 174 q 724 224 710 232 q 750 204 738 217 q 724 101 735 157 q 707 -3 714 46 q 637 -1 681 -1 q 541 -1 593 -1 q 438 0 489 0 q 348 0 399 0 q 245 -1 297 0 q 149 -2 193 -1 q 78 -4 104 -3 q 79 30 78 15 q 85 56 81 44 q 143 69 122 58 q 173 109 164 81 q 182 192 182 138 l 182 763 q 174 835 182 810 q 144 871 165 860 q 86 883 124 882 q 81 910 82 894 q 79 943 79 926 q 138 941 107 942 q 199 940 169 940 q 247 939 228 939 q 306 940 278 939 q 360 941 333 940 q 415 943 388 942 q 414 910 415 925 q 408 883 413 894 q 351 871 372 882 q 321 833 329 860 q 313 758 313 807 l 313 192 q 322 113 313 140 q 359 74 332 85 q 438 63 386 63 l 446 63 m 1075 174 q 1066 1 1075 76 q 1029 -134 1057 -74 q 948 -246 1001 -194 q 806 -346 894 -297 q 790 -331 796 -340 q 782 -310 785 -321 q 871 -217 835 -265 q 926 -104 907 -168 q 944 47 944 -40 l 944 763 q 936 835 944 810 q 907 871 928 860 q 849 883 886 882 q 843 910 844 894 q 842 943 842 925 q 890 941 863 942 q 948 940 917 940 q 1010 939 979 939 q 1104 940 1056 939 q 1178 943 1153 942 q 1176 910 1178 925 q 1171 883 1175 894 q 1115 871 1136 882 q 1084 835 1093 860 q 1075 763 1075 810 l 1075 174 z "},"Ĺ":{"ha":778,"x_min":78,"x_max":750,"o":"m 446 63 q 568 79 524 63 q 640 135 613 96 q 689 238 667 174 q 724 224 710 232 q 750 204 738 217 q 724 101 735 157 q 707 -3 714 46 q 637 -1 681 -1 q 541 -1 593 -1 q 438 0 489 0 q 348 0 399 0 q 245 -1 297 0 q 149 -2 193 -1 q 78 -4 104 -3 q 79 30 78 15 q 85 56 81 44 q 143 69 122 58 q 173 109 164 81 q 182 192 182 138 l 182 763 q 174 835 182 810 q 144 871 165 860 q 86 883 124 882 q 81 910 82 894 q 79 943 79 926 q 138 941 107 942 q 199 940 169 940 q 247 939 228 939 q 306 940 278 939 q 360 941 333 940 q 415 943 388 942 q 414 910 415 925 q 408 883 413 894 q 351 871 372 882 q 321 833 329 860 q 313 758 313 807 l 313 192 q 322 113 313 140 q 359 74 332 85 q 438 63 386 63 l 446 63 m 257 1017 q 226 1017 239 1017 q 201 1024 214 1018 q 245 1119 225 1072 q 279 1210 265 1167 q 313 1217 296 1214 q 346 1219 329 1219 q 411 1208 382 1219 q 337 1118 374 1164 q 257 1017 300 1072 z "},"Ľ":{"ha":778,"x_min":78,"x_max":750,"o":"m 446 63 q 568 79 524 63 q 640 135 613 96 q 689 238 667 174 q 724 224 710 232 q 750 204 738 217 q 724 101 735 157 q 707 -3 714 46 q 637 -1 681 -1 q 541 -1 593 -1 q 438 0 489 0 q 348 0 399 0 q 245 -1 297 0 q 149 -2 193 -1 q 78 -4 104 -3 q 79 30 78 15 q 85 56 81 44 q 143 69 122 58 q 173 109 164 81 q 182 192 182 138 l 182 763 q 174 835 182 810 q 144 871 165 860 q 86 883 124 882 q 81 910 82 894 q 79 943 79 926 q 138 941 107 942 q 199 940 169 940 q 247 939 228 939 q 306 940 278 939 q 360 941 333 940 q 415 943 388 942 q 414 910 415 925 q 408 883 413 894 q 351 871 372 882 q 321 833 329 860 q 313 758 313 807 l 313 192 q 322 113 313 140 q 359 74 332 85 q 438 63 386 63 l 446 63 m 681 993 q 716 958 704 983 q 728 893 728 933 q 701 760 728 817 q 625 646 675 703 q 594 651 611 646 q 569 664 578 656 q 615 738 606 713 q 624 799 624 764 q 608 846 624 828 q 558 868 592 864 q 561 908 558 882 q 569 951 564 933 q 630 969 601 958 q 681 993 658 979 z "},"Ļ":{"ha":778,"x_min":78,"x_max":750,"o":"m 446 63 q 568 79 524 63 q 640 135 613 96 q 689 238 667 174 q 724 224 710 232 q 750 204 738 217 q 724 101 735 157 q 707 -3 714 46 q 637 -1 681 -1 q 541 -1 593 -1 q 438 0 489 0 q 348 0 399 0 q 245 -1 297 0 q 149 -2 193 -1 q 78 -4 104 -3 q 79 30 78 15 q 85 56 81 44 q 143 69 122 58 q 173 109 164 81 q 182 192 182 138 l 182 763 q 174 835 182 810 q 144 871 165 860 q 86 883 124 882 q 81 910 82 894 q 79 943 79 926 q 138 941 107 942 q 199 940 169 940 q 247 939 228 939 q 306 940 278 939 q 360 941 333 940 q 415 943 388 942 q 414 910 415 925 q 408 883 413 894 q 351 871 372 882 q 321 833 329 860 q 313 758 313 807 l 313 192 q 322 113 313 140 q 359 74 332 85 q 438 63 386 63 l 446 63 m 438 -60 q 473 -94 461 -69 q 485 -153 485 -118 q 440 -285 485 -225 q 336 -389 394 -344 q 297 -360 308 -383 q 349 -292 332 -325 q 367 -235 367 -260 q 315 -185 367 -190 q 317 -146 314 -174 q 326 -101 321 -118 q 387 -84 358 -94 q 438 -60 415 -74 z "},"Ŀ":{"ha":778,"x_min":78,"x_max":750,"o":"m 446 63 q 568 79 524 63 q 640 135 613 96 q 689 238 667 174 q 724 224 710 232 q 750 204 738 217 q 724 101 735 157 q 707 -3 714 46 q 637 -1 681 -1 q 541 -1 593 -1 q 438 0 489 0 q 348 0 399 0 q 245 -1 297 0 q 149 -2 193 -1 q 78 -4 104 -3 q 79 30 78 15 q 85 56 81 44 q 143 69 122 58 q 173 109 164 81 q 182 192 182 138 l 182 763 q 174 835 182 810 q 144 871 165 860 q 86 883 124 882 q 81 910 82 894 q 79 943 79 926 q 138 941 107 942 q 199 940 169 940 q 247 939 228 939 q 306 940 278 939 q 360 941 333 940 q 415 943 388 942 q 414 910 415 925 q 408 883 413 894 q 351 871 372 882 q 321 833 329 860 q 313 758 313 807 l 313 192 q 322 113 313 140 q 359 74 332 85 q 438 63 386 63 l 446 63 m 635 419 q 576 440 597 419 q 556 493 556 461 q 579 549 556 525 q 640 572 603 572 q 697 548 676 572 q 717 500 717 524 q 692 439 717 458 q 635 419 667 419 z "},"Ḷ":{"ha":778,"x_min":78,"x_max":750,"o":"m 446 63 q 568 79 524 63 q 640 135 613 96 q 689 238 667 174 q 724 224 710 232 q 750 204 738 217 q 724 101 735 157 q 707 -3 714 46 q 637 -1 681 -1 q 541 -1 593 -1 q 438 0 489 0 q 348 0 399 0 q 245 -1 297 0 q 149 -2 193 -1 q 78 -4 104 -3 q 79 30 78 15 q 85 56 81 44 q 143 69 122 58 q 173 109 164 81 q 182 192 182 138 l 182 763 q 174 835 182 810 q 144 871 165 860 q 86 883 124 882 q 81 910 82 894 q 79 943 79 926 q 138 941 107 942 q 199 940 169 940 q 247 939 228 939 q 306 940 278 939 q 360 941 333 940 q 415 943 388 942 q 414 910 415 925 q 408 883 413 894 q 351 871 372 882 q 321 833 329 860 q 313 758 313 807 l 313 192 q 322 113 313 140 q 359 74 332 85 q 438 63 386 63 l 446 63 m 401 -292 q 343 -268 367 -292 q 319 -211 319 -244 q 344 -150 319 -174 q 401 -126 369 -126 q 462 -150 439 -126 q 485 -211 485 -174 q 460 -267 485 -243 q 401 -292 436 -292 z "},"ǈ":{"ha":1171,"x_min":78,"x_max":1067,"o":"m 446 63 q 568 79 524 63 q 640 135 613 96 q 689 238 667 174 q 724 224 710 232 q 750 204 738 217 q 724 101 735 157 q 707 -3 714 46 q 637 -1 681 -1 q 541 -1 593 -1 q 438 0 489 0 q 348 0 399 0 q 245 -1 297 0 q 149 -2 193 -1 q 78 -4 104 -3 q 79 30 78 15 q 85 56 81 44 q 143 69 122 58 q 173 109 164 81 q 182 192 182 138 l 182 763 q 174 835 182 810 q 144 871 165 860 q 86 883 124 882 q 81 910 82 894 q 79 943 79 926 q 138 941 107 942 q 199 940 169 940 q 247 939 228 939 q 306 940 278 939 q 360 941 333 940 q 415 943 388 942 q 414 910 415 925 q 408 883 413 894 q 351 871 372 882 q 321 833 329 860 q 313 758 313 807 l 313 192 q 322 113 313 140 q 359 74 332 85 q 438 63 386 63 l 446 63 m 826 -346 q 808 -331 817 -340 q 796 -307 799 -321 q 879 -197 850 -246 q 920 -94 908 -147 q 932 26 932 -42 l 932 451 q 926 506 932 485 q 897 539 919 528 q 828 550 875 550 q 831 578 828 565 q 840 601 833 590 q 899 608 861 601 q 974 626 938 615 q 1026 649 1010 638 q 1048 632 1039 644 q 1057 593 1057 619 l 1057 46 q 1037 -91 1057 -29 q 983 -201 1017 -153 q 909 -286 950 -250 q 826 -346 868 -322 m 983 806 q 925 829 949 806 q 901 886 901 853 q 926 947 901 924 q 983 971 951 971 q 1044 947 1021 971 q 1067 886 1067 924 q 1042 830 1067 854 q 983 806 1018 806 z "},"Ḻ":{"ha":778,"x_min":78,"x_max":750,"o":"m 446 63 q 568 79 524 63 q 640 135 613 96 q 689 238 667 174 q 724 224 710 232 q 750 204 738 217 q 724 101 735 157 q 707 -3 714 46 q 637 -1 681 -1 q 541 -1 593 -1 q 438 0 489 0 q 348 0 399 0 q 245 -1 297 0 q 149 -2 193 -1 q 78 -4 104 -3 q 79 30 78 15 q 85 56 81 44 q 143 69 122 58 q 173 109 164 81 q 182 192 182 138 l 182 763 q 174 835 182 810 q 144 871 165 860 q 86 883 124 882 q 81 910 82 894 q 79 943 79 926 q 138 941 107 942 q 199 940 169 940 q 247 939 228 939 q 306 940 278 939 q 360 941 333 940 q 415 943 388 942 q 414 910 415 925 q 408 883 413 894 q 351 871 372 882 q 321 833 329 860 q 313 758 313 807 l 313 192 q 322 113 313 140 q 359 74 332 85 q 438 63 386 63 l 446 63 m 150 -229 q 153 -199 150 -221 q 163 -165 157 -178 l 656 -165 q 653 -194 656 -179 q 643 -225 650 -210 q 549 -225 621 -225 q 373 -226 476 -225 q 150 -229 269 -226 z "},"Ł":{"ha":778,"x_min":40,"x_max":750,"o":"m 446 63 q 568 79 524 63 q 640 135 613 96 q 689 238 667 174 q 724 224 710 232 q 750 204 738 217 q 724 101 735 157 q 707 -3 714 46 q 637 -1 681 -1 q 541 -1 593 -1 q 438 0 489 0 q 348 0 399 0 q 245 -1 297 0 q 149 -2 193 -1 q 78 -4 104 -3 q 79 30 78 15 q 85 56 81 44 q 143 69 122 58 q 173 109 164 81 q 182 192 182 138 l 182 763 q 174 835 182 810 q 144 871 165 860 q 86 883 124 882 q 81 910 82 894 q 79 943 79 926 q 138 941 107 942 q 199 940 169 940 q 247 939 228 939 q 306 940 278 939 q 360 941 333 940 q 415 943 388 942 q 414 910 415 925 q 408 883 413 894 q 351 871 372 882 q 321 833 329 860 q 313 758 313 807 l 313 192 q 322 113 313 140 q 359 74 332 85 q 438 63 386 63 l 446 63 m 247 399 l 256 488 l 431 611 q 450 581 442 600 q 460 547 458 561 l 247 399 m 69 294 q 48 331 56 313 q 40 360 40 349 l 235 496 l 239 414 l 69 294 z "},"M":{"ha":1293,"x_min":49,"x_max":1244,"o":"m 607 -12 l 272 715 l 286 715 l 239 244 q 238 131 232 171 q 266 76 243 92 q 329 56 289 60 q 335 24 333 42 q 336 -4 336 6 q 260 -1 303 -1 q 188 0 218 0 q 142 -1 168 0 q 92 -2 117 -1 q 49 -4 68 -3 q 50 24 49 6 q 56 56 51 42 q 115 74 93 60 q 149 131 136 89 q 168 257 161 172 l 213 751 q 209 830 217 801 q 180 871 201 858 q 119 883 158 883 q 114 914 115 897 q 113 943 113 931 q 144 941 126 942 q 182 940 163 940 q 218 939 201 939 q 253 940 236 939 q 288 941 271 940 q 324 943 306 942 l 688 139 l 657 139 l 974 943 q 1008 941 990 942 q 1045 940 1026 940 q 1082 939 1064 939 q 1117 940 1100 939 q 1152 941 1135 940 q 1188 943 1169 942 q 1186 914 1188 929 q 1181 883 1185 899 q 1105 855 1132 883 q 1086 743 1078 826 l 1136 233 q 1154 128 1143 165 q 1185 75 1165 90 q 1238 57 1206 60 q 1243 26 1242 43 q 1244 -4 1244 10 q 1207 -2 1228 -3 q 1163 -1 1186 -1 q 1119 0 1140 0 q 1078 0 1097 0 q 1022 -1 1053 0 q 962 -2 992 -1 q 908 -4 932 -3 q 910 25 908 8 q 917 56 913 42 q 981 74 961 60 q 1005 121 1001 88 q 1001 215 1008 154 l 949 721 l 964 721 l 664 -3 q 638 -10 651 -8 q 607 -12 624 -12 z "},"Ṃ":{"ha":1293,"x_min":49,"x_max":1244,"o":"m 607 -12 l 272 715 l 286 715 l 239 244 q 238 131 232 171 q 266 76 243 92 q 329 56 289 60 q 335 24 333 42 q 336 -4 336 6 q 260 -1 303 -1 q 188 0 218 0 q 142 -1 168 0 q 92 -2 117 -1 q 49 -4 68 -3 q 50 24 49 6 q 56 56 51 42 q 115 74 93 60 q 149 131 136 89 q 168 257 161 172 l 213 751 q 209 830 217 801 q 180 871 201 858 q 119 883 158 883 q 114 914 115 897 q 113 943 113 931 q 144 941 126 942 q 182 940 163 940 q 218 939 201 939 q 253 940 236 939 q 288 941 271 940 q 324 943 306 942 l 688 139 l 657 139 l 974 943 q 1008 941 990 942 q 1045 940 1026 940 q 1082 939 1064 939 q 1117 940 1100 939 q 1152 941 1135 940 q 1188 943 1169 942 q 1186 914 1188 929 q 1181 883 1185 899 q 1105 855 1132 883 q 1086 743 1078 826 l 1136 233 q 1154 128 1143 165 q 1185 75 1165 90 q 1238 57 1206 60 q 1243 26 1242 43 q 1244 -4 1244 10 q 1207 -2 1228 -3 q 1163 -1 1186 -1 q 1119 0 1140 0 q 1078 0 1097 0 q 1022 -1 1053 0 q 962 -2 992 -1 q 908 -4 932 -3 q 910 25 908 8 q 917 56 913 42 q 981 74 961 60 q 1005 121 1001 88 q 1001 215 1008 154 l 949 721 l 964 721 l 664 -3 q 638 -10 651 -8 q 607 -12 624 -12 m 632 -292 q 574 -268 597 -292 q 550 -211 550 -244 q 575 -150 550 -174 q 632 -126 600 -126 q 692 -150 669 -126 q 715 -211 715 -174 q 691 -267 715 -243 q 632 -292 667 -292 z "},"N":{"ha":1031,"x_min":78,"x_max":974,"o":"m 825 -8 l 175 840 q 138 873 156 865 q 85 883 119 881 q 79 915 81 899 q 78 943 78 932 q 109 941 92 942 q 145 940 126 940 q 181 939 164 939 q 231 940 207 939 q 274 943 256 942 l 828 208 l 825 -8 m 78 -4 q 79 28 78 14 q 85 56 81 43 q 143 74 122 56 q 172 137 164 92 q 181 260 181 182 l 181 847 l 251 847 l 251 260 q 260 137 251 182 q 289 74 268 92 q 347 56 310 56 q 353 29 351 43 q 354 -4 354 15 q 309 -2 333 -3 q 261 -1 285 -1 q 217 0 238 0 q 171 -1 197 0 q 120 -2 144 -1 q 78 -4 96 -3 m 825 -8 l 814 131 l 814 686 q 806 805 814 763 q 776 865 797 847 q 718 883 756 883 q 713 919 714 907 q 711 943 711 931 q 754 941 732 942 q 799 940 776 940 q 842 939 822 939 q 908 940 871 939 q 974 943 946 942 q 972 914 974 929 q 967 883 971 899 q 918 865 936 883 q 892 805 900 847 q 885 686 885 763 l 885 0 q 857 -6 874 -4 q 825 -8 840 -8 z "},"Ǌ":{"ha":1488,"x_min":78,"x_max":1431,"o":"m 825 -8 l 175 840 q 138 873 156 865 q 85 883 119 881 q 79 915 81 899 q 78 943 78 932 q 109 941 92 942 q 145 940 126 940 q 181 939 164 939 q 231 940 207 939 q 274 943 256 942 l 828 208 l 825 -8 m 78 -4 q 79 28 78 14 q 85 56 81 43 q 143 74 122 56 q 172 137 164 92 q 181 260 181 182 l 181 847 l 251 847 l 251 260 q 260 137 251 182 q 289 74 268 92 q 347 56 310 56 q 353 29 351 43 q 354 -4 354 15 q 309 -2 333 -3 q 261 -1 285 -1 q 217 0 238 0 q 171 -1 197 0 q 120 -2 144 -1 q 78 -4 96 -3 m 825 -8 l 814 131 l 814 686 q 806 805 814 763 q 776 865 797 847 q 718 883 756 883 q 713 919 714 907 q 711 943 711 931 q 754 941 732 942 q 799 940 776 940 q 842 939 822 939 q 908 940 871 939 q 974 943 946 942 q 972 914 974 929 q 967 883 971 899 q 918 865 936 883 q 892 805 900 847 q 885 686 885 763 l 885 0 q 857 -6 874 -4 q 825 -8 840 -8 m 1328 174 q 1319 1 1328 76 q 1282 -134 1310 -74 q 1201 -246 1254 -194 q 1058 -346 1147 -297 q 1043 -331 1049 -340 q 1035 -310 1038 -321 q 1124 -217 1088 -265 q 1178 -104 1160 -168 q 1197 47 1197 -40 l 1197 763 q 1189 835 1197 810 q 1160 871 1181 860 q 1101 883 1139 882 q 1096 910 1097 894 q 1094 943 1094 925 q 1142 941 1115 942 q 1201 940 1169 940 q 1263 939 1232 939 q 1357 940 1308 939 q 1431 943 1406 942 q 1429 910 1431 925 q 1424 883 1428 894 q 1367 871 1389 882 q 1337 835 1346 860 q 1328 763 1328 810 l 1328 174 z "},"Ń":{"ha":1031,"x_min":78,"x_max":974,"o":"m 825 -8 l 175 840 q 138 873 156 865 q 85 883 119 881 q 79 915 81 899 q 78 943 78 932 q 109 941 92 942 q 145 940 126 940 q 181 939 164 939 q 231 940 207 939 q 274 943 256 942 l 828 208 l 825 -8 m 78 -4 q 79 28 78 14 q 85 56 81 43 q 143 74 122 56 q 172 137 164 92 q 181 260 181 182 l 181 847 l 251 847 l 251 260 q 260 137 251 182 q 289 74 268 92 q 347 56 310 56 q 353 29 351 43 q 354 -4 354 15 q 309 -2 333 -3 q 261 -1 285 -1 q 217 0 238 0 q 171 -1 197 0 q 120 -2 144 -1 q 78 -4 96 -3 m 825 -8 l 814 131 l 814 686 q 806 805 814 763 q 776 865 797 847 q 718 883 756 883 q 713 919 714 907 q 711 943 711 931 q 754 941 732 942 q 799 940 776 940 q 842 939 822 939 q 908 940 871 939 q 974 943 946 942 q 972 914 974 929 q 967 883 971 899 q 918 865 936 883 q 892 805 900 847 q 885 686 885 763 l 885 0 q 857 -6 874 -4 q 825 -8 840 -8 m 532 1017 q 501 1017 514 1017 q 476 1024 489 1018 q 520 1119 500 1072 q 554 1210 540 1167 q 588 1217 571 1214 q 621 1219 604 1219 q 686 1208 657 1219 q 612 1118 649 1164 q 532 1017 575 1072 z "},"Ň":{"ha":1031,"x_min":78,"x_max":974,"o":"m 825 -8 l 175 840 q 138 873 156 865 q 85 883 119 881 q 79 915 81 899 q 78 943 78 932 q 109 941 92 942 q 145 940 126 940 q 181 939 164 939 q 231 940 207 939 q 274 943 256 942 l 828 208 l 825 -8 m 78 -4 q 79 28 78 14 q 85 56 81 43 q 143 74 122 56 q 172 137 164 92 q 181 260 181 182 l 181 847 l 251 847 l 251 260 q 260 137 251 182 q 289 74 268 92 q 347 56 310 56 q 353 29 351 43 q 354 -4 354 15 q 309 -2 333 -3 q 261 -1 285 -1 q 217 0 238 0 q 171 -1 197 0 q 120 -2 144 -1 q 78 -4 96 -3 m 825 -8 l 814 131 l 814 686 q 806 805 814 763 q 776 865 797 847 q 718 883 756 883 q 713 919 714 907 q 711 943 711 931 q 754 941 732 942 q 799 940 776 940 q 842 939 822 939 q 908 940 871 939 q 974 943 946 942 q 972 914 974 929 q 967 883 971 899 q 918 865 936 883 q 892 805 900 847 q 885 686 885 763 l 885 0 q 857 -6 874 -4 q 825 -8 840 -8 m 490 1015 q 411 1099 457 1054 q 310 1188 365 1143 q 329 1207 317 1199 q 357 1219 342 1215 q 442 1169 396 1197 q 526 1124 488 1142 q 582 1152 546 1133 q 654 1191 618 1171 q 711 1224 690 1211 q 727 1203 722 1218 q 733 1176 732 1188 q 633 1104 686 1146 q 539 1021 581 1063 q 515 1017 528 1018 q 490 1015 501 1015 z "},"Ņ":{"ha":1031,"x_min":78,"x_max":974,"o":"m 825 -8 l 175 840 q 138 873 156 865 q 85 883 119 881 q 79 915 81 899 q 78 943 78 932 q 109 941 92 942 q 145 940 126 940 q 181 939 164 939 q 231 940 207 939 q 274 943 256 942 l 828 208 l 825 -8 m 78 -4 q 79 28 78 14 q 85 56 81 43 q 143 74 122 56 q 172 137 164 92 q 181 260 181 182 l 181 847 l 251 847 l 251 260 q 260 137 251 182 q 289 74 268 92 q 347 56 310 56 q 353 29 351 43 q 354 -4 354 15 q 309 -2 333 -3 q 261 -1 285 -1 q 217 0 238 0 q 171 -1 197 0 q 120 -2 144 -1 q 78 -4 96 -3 m 825 -8 l 814 131 l 814 686 q 806 805 814 763 q 776 865 797 847 q 718 883 756 883 q 713 919 714 907 q 711 943 711 931 q 754 941 732 942 q 799 940 776 940 q 842 939 822 939 q 908 940 871 939 q 974 943 946 942 q 972 914 974 929 q 967 883 971 899 q 918 865 936 883 q 892 805 900 847 q 885 686 885 763 l 885 0 q 857 -6 874 -4 q 825 -8 840 -8 m 588 -60 q 623 -94 611 -69 q 635 -153 635 -118 q 590 -285 635 -225 q 486 -389 544 -344 q 447 -360 458 -383 q 499 -292 482 -325 q 517 -235 517 -260 q 465 -185 517 -190 q 467 -146 464 -174 q 476 -101 471 -118 q 537 -84 508 -94 q 588 -60 565 -74 z "},"Ṅ":{"ha":1031,"x_min":78,"x_max":974,"o":"m 825 -8 l 175 840 q 138 873 156 865 q 85 883 119 881 q 79 915 81 899 q 78 943 78 932 q 109 941 92 942 q 145 940 126 940 q 181 939 164 939 q 231 940 207 939 q 274 943 256 942 l 828 208 l 825 -8 m 78 -4 q 79 28 78 14 q 85 56 81 43 q 143 74 122 56 q 172 137 164 92 q 181 260 181 182 l 181 847 l 251 847 l 251 260 q 260 137 251 182 q 289 74 268 92 q 347 56 310 56 q 353 29 351 43 q 354 -4 354 15 q 309 -2 333 -3 q 261 -1 285 -1 q 217 0 238 0 q 171 -1 197 0 q 120 -2 144 -1 q 78 -4 96 -3 m 825 -8 l 814 131 l 814 686 q 806 805 814 763 q 776 865 797 847 q 718 883 756 883 q 713 919 714 907 q 711 943 711 931 q 754 941 732 942 q 799 940 776 940 q 842 939 822 939 q 908 940 871 939 q 974 943 946 942 q 972 914 974 929 q 967 883 971 899 q 918 865 936 883 q 892 805 900 847 q 885 686 885 763 l 885 0 q 857 -6 874 -4 q 825 -8 840 -8 m 521 1000 q 463 1024 486 1000 q 439 1081 439 1047 q 464 1142 439 1118 q 521 1165 489 1165 q 581 1142 558 1165 q 604 1081 604 1118 q 580 1024 604 1049 q 521 1000 556 1000 z "},"Ṇ":{"ha":1031,"x_min":78,"x_max":974,"o":"m 825 -8 l 175 840 q 138 873 156 865 q 85 883 119 881 q 79 915 81 899 q 78 943 78 932 q 109 941 92 942 q 145 940 126 940 q 181 939 164 939 q 231 940 207 939 q 274 943 256 942 l 828 208 l 825 -8 m 78 -4 q 79 28 78 14 q 85 56 81 43 q 143 74 122 56 q 172 137 164 92 q 181 260 181 182 l 181 847 l 251 847 l 251 260 q 260 137 251 182 q 289 74 268 92 q 347 56 310 56 q 353 29 351 43 q 354 -4 354 15 q 309 -2 333 -3 q 261 -1 285 -1 q 217 0 238 0 q 171 -1 197 0 q 120 -2 144 -1 q 78 -4 96 -3 m 825 -8 l 814 131 l 814 686 q 806 805 814 763 q 776 865 797 847 q 718 883 756 883 q 713 919 714 907 q 711 943 711 931 q 754 941 732 942 q 799 940 776 940 q 842 939 822 939 q 908 940 871 939 q 974 943 946 942 q 972 914 974 929 q 967 883 971 899 q 918 865 936 883 q 892 805 900 847 q 885 686 885 763 l 885 0 q 857 -6 874 -4 q 825 -8 840 -8 m 551 -292 q 493 -268 517 -292 q 469 -211 469 -244 q 494 -150 469 -174 q 551 -126 519 -126 q 612 -150 589 -126 q 635 -211 635 -174 q 610 -267 635 -243 q 551 -292 586 -292 z "},"Ŋ":{"ha":921,"x_min":78,"x_max":843,"o":"m 579 -346 q 518 -335 543 -346 q 479 -314 493 -324 q 475 -262 474 -293 q 481 -212 476 -231 q 527 -219 504 -217 q 568 -221 550 -221 q 664 -193 633 -221 q 703 -108 694 -165 q 713 36 713 -51 l 713 633 q 668 806 713 753 q 543 858 624 858 q 429 828 482 858 q 344 733 376 797 q 313 571 313 669 l 313 176 q 321 105 313 131 q 351 69 329 79 q 408 56 372 58 q 414 30 413 44 q 415 -4 415 15 q 331 -1 374 -1 q 247 0 288 0 q 161 -1 207 0 q 79 -4 115 -1 q 81 30 79 15 q 86 56 82 44 q 144 69 124 58 q 174 105 165 79 q 182 176 182 131 l 182 753 q 175 807 182 786 q 146 839 168 828 q 78 851 124 850 q 81 879 78 867 q 90 903 83 892 q 190 919 133 906 q 282 950 246 933 q 305 931 297 944 q 313 883 313 917 q 311 847 313 872 q 303 765 310 821 l 304 765 q 368 862 324 822 q 471 922 413 901 q 589 943 529 943 q 716 914 658 943 q 808 822 774 885 q 843 661 843 760 l 843 111 q 826 -53 843 28 q 776 -201 810 -135 q 693 -306 742 -267 q 579 -346 644 -346 z "},"Ɲ":{"ha":1031,"x_min":-103,"x_max":974,"o":"m 828 -12 l 175 840 q 138 873 156 865 q 85 883 119 881 q 79 915 81 899 q 78 943 78 932 q 109 941 92 942 q 145 940 126 940 q 181 939 164 939 q 231 940 207 939 q 274 943 256 942 l 828 208 l 828 -12 m 4 -346 q -59 -335 -35 -346 q -97 -314 -83 -324 q -101 -262 -103 -293 q -96 -212 -100 -231 q -50 -219 -72 -217 q -11 -221 -28 -221 q 131 -156 82 -221 q 181 50 181 -92 l 181 847 l 251 847 l 251 56 q 224 -142 251 -50 q 142 -290 197 -233 q 4 -346 88 -346 m 828 -12 l 814 131 l 814 686 q 806 805 814 763 q 776 865 797 847 q 718 883 756 883 q 713 919 714 907 q 711 943 711 931 q 754 941 732 942 q 799 940 776 940 q 842 939 822 939 q 908 940 871 939 q 974 943 946 942 q 972 914 974 929 q 967 883 971 899 q 918 865 936 883 q 892 805 900 847 q 885 686 885 763 l 885 -6 q 858 -11 874 -10 q 828 -12 843 -12 z "},"ǋ":{"ha":1424,"x_min":78,"x_max":1319,"o":"m 825 -8 l 175 840 q 138 873 156 865 q 85 883 119 881 q 79 915 81 899 q 78 943 78 932 q 109 941 92 942 q 145 940 126 940 q 181 939 164 939 q 231 940 207 939 q 274 943 256 942 l 828 208 l 825 -8 m 78 -4 q 79 28 78 14 q 85 56 81 43 q 143 74 122 56 q 172 137 164 92 q 181 260 181 182 l 181 847 l 251 847 l 251 260 q 260 137 251 182 q 289 74 268 92 q 347 56 310 56 q 353 29 351 43 q 354 -4 354 15 q 309 -2 333 -3 q 261 -1 285 -1 q 217 0 238 0 q 171 -1 197 0 q 120 -2 144 -1 q 78 -4 96 -3 m 825 -8 l 814 131 l 814 686 q 806 805 814 763 q 776 865 797 847 q 718 883 756 883 q 713 919 714 907 q 711 943 711 931 q 754 941 732 942 q 799 940 776 940 q 842 939 822 939 q 908 940 871 939 q 974 943 946 942 q 972 914 974 929 q 967 883 971 899 q 918 865 936 883 q 892 805 900 847 q 885 686 885 763 l 885 0 q 857 -6 874 -4 q 825 -8 840 -8 m 1079 -346 q 1060 -331 1069 -340 q 1049 -307 1051 -321 q 1132 -197 1103 -246 q 1173 -94 1161 -147 q 1185 26 1185 -42 l 1185 451 q 1178 506 1185 485 q 1150 539 1172 528 q 1081 550 1128 550 q 1083 578 1081 565 q 1093 601 1086 590 q 1152 608 1114 601 q 1226 626 1190 615 q 1279 649 1263 638 q 1301 632 1292 644 q 1310 593 1310 619 l 1310 46 q 1290 -91 1310 -29 q 1236 -201 1269 -153 q 1162 -286 1203 -250 q 1079 -346 1121 -322 m 1236 806 q 1178 829 1201 806 q 1154 886 1154 853 q 1179 947 1154 924 q 1236 971 1204 971 q 1297 947 1274 971 q 1319 886 1319 924 q 1295 830 1319 854 q 1236 806 1271 806 z "},"Ṉ":{"ha":1031,"x_min":78,"x_max":974,"o":"m 825 -8 l 175 840 q 138 873 156 865 q 85 883 119 881 q 79 915 81 899 q 78 943 78 932 q 109 941 92 942 q 145 940 126 940 q 181 939 164 939 q 231 940 207 939 q 274 943 256 942 l 828 208 l 825 -8 m 78 -4 q 79 28 78 14 q 85 56 81 43 q 143 74 122 56 q 172 137 164 92 q 181 260 181 182 l 181 847 l 251 847 l 251 260 q 260 137 251 182 q 289 74 268 92 q 347 56 310 56 q 353 29 351 43 q 354 -4 354 15 q 309 -2 333 -3 q 261 -1 285 -1 q 217 0 238 0 q 171 -1 197 0 q 120 -2 144 -1 q 78 -4 96 -3 m 825 -8 l 814 131 l 814 686 q 806 805 814 763 q 776 865 797 847 q 718 883 756 883 q 713 919 714 907 q 711 943 711 931 q 754 941 732 942 q 799 940 776 940 q 842 939 822 939 q 908 940 871 939 q 974 943 946 942 q 972 914 974 929 q 967 883 971 899 q 918 865 936 883 q 892 805 900 847 q 885 686 885 763 l 885 0 q 857 -6 874 -4 q 825 -8 840 -8 m 300 -229 q 303 -199 300 -221 q 313 -165 307 -178 l 806 -165 q 803 -194 806 -179 q 793 -225 800 -210 q 699 -225 771 -225 q 523 -226 626 -225 q 300 -229 419 -226 z "},"Ñ":{"ha":1031,"x_min":78,"x_max":974,"o":"m 825 -8 l 175 840 q 138 873 156 865 q 85 883 119 881 q 79 915 81 899 q 78 943 78 932 q 109 941 92 942 q 145 940 126 940 q 181 939 164 939 q 231 940 207 939 q 274 943 256 942 l 828 208 l 825 -8 m 78 -4 q 79 28 78 14 q 85 56 81 43 q 143 74 122 56 q 172 137 164 92 q 181 260 181 182 l 181 847 l 251 847 l 251 260 q 260 137 251 182 q 289 74 268 92 q 347 56 310 56 q 353 29 351 43 q 354 -4 354 15 q 309 -2 333 -3 q 261 -1 285 -1 q 217 0 238 0 q 171 -1 197 0 q 120 -2 144 -1 q 78 -4 96 -3 m 825 -8 l 814 131 l 814 686 q 806 805 814 763 q 776 865 797 847 q 718 883 756 883 q 713 919 714 907 q 711 943 711 931 q 754 941 732 942 q 799 940 776 940 q 842 939 822 939 q 908 940 871 939 q 974 943 946 942 q 972 914 974 929 q 967 883 971 899 q 918 865 936 883 q 892 805 900 847 q 885 686 885 763 l 885 0 q 857 -6 874 -4 q 825 -8 840 -8 m 601 1039 q 553 1047 576 1039 q 507 1063 529 1054 q 462 1080 485 1072 q 414 1088 439 1088 q 363 1076 388 1088 q 315 1043 339 1065 q 301 1061 306 1050 q 297 1086 297 1072 q 376 1158 338 1139 q 451 1176 415 1176 q 518 1165 488 1176 q 576 1141 549 1153 q 633 1129 604 1129 q 674 1138 654 1129 q 711 1165 693 1147 q 730 1160 718 1164 q 747 1146 742 1156 q 679 1064 717 1089 q 601 1039 642 1039 z "},"O":{"ha":1015,"x_min":49,"x_max":967,"o":"m 507 -12 q 267 51 369 -12 q 106 225 164 115 q 49 472 49 335 q 84 667 49 579 q 182 818 119 754 q 328 917 244 882 q 507 951 411 951 q 744 891 640 951 q 907 723 847 831 q 967 472 967 615 q 933 281 967 369 q 838 127 900 193 q 692 24 776 61 q 507 -12 608 -12 m 535 56 q 690 106 625 56 q 789 244 754 157 q 824 436 824 331 q 778 663 824 561 q 656 825 733 765 q 478 885 578 885 q 331 838 396 885 q 229 707 267 792 q 192 510 192 622 q 214 340 192 422 q 280 194 236 258 q 388 93 324 131 q 535 56 451 56 z "},"Ó":{"ha":1015,"x_min":49,"x_max":967,"o":"m 507 -12 q 267 51 369 -12 q 106 225 164 115 q 49 472 49 335 q 84 667 49 579 q 182 818 119 754 q 328 917 244 882 q 507 951 411 951 q 744 891 640 951 q 907 723 847 831 q 967 472 967 615 q 933 281 967 369 q 838 127 900 193 q 692 24 776 61 q 507 -12 608 -12 m 535 56 q 690 106 625 56 q 789 244 754 157 q 824 436 824 331 q 778 663 824 561 q 656 825 733 765 q 478 885 578 885 q 331 838 396 885 q 229 707 267 792 q 192 510 192 622 q 214 340 192 422 q 280 194 236 258 q 388 93 324 131 q 535 56 451 56 m 518 1017 q 488 1017 500 1017 q 463 1024 475 1018 q 506 1119 486 1072 q 540 1210 526 1167 q 574 1217 557 1214 q 607 1219 590 1219 q 672 1208 643 1219 q 598 1118 635 1164 q 518 1017 561 1072 z "},"Ŏ":{"ha":1015,"x_min":49,"x_max":967,"o":"m 507 -12 q 267 51 369 -12 q 106 225 164 115 q 49 472 49 335 q 84 667 49 579 q 182 818 119 754 q 328 917 244 882 q 507 951 411 951 q 744 891 640 951 q 907 723 847 831 q 967 472 967 615 q 933 281 967 369 q 838 127 900 193 q 692 24 776 61 q 507 -12 608 -12 m 535 56 q 690 106 625 56 q 789 244 754 157 q 824 436 824 331 q 778 663 824 561 q 656 825 733 765 q 478 885 578 885 q 331 838 396 885 q 229 707 267 792 q 192 510 192 622 q 214 340 192 422 q 280 194 236 258 q 388 93 324 131 q 535 56 451 56 m 714 1201 q 660 1060 714 1110 q 506 1011 606 1011 q 355 1059 408 1011 q 301 1196 301 1107 q 332 1206 315 1203 q 364 1208 349 1210 q 414 1129 372 1158 q 518 1100 456 1100 q 619 1129 581 1100 q 661 1208 658 1158 q 690 1208 676 1210 q 714 1201 704 1206 z "},"Ǒ":{"ha":1015,"x_min":49,"x_max":967,"o":"m 507 -12 q 267 51 369 -12 q 106 225 164 115 q 49 472 49 335 q 84 667 49 579 q 182 818 119 754 q 328 917 244 882 q 507 951 411 951 q 744 891 640 951 q 907 723 847 831 q 967 472 967 615 q 933 281 967 369 q 838 127 900 193 q 692 24 776 61 q 507 -12 608 -12 m 535 56 q 690 106 625 56 q 789 244 754 157 q 824 436 824 331 q 778 663 824 561 q 656 825 733 765 q 478 885 578 885 q 331 838 396 885 q 229 707 267 792 q 192 510 192 622 q 214 340 192 422 q 280 194 236 258 q 388 93 324 131 q 535 56 451 56 m 476 1015 q 397 1099 443 1054 q 296 1188 351 1143 q 315 1207 303 1199 q 343 1219 328 1215 q 428 1169 382 1197 q 513 1124 474 1142 q 568 1152 532 1133 q 640 1191 604 1171 q 697 1224 676 1211 q 713 1203 708 1218 q 719 1176 718 1188 q 619 1104 672 1146 q 525 1021 567 1063 q 501 1017 514 1018 q 476 1015 488 1015 z "},"Ô":{"ha":1015,"x_min":49,"x_max":967,"o":"m 507 -12 q 267 51 369 -12 q 106 225 164 115 q 49 472 49 335 q 84 667 49 579 q 182 818 119 754 q 328 917 244 882 q 507 951 411 951 q 744 891 640 951 q 907 723 847 831 q 967 472 967 615 q 933 281 967 369 q 838 127 900 193 q 692 24 776 61 q 507 -12 608 -12 m 535 56 q 690 106 625 56 q 789 244 754 157 q 824 436 824 331 q 778 663 824 561 q 656 825 733 765 q 478 885 578 885 q 331 838 396 885 q 229 707 267 792 q 192 510 192 622 q 214 340 192 422 q 280 194 236 258 q 388 93 324 131 q 535 56 451 56 m 318 1011 q 302 1033 307 1018 q 296 1058 297 1049 q 396 1131 343 1089 q 490 1214 449 1172 q 515 1218 501 1217 q 539 1219 529 1219 q 618 1136 572 1181 q 719 1047 664 1092 q 700 1028 713 1036 q 672 1015 688 1019 q 588 1066 633 1039 q 503 1111 543 1093 q 447 1083 483 1103 q 375 1044 411 1064 q 318 1011 339 1025 z "},"Ố":{"ha":1015,"x_min":49,"x_max":967,"o":"m 507 -12 q 267 51 369 -12 q 106 225 164 115 q 49 472 49 335 q 84 667 49 579 q 182 818 119 754 q 328 917 244 882 q 507 951 411 951 q 744 891 640 951 q 907 723 847 831 q 967 472 967 615 q 933 281 967 369 q 838 127 900 193 q 692 24 776 61 q 507 -12 608 -12 m 535 56 q 690 106 625 56 q 789 244 754 157 q 824 436 824 331 q 778 663 824 561 q 656 825 733 765 q 478 885 578 885 q 331 838 396 885 q 229 707 267 792 q 192 510 192 622 q 214 340 192 422 q 280 194 236 258 q 388 93 324 131 q 535 56 451 56 m 706 1181 q 676 1181 689 1181 q 653 1188 664 1182 q 694 1277 675 1233 q 726 1363 713 1321 q 757 1369 742 1367 q 789 1371 772 1371 q 850 1361 822 1371 q 781 1275 815 1318 q 706 1181 746 1232 m 318 1011 q 302 1033 307 1018 q 296 1058 297 1049 q 396 1131 343 1089 q 490 1214 449 1172 q 515 1218 501 1217 q 539 1219 529 1219 q 618 1136 572 1181 q 719 1047 664 1092 q 700 1028 713 1036 q 672 1015 688 1019 q 588 1066 633 1039 q 503 1111 543 1093 q 447 1083 483 1103 q 375 1044 411 1064 q 318 1011 339 1025 z "},"Ộ":{"ha":1015,"x_min":49,"x_max":967,"o":"m 507 -12 q 267 51 369 -12 q 106 225 164 115 q 49 472 49 335 q 84 667 49 579 q 182 818 119 754 q 328 917 244 882 q 507 951 411 951 q 744 891 640 951 q 907 723 847 831 q 967 472 967 615 q 933 281 967 369 q 838 127 900 193 q 692 24 776 61 q 507 -12 608 -12 m 535 56 q 690 106 625 56 q 789 244 754 157 q 824 436 824 331 q 778 663 824 561 q 656 825 733 765 q 478 885 578 885 q 331 838 396 885 q 229 707 267 792 q 192 510 192 622 q 214 340 192 422 q 280 194 236 258 q 388 93 324 131 q 535 56 451 56 m 507 -292 q 449 -268 472 -292 q 425 -211 425 -244 q 450 -150 425 -174 q 507 -126 475 -126 q 567 -150 544 -126 q 590 -211 590 -174 q 566 -267 590 -243 q 507 -292 542 -292 m 318 1011 q 302 1033 307 1018 q 296 1058 297 1049 q 396 1131 343 1089 q 490 1214 449 1172 q 515 1218 501 1217 q 539 1219 529 1219 q 618 1136 572 1181 q 719 1047 664 1092 q 700 1028 713 1036 q 672 1015 688 1019 q 588 1066 633 1039 q 503 1111 543 1093 q 447 1083 483 1103 q 375 1044 411 1064 q 318 1011 339 1025 z "},"Ồ":{"ha":1015,"x_min":49,"x_max":967,"o":"m 507 -12 q 267 51 369 -12 q 106 225 164 115 q 49 472 49 335 q 84 667 49 579 q 182 818 119 754 q 328 917 244 882 q 507 951 411 951 q 744 891 640 951 q 907 723 847 831 q 967 472 967 615 q 933 281 967 369 q 838 127 900 193 q 692 24 776 61 q 507 -12 608 -12 m 535 56 q 690 106 625 56 q 789 244 754 157 q 824 436 824 331 q 778 663 824 561 q 656 825 733 765 q 478 885 578 885 q 331 838 396 885 q 229 707 267 792 q 192 510 192 622 q 214 340 192 422 q 280 194 236 258 q 388 93 324 131 q 535 56 451 56 m 318 1011 q 302 1033 307 1018 q 296 1058 297 1049 q 396 1131 343 1089 q 490 1214 449 1172 q 515 1218 501 1217 q 539 1219 529 1219 q 618 1136 572 1181 q 719 1047 664 1092 q 700 1028 713 1036 q 672 1015 688 1019 q 588 1066 633 1039 q 503 1111 543 1093 q 447 1083 483 1103 q 375 1044 411 1064 q 318 1011 339 1025 m 669 1172 q 590 1270 626 1228 q 515 1350 553 1313 q 573 1366 539 1363 q 640 1367 607 1369 q 678 1276 658 1324 q 725 1179 699 1228 q 700 1173 713 1174 q 669 1172 688 1172 z "},"Ổ":{"ha":1015,"x_min":49,"x_max":967,"o":"m 507 -12 q 267 51 369 -12 q 106 225 164 115 q 49 472 49 335 q 84 667 49 579 q 182 818 119 754 q 328 917 244 882 q 507 951 411 951 q 744 891 640 951 q 907 723 847 831 q 967 472 967 615 q 933 281 967 369 q 838 127 900 193 q 692 24 776 61 q 507 -12 608 -12 m 535 56 q 690 106 625 56 q 789 244 754 157 q 824 436 824 331 q 778 663 824 561 q 656 825 733 765 q 478 885 578 885 q 331 838 396 885 q 229 707 267 792 q 192 510 192 622 q 214 340 192 422 q 280 194 236 258 q 388 93 324 131 q 535 56 451 56 m 318 1011 q 302 1033 307 1018 q 296 1058 297 1049 q 396 1131 343 1089 q 490 1214 449 1172 q 515 1218 501 1217 q 539 1219 529 1219 q 618 1136 572 1181 q 719 1047 664 1092 q 700 1028 713 1036 q 672 1015 688 1019 q 588 1066 633 1039 q 503 1111 543 1093 q 447 1083 483 1103 q 375 1044 411 1064 q 318 1011 339 1025 m 661 1200 q 643 1243 643 1222 q 656 1278 643 1265 q 687 1302 669 1292 q 717 1323 704 1313 q 731 1350 731 1333 q 719 1371 731 1364 q 689 1378 708 1378 q 642 1360 658 1378 q 621 1297 626 1342 q 585 1301 604 1297 q 556 1310 567 1304 q 559 1349 558 1333 q 556 1386 560 1365 q 610 1417 578 1403 q 694 1431 642 1431 q 786 1411 750 1431 q 822 1353 822 1392 q 806 1308 822 1326 q 768 1278 789 1290 q 731 1253 747 1265 q 714 1225 714 1242 q 717 1207 714 1218 q 690 1201 703 1203 q 661 1200 676 1200 z "},"Ỗ":{"ha":1015,"x_min":49,"x_max":967,"o":"m 507 -12 q 267 51 369 -12 q 106 225 164 115 q 49 472 49 335 q 84 667 49 579 q 182 818 119 754 q 328 917 244 882 q 507 951 411 951 q 744 891 640 951 q 907 723 847 831 q 967 472 967 615 q 933 281 967 369 q 838 127 900 193 q 692 24 776 61 q 507 -12 608 -12 m 535 56 q 690 106 625 56 q 789 244 754 157 q 824 436 824 331 q 778 663 824 561 q 656 825 733 765 q 478 885 578 885 q 331 838 396 885 q 229 707 267 792 q 192 510 192 622 q 214 340 192 422 q 280 194 236 258 q 388 93 324 131 q 535 56 451 56 m 318 1011 q 302 1033 307 1018 q 296 1058 297 1049 q 396 1131 343 1089 q 490 1214 449 1172 q 515 1218 501 1217 q 539 1219 529 1219 q 618 1136 572 1181 q 719 1047 664 1092 q 700 1028 713 1036 q 672 1015 688 1019 q 588 1066 633 1039 q 503 1111 543 1093 q 447 1083 483 1103 q 375 1044 411 1064 q 318 1011 339 1025 m 588 1292 q 539 1299 563 1292 q 493 1316 515 1307 q 448 1333 471 1325 q 400 1340 425 1340 q 349 1329 374 1340 q 301 1296 325 1318 q 288 1314 292 1303 q 283 1339 283 1325 q 363 1410 324 1392 q 438 1429 401 1429 q 504 1417 474 1429 q 563 1394 535 1406 q 619 1382 590 1382 q 660 1391 640 1382 q 697 1418 679 1400 q 716 1413 704 1417 q 733 1399 728 1408 q 665 1317 703 1342 q 588 1292 628 1292 z "},"Ȍ":{"ha":1015,"x_min":49,"x_max":967,"o":"m 507 -12 q 267 51 369 -12 q 106 225 164 115 q 49 472 49 335 q 84 667 49 579 q 182 818 119 754 q 328 917 244 882 q 507 951 411 951 q 744 891 640 951 q 907 723 847 831 q 967 472 967 615 q 933 281 967 369 q 838 127 900 193 q 692 24 776 61 q 507 -12 608 -12 m 535 56 q 690 106 625 56 q 789 244 754 157 q 824 436 824 331 q 778 663 824 561 q 656 825 733 765 q 478 885 578 885 q 331 838 396 885 q 229 707 267 792 q 192 510 192 622 q 214 340 192 422 q 280 194 236 258 q 388 93 324 131 q 535 56 451 56 m 390 1003 q 310 1101 347 1058 q 236 1181 274 1143 q 294 1197 260 1193 q 361 1197 328 1200 q 399 1106 379 1154 q 446 1010 419 1058 q 421 1003 433 1004 q 390 1003 408 1003 m 599 1003 q 519 1101 556 1058 q 444 1181 482 1143 q 502 1197 468 1193 q 569 1197 536 1200 q 608 1106 588 1154 q 654 1010 628 1058 q 629 1003 642 1004 q 599 1003 617 1003 z "},"Ö":{"ha":1015,"x_min":49,"x_max":967,"o":"m 507 -12 q 267 51 369 -12 q 106 225 164 115 q 49 472 49 335 q 84 667 49 579 q 182 818 119 754 q 328 917 244 882 q 507 951 411 951 q 744 891 640 951 q 907 723 847 831 q 967 472 967 615 q 933 281 967 369 q 838 127 900 193 q 692 24 776 61 q 507 -12 608 -12 m 535 56 q 690 106 625 56 q 789 244 754 157 q 824 436 824 331 q 778 663 824 561 q 656 825 733 765 q 478 885 578 885 q 331 838 396 885 q 229 707 267 792 q 192 510 192 622 q 214 340 192 422 q 280 194 236 258 q 388 93 324 131 q 535 56 451 56 m 646 1017 q 585 1039 606 1017 q 564 1096 564 1061 q 585 1148 564 1129 q 642 1167 607 1167 q 699 1147 676 1167 q 721 1096 721 1128 q 704 1042 721 1067 q 646 1017 688 1017 m 374 1017 q 317 1037 339 1017 q 294 1088 294 1057 q 313 1142 294 1118 q 371 1167 331 1167 q 431 1144 413 1167 q 450 1090 450 1122 q 428 1038 450 1058 q 374 1017 406 1017 z "},"Ȫ":{"ha":1015,"x_min":49,"x_max":967,"o":"m 507 -12 q 267 51 369 -12 q 106 225 164 115 q 49 472 49 335 q 84 667 49 579 q 182 818 119 754 q 328 917 244 882 q 507 951 411 951 q 744 891 640 951 q 907 723 847 831 q 967 472 967 615 q 933 281 967 369 q 838 127 900 193 q 692 24 776 61 q 507 -12 608 -12 m 535 56 q 690 106 625 56 q 789 244 754 157 q 824 436 824 331 q 778 663 824 561 q 656 825 733 765 q 478 885 578 885 q 331 838 396 885 q 229 707 267 792 q 192 510 192 622 q 214 340 192 422 q 280 194 236 258 q 388 93 324 131 q 535 56 451 56 m 646 1017 q 585 1039 606 1017 q 564 1096 564 1061 q 585 1148 564 1129 q 642 1167 607 1167 q 699 1147 676 1167 q 721 1096 721 1128 q 704 1042 721 1067 q 646 1017 688 1017 m 374 1017 q 317 1037 339 1017 q 294 1088 294 1057 q 313 1142 294 1118 q 371 1167 331 1167 q 431 1144 413 1167 q 450 1090 450 1122 q 428 1038 450 1058 q 374 1017 406 1017 m 761 1332 q 758 1303 761 1318 q 749 1272 756 1288 q 654 1272 726 1272 q 478 1272 582 1272 q 256 1268 375 1271 q 259 1298 256 1276 q 268 1332 263 1319 l 761 1332 z "},"Ȱ":{"ha":1015,"x_min":49,"x_max":967,"o":"m 507 -12 q 267 51 369 -12 q 106 225 164 115 q 49 472 49 335 q 84 667 49 579 q 182 818 119 754 q 328 917 244 882 q 507 951 411 951 q 744 891 640 951 q 907 723 847 831 q 967 472 967 615 q 933 281 967 369 q 838 127 900 193 q 692 24 776 61 q 507 -12 608 -12 m 535 56 q 690 106 625 56 q 789 244 754 157 q 824 436 824 331 q 778 663 824 561 q 656 825 733 765 q 478 885 578 885 q 331 838 396 885 q 229 707 267 792 q 192 510 192 622 q 214 340 192 422 q 280 194 236 258 q 388 93 324 131 q 535 56 451 56 m 507 1000 q 449 1024 472 1000 q 425 1081 425 1047 q 450 1142 425 1118 q 507 1165 475 1165 q 567 1142 544 1165 q 590 1081 590 1118 q 566 1024 590 1049 q 507 1000 542 1000 m 761 1289 q 758 1260 761 1275 q 749 1229 756 1244 q 654 1229 726 1229 q 478 1228 582 1229 q 256 1225 375 1228 q 259 1255 256 1233 q 268 1289 263 1276 l 761 1289 z "},"Ọ":{"ha":1015,"x_min":49,"x_max":967,"o":"m 507 -12 q 267 51 369 -12 q 106 225 164 115 q 49 472 49 335 q 84 667 49 579 q 182 818 119 754 q 328 917 244 882 q 507 951 411 951 q 744 891 640 951 q 907 723 847 831 q 967 472 967 615 q 933 281 967 369 q 838 127 900 193 q 692 24 776 61 q 507 -12 608 -12 m 535 56 q 690 106 625 56 q 789 244 754 157 q 824 436 824 331 q 778 663 824 561 q 656 825 733 765 q 478 885 578 885 q 331 838 396 885 q 229 707 267 792 q 192 510 192 622 q 214 340 192 422 q 280 194 236 258 q 388 93 324 131 q 535 56 451 56 m 507 -292 q 449 -268 472 -292 q 425 -211 425 -244 q 450 -150 425 -174 q 507 -126 475 -126 q 567 -150 544 -126 q 590 -211 590 -174 q 566 -267 590 -243 q 507 -292 542 -292 z "},"Ò":{"ha":1015,"x_min":49,"x_max":967,"o":"m 507 -12 q 267 51 369 -12 q 106 225 164 115 q 49 472 49 335 q 84 667 49 579 q 182 818 119 754 q 328 917 244 882 q 507 951 411 951 q 744 891 640 951 q 907 723 847 831 q 967 472 967 615 q 933 281 967 369 q 838 127 900 193 q 692 24 776 61 q 507 -12 608 -12 m 535 56 q 690 106 625 56 q 789 244 754 157 q 824 436 824 331 q 778 663 824 561 q 656 825 733 765 q 478 885 578 885 q 331 838 396 885 q 229 707 267 792 q 192 510 192 622 q 214 340 192 422 q 280 194 236 258 q 388 93 324 131 q 535 56 451 56 m 499 1017 q 419 1115 456 1072 q 344 1194 382 1157 q 402 1210 368 1207 q 469 1211 436 1214 q 508 1120 488 1168 q 554 1024 528 1072 q 529 1017 542 1018 q 499 1017 517 1017 z "},"Ỏ":{"ha":1015,"x_min":49,"x_max":967,"o":"m 507 -12 q 267 51 369 -12 q 106 225 164 115 q 49 472 49 335 q 84 667 49 579 q 182 818 119 754 q 328 917 244 882 q 507 951 411 951 q 744 891 640 951 q 907 723 847 831 q 967 472 967 615 q 933 281 967 369 q 838 127 900 193 q 692 24 776 61 q 507 -12 608 -12 m 535 56 q 690 106 625 56 q 789 244 754 157 q 824 436 824 331 q 778 663 824 561 q 656 825 733 765 q 478 885 578 885 q 331 838 396 885 q 229 707 267 792 q 192 510 192 622 q 214 340 192 422 q 280 194 236 258 q 388 93 324 131 q 535 56 451 56 m 481 1008 q 463 1051 463 1031 q 476 1087 463 1074 q 506 1110 489 1100 q 537 1131 524 1121 q 550 1158 550 1142 q 539 1179 550 1172 q 508 1186 528 1186 q 462 1168 478 1186 q 440 1106 446 1150 q 405 1109 424 1106 q 375 1118 386 1113 q 378 1158 378 1142 q 375 1194 379 1174 q 429 1225 397 1211 q 514 1239 461 1239 q 606 1219 569 1239 q 642 1161 642 1200 q 625 1117 642 1135 q 588 1086 608 1099 q 550 1062 567 1074 q 533 1033 533 1050 q 536 1015 533 1026 q 509 1010 522 1011 q 481 1008 496 1008 z "},"Ơ":{"ha":1015,"x_min":49,"x_max":967,"o":"m 507 -12 q 267 51 369 -12 q 106 225 164 115 q 49 472 49 335 q 84 667 49 579 q 182 818 119 754 q 328 917 244 882 q 507 951 411 951 q 744 891 640 951 q 907 723 847 831 q 967 472 967 615 q 933 281 967 369 q 838 127 900 193 q 692 24 776 61 q 507 -12 608 -12 m 535 56 q 690 106 625 56 q 789 244 754 157 q 824 436 824 331 q 778 663 824 561 q 656 825 733 765 q 478 885 578 885 q 331 838 396 885 q 229 707 267 792 q 192 510 192 622 q 214 340 192 422 q 280 194 236 258 q 388 93 324 131 q 535 56 451 56 m 760 875 l 507 951 q 621 943 574 951 q 724 935 668 935 q 819 953 783 935 q 854 1036 854 972 q 846 1101 854 1067 q 885 1113 864 1110 q 928 1114 906 1117 q 957 1029 957 1075 q 930 949 957 983 q 858 894 903 914 q 760 875 814 875 z "},"Ớ":{"ha":1015,"x_min":49,"x_max":967,"o":"m 507 -12 q 267 51 369 -12 q 106 225 164 115 q 49 472 49 335 q 84 667 49 579 q 182 818 119 754 q 328 917 244 882 q 507 951 411 951 q 744 891 640 951 q 907 723 847 831 q 967 472 967 615 q 933 281 967 369 q 838 127 900 193 q 692 24 776 61 q 507 -12 608 -12 m 535 56 q 690 106 625 56 q 789 244 754 157 q 824 436 824 331 q 778 663 824 561 q 656 825 733 765 q 478 885 578 885 q 331 838 396 885 q 229 707 267 792 q 192 510 192 622 q 214 340 192 422 q 280 194 236 258 q 388 93 324 131 q 535 56 451 56 m 760 875 l 507 951 q 621 943 574 951 q 724 935 668 935 q 819 953 783 935 q 854 1036 854 972 q 846 1101 854 1067 q 885 1113 864 1110 q 928 1114 906 1117 q 957 1029 957 1075 q 930 949 957 983 q 858 894 903 914 q 760 875 814 875 m 518 1017 q 488 1017 500 1017 q 463 1024 475 1018 q 506 1119 486 1072 q 540 1210 526 1167 q 574 1217 557 1214 q 607 1219 590 1219 q 672 1208 643 1219 q 598 1118 635 1164 q 518 1017 561 1072 z "},"Ợ":{"ha":1015,"x_min":49,"x_max":967,"o":"m 507 -12 q 267 51 369 -12 q 106 225 164 115 q 49 472 49 335 q 84 667 49 579 q 182 818 119 754 q 328 917 244 882 q 507 951 411 951 q 744 891 640 951 q 907 723 847 831 q 967 472 967 615 q 933 281 967 369 q 838 127 900 193 q 692 24 776 61 q 507 -12 608 -12 m 535 56 q 690 106 625 56 q 789 244 754 157 q 824 436 824 331 q 778 663 824 561 q 656 825 733 765 q 478 885 578 885 q 331 838 396 885 q 229 707 267 792 q 192 510 192 622 q 214 340 192 422 q 280 194 236 258 q 388 93 324 131 q 535 56 451 56 m 760 875 l 507 951 q 621 943 574 951 q 724 935 668 935 q 819 953 783 935 q 854 1036 854 972 q 846 1101 854 1067 q 885 1113 864 1110 q 928 1114 906 1117 q 957 1029 957 1075 q 930 949 957 983 q 858 894 903 914 q 760 875 814 875 m 507 -292 q 449 -268 472 -292 q 425 -211 425 -244 q 450 -150 425 -174 q 507 -126 475 -126 q 567 -150 544 -126 q 590 -211 590 -174 q 566 -267 590 -243 q 507 -292 542 -292 z "},"Ờ":{"ha":1015,"x_min":49,"x_max":967,"o":"m 507 -12 q 267 51 369 -12 q 106 225 164 115 q 49 472 49 335 q 84 667 49 579 q 182 818 119 754 q 328 917 244 882 q 507 951 411 951 q 744 891 640 951 q 907 723 847 831 q 967 472 967 615 q 933 281 967 369 q 838 127 900 193 q 692 24 776 61 q 507 -12 608 -12 m 535 56 q 690 106 625 56 q 789 244 754 157 q 824 436 824 331 q 778 663 824 561 q 656 825 733 765 q 478 885 578 885 q 331 838 396 885 q 229 707 267 792 q 192 510 192 622 q 214 340 192 422 q 280 194 236 258 q 388 93 324 131 q 535 56 451 56 m 760 875 l 507 951 q 621 943 574 951 q 724 935 668 935 q 819 953 783 935 q 854 1036 854 972 q 846 1101 854 1067 q 885 1113 864 1110 q 928 1114 906 1117 q 957 1029 957 1075 q 930 949 957 983 q 858 894 903 914 q 760 875 814 875 m 499 1017 q 419 1115 456 1072 q 344 1194 382 1157 q 402 1210 368 1207 q 469 1211 436 1214 q 508 1120 488 1168 q 554 1024 528 1072 q 529 1017 542 1018 q 499 1017 517 1017 z "},"Ở":{"ha":1015,"x_min":49,"x_max":967,"o":"m 507 -12 q 267 51 369 -12 q 106 225 164 115 q 49 472 49 335 q 84 667 49 579 q 182 818 119 754 q 328 917 244 882 q 507 951 411 951 q 744 891 640 951 q 907 723 847 831 q 967 472 967 615 q 933 281 967 369 q 838 127 900 193 q 692 24 776 61 q 507 -12 608 -12 m 535 56 q 690 106 625 56 q 789 244 754 157 q 824 436 824 331 q 778 663 824 561 q 656 825 733 765 q 478 885 578 885 q 331 838 396 885 q 229 707 267 792 q 192 510 192 622 q 214 340 192 422 q 280 194 236 258 q 388 93 324 131 q 535 56 451 56 m 760 875 l 507 951 q 621 943 574 951 q 724 935 668 935 q 819 953 783 935 q 854 1036 854 972 q 846 1101 854 1067 q 885 1113 864 1110 q 928 1114 906 1117 q 957 1029 957 1075 q 930 949 957 983 q 858 894 903 914 q 760 875 814 875 m 481 1008 q 463 1051 463 1031 q 476 1087 463 1074 q 506 1110 489 1100 q 537 1131 524 1121 q 550 1158 550 1142 q 539 1179 550 1172 q 508 1186 528 1186 q 462 1168 478 1186 q 440 1106 446 1150 q 405 1109 424 1106 q 375 1118 386 1113 q 378 1158 378 1142 q 375 1194 379 1174 q 429 1225 397 1211 q 514 1239 461 1239 q 606 1219 569 1239 q 642 1161 642 1200 q 625 1117 642 1135 q 588 1086 608 1099 q 550 1062 567 1074 q 533 1033 533 1050 q 536 1015 533 1026 q 509 1010 522 1011 q 481 1008 496 1008 z "},"Ỡ":{"ha":1015,"x_min":49,"x_max":967,"o":"m 507 -12 q 267 51 369 -12 q 106 225 164 115 q 49 472 49 335 q 84 667 49 579 q 182 818 119 754 q 328 917 244 882 q 507 951 411 951 q 744 891 640 951 q 907 723 847 831 q 967 472 967 615 q 933 281 967 369 q 838 127 900 193 q 692 24 776 61 q 507 -12 608 -12 m 535 56 q 690 106 625 56 q 789 244 754 157 q 824 436 824 331 q 778 663 824 561 q 656 825 733 765 q 478 885 578 885 q 331 838 396 885 q 229 707 267 792 q 192 510 192 622 q 214 340 192 422 q 280 194 236 258 q 388 93 324 131 q 535 56 451 56 m 760 875 l 507 951 q 621 943 574 951 q 724 935 668 935 q 819 953 783 935 q 854 1036 854 972 q 846 1101 854 1067 q 885 1113 864 1110 q 928 1114 906 1117 q 957 1029 957 1075 q 930 949 957 983 q 858 894 903 914 q 760 875 814 875 m 588 1039 q 539 1047 563 1039 q 493 1063 515 1054 q 448 1080 471 1072 q 400 1088 425 1088 q 349 1076 374 1088 q 301 1043 325 1065 q 288 1061 292 1050 q 283 1086 283 1072 q 363 1158 324 1139 q 438 1176 401 1176 q 504 1165 474 1176 q 563 1141 535 1153 q 619 1129 590 1129 q 660 1138 640 1129 q 697 1165 679 1147 q 716 1160 704 1164 q 733 1146 728 1156 q 665 1064 703 1089 q 588 1039 628 1039 z "},"Ő":{"ha":1015,"x_min":49,"x_max":967,"o":"m 507 -12 q 267 51 369 -12 q 106 225 164 115 q 49 472 49 335 q 84 667 49 579 q 182 818 119 754 q 328 917 244 882 q 507 951 411 951 q 744 891 640 951 q 907 723 847 831 q 967 472 967 615 q 933 281 967 369 q 838 127 900 193 q 692 24 776 61 q 507 -12 608 -12 m 535 56 q 690 106 625 56 q 789 244 754 157 q 824 436 824 331 q 778 663 824 561 q 656 825 733 765 q 478 885 578 885 q 331 838 396 885 q 229 707 267 792 q 192 510 192 622 q 214 340 192 422 q 280 194 236 258 q 388 93 324 131 q 535 56 451 56 m 622 1017 q 597 1022 610 1017 q 572 1036 583 1026 q 613 1126 596 1085 q 643 1206 629 1167 q 695 1219 671 1217 q 739 1222 719 1222 q 766 1219 754 1222 q 786 1213 778 1217 q 702 1117 746 1169 q 622 1017 658 1065 m 400 1017 q 374 1022 388 1017 q 350 1036 361 1026 q 390 1126 374 1085 q 421 1206 407 1167 q 473 1219 449 1217 q 517 1222 497 1222 q 544 1219 532 1222 q 564 1213 556 1217 q 479 1117 522 1169 q 400 1017 436 1065 z "},"Ȏ":{"ha":1015,"x_min":49,"x_max":967,"o":"m 507 -12 q 267 51 369 -12 q 106 225 164 115 q 49 472 49 335 q 84 667 49 579 q 182 818 119 754 q 328 917 244 882 q 507 951 411 951 q 744 891 640 951 q 907 723 847 831 q 967 472 967 615 q 933 281 967 369 q 838 127 900 193 q 692 24 776 61 q 507 -12 608 -12 m 535 56 q 690 106 625 56 q 789 244 754 157 q 824 436 824 331 q 778 663 824 561 q 656 825 733 765 q 478 885 578 885 q 331 838 396 885 q 229 707 267 792 q 192 510 192 622 q 214 340 192 422 q 280 194 236 258 q 388 93 324 131 q 535 56 451 56 m 301 1018 q 356 1159 301 1110 q 510 1208 410 1208 q 661 1161 608 1208 q 714 1024 714 1114 q 683 1013 700 1017 q 651 1011 667 1010 q 601 1090 643 1061 q 497 1119 560 1119 q 396 1090 435 1119 q 354 1011 357 1061 q 325 1012 339 1010 q 301 1018 311 1014 z "},"Ō":{"ha":1015,"x_min":49,"x_max":967,"o":"m 507 -12 q 267 51 369 -12 q 106 225 164 115 q 49 472 49 335 q 84 667 49 579 q 182 818 119 754 q 328 917 244 882 q 507 951 411 951 q 744 891 640 951 q 907 723 847 831 q 967 472 967 615 q 933 281 967 369 q 838 127 900 193 q 692 24 776 61 q 507 -12 608 -12 m 535 56 q 690 106 625 56 q 789 244 754 157 q 824 436 824 331 q 778 663 824 561 q 656 825 733 765 q 478 885 578 885 q 331 838 396 885 q 229 707 267 792 q 192 510 192 622 q 214 340 192 422 q 280 194 236 258 q 388 93 324 131 q 535 56 451 56 m 761 1118 q 758 1089 761 1104 q 749 1058 756 1074 q 654 1058 726 1058 q 478 1058 582 1058 q 256 1054 375 1057 q 259 1084 256 1063 q 268 1118 263 1106 l 761 1118 z "},"Ṓ":{"ha":1015,"x_min":49,"x_max":967,"o":"m 507 -12 q 267 51 369 -12 q 106 225 164 115 q 49 472 49 335 q 84 667 49 579 q 182 818 119 754 q 328 917 244 882 q 507 951 411 951 q 744 891 640 951 q 907 723 847 831 q 967 472 967 615 q 933 281 967 369 q 838 127 900 193 q 692 24 776 61 q 507 -12 608 -12 m 535 56 q 690 106 625 56 q 789 244 754 157 q 824 436 824 331 q 778 663 824 561 q 656 825 733 765 q 478 885 578 885 q 331 838 396 885 q 229 707 267 792 q 192 510 192 622 q 214 340 192 422 q 280 194 236 258 q 388 93 324 131 q 535 56 451 56 m 761 1118 q 758 1089 761 1104 q 749 1058 756 1074 q 654 1058 726 1058 q 478 1058 582 1058 q 256 1054 375 1057 q 259 1084 256 1063 q 268 1118 263 1106 l 761 1118 m 518 1196 q 488 1197 500 1196 q 463 1203 475 1197 q 506 1299 486 1251 q 540 1389 526 1346 q 574 1396 557 1393 q 607 1399 590 1399 q 672 1388 643 1399 q 598 1297 635 1343 q 518 1196 561 1251 z "},"Ṑ":{"ha":1015,"x_min":49,"x_max":967,"o":"m 507 -12 q 267 51 369 -12 q 106 225 164 115 q 49 472 49 335 q 84 667 49 579 q 182 818 119 754 q 328 917 244 882 q 507 951 411 951 q 744 891 640 951 q 907 723 847 831 q 967 472 967 615 q 933 281 967 369 q 838 127 900 193 q 692 24 776 61 q 507 -12 608 -12 m 535 56 q 690 106 625 56 q 789 244 754 157 q 824 436 824 331 q 778 663 824 561 q 656 825 733 765 q 478 885 578 885 q 331 838 396 885 q 229 707 267 792 q 192 510 192 622 q 214 340 192 422 q 280 194 236 258 q 388 93 324 131 q 535 56 451 56 m 761 1118 q 758 1089 761 1104 q 749 1058 756 1074 q 654 1058 726 1058 q 478 1058 582 1058 q 256 1054 375 1057 q 259 1084 256 1063 q 268 1118 263 1106 l 761 1118 m 499 1196 q 419 1294 456 1251 q 344 1374 382 1336 q 402 1390 368 1386 q 469 1390 436 1393 q 508 1299 488 1347 q 554 1203 528 1251 q 529 1197 542 1197 q 499 1196 517 1196 z "},"Ǫ":{"ha":1015,"x_min":49,"x_max":967,"o":"m 604 -350 q 542 -334 574 -350 q 490 -286 511 -318 q 469 -207 469 -254 q 487 -112 469 -157 q 551 -28 504 -68 q 682 47 597 13 l 711 33 q 608 -46 638 -1 q 578 -137 578 -90 q 604 -211 578 -192 q 657 -231 631 -231 q 724 -219 696 -231 q 730 -235 728 -226 q 733 -253 732 -243 q 733 -274 735 -262 q 681 -306 707 -287 q 631 -347 656 -324 q 618 -349 625 -349 q 604 -350 611 -350 m 507 -12 q 267 51 369 -12 q 106 225 164 115 q 49 472 49 335 q 84 667 49 579 q 182 818 119 754 q 328 917 244 882 q 507 951 411 951 q 744 891 640 951 q 907 723 847 831 q 967 472 967 615 q 933 281 967 369 q 838 127 900 193 q 692 24 776 61 q 507 -12 608 -12 m 535 56 q 690 106 625 56 q 789 244 754 157 q 824 436 824 331 q 778 663 824 561 q 656 825 733 765 q 478 885 578 885 q 331 838 396 885 q 229 707 267 792 q 192 510 192 622 q 214 340 192 422 q 280 194 236 258 q 388 93 324 131 q 535 56 451 56 z "},"Ø":{"ha":1015,"x_min":49,"x_max":967,"o":"m 507 -12 q 267 51 369 -12 q 106 225 164 115 q 49 472 49 335 q 84 667 49 579 q 182 818 119 754 q 328 917 244 882 q 507 951 411 951 q 744 891 640 951 q 907 723 847 831 q 967 472 967 615 q 933 281 967 369 q 838 127 900 193 q 692 24 776 61 q 507 -12 608 -12 m 535 56 q 690 106 625 56 q 789 244 754 157 q 824 436 824 331 q 778 663 824 561 q 656 825 733 765 q 478 885 578 885 q 331 838 396 885 q 229 707 267 792 q 192 510 192 622 q 214 340 192 422 q 280 194 236 258 q 388 93 324 131 q 535 56 451 56 m 747 850 l 839 974 q 878 969 860 974 q 910 951 896 965 l 799 804 l 747 850 m 236 88 l 136 -40 q 99 -31 117 -40 q 75 -10 82 -22 l 185 128 l 236 88 m 238 188 l 722 824 l 761 764 l 276 131 l 238 188 z "},"Ǿ":{"ha":1015,"x_min":49,"x_max":967,"o":"m 507 -12 q 267 51 369 -12 q 106 225 164 115 q 49 472 49 335 q 84 667 49 579 q 182 818 119 754 q 328 917 244 882 q 507 951 411 951 q 744 891 640 951 q 907 723 847 831 q 967 472 967 615 q 933 281 967 369 q 838 127 900 193 q 692 24 776 61 q 507 -12 608 -12 m 535 56 q 690 106 625 56 q 789 244 754 157 q 824 436 824 331 q 778 663 824 561 q 656 825 733 765 q 478 885 578 885 q 331 838 396 885 q 229 707 267 792 q 192 510 192 622 q 214 340 192 422 q 280 194 236 258 q 388 93 324 131 q 535 56 451 56 m 747 850 l 839 974 q 878 969 860 974 q 910 951 896 965 l 799 804 l 747 850 m 236 88 l 136 -40 q 99 -31 117 -40 q 75 -10 82 -22 l 185 128 l 236 88 m 238 188 l 722 824 l 761 764 l 276 131 l 238 188 m 518 1017 q 488 1017 500 1017 q 463 1024 475 1018 q 506 1119 486 1072 q 540 1210 526 1167 q 574 1217 557 1214 q 607 1219 590 1219 q 672 1208 643 1219 q 598 1118 635 1164 q 518 1017 561 1072 z "},"Õ":{"ha":1015,"x_min":49,"x_max":967,"o":"m 507 -12 q 267 51 369 -12 q 106 225 164 115 q 49 472 49 335 q 84 667 49 579 q 182 818 119 754 q 328 917 244 882 q 507 951 411 951 q 744 891 640 951 q 907 723 847 831 q 967 472 967 615 q 933 281 967 369 q 838 127 900 193 q 692 24 776 61 q 507 -12 608 -12 m 535 56 q 690 106 625 56 q 789 244 754 157 q 824 436 824 331 q 778 663 824 561 q 656 825 733 765 q 478 885 578 885 q 331 838 396 885 q 229 707 267 792 q 192 510 192 622 q 214 340 192 422 q 280 194 236 258 q 388 93 324 131 q 535 56 451 56 m 588 1039 q 539 1047 563 1039 q 493 1063 515 1054 q 448 1080 471 1072 q 400 1088 425 1088 q 349 1076 374 1088 q 301 1043 325 1065 q 288 1061 292 1050 q 283 1086 283 1072 q 363 1158 324 1139 q 438 1176 401 1176 q 504 1165 474 1176 q 563 1141 535 1153 q 619 1129 590 1129 q 660 1138 640 1129 q 697 1165 679 1147 q 716 1160 704 1164 q 733 1146 728 1156 q 665 1064 703 1089 q 588 1039 628 1039 z "},"Ṍ":{"ha":1015,"x_min":49,"x_max":967,"o":"m 507 -12 q 267 51 369 -12 q 106 225 164 115 q 49 472 49 335 q 84 667 49 579 q 182 818 119 754 q 328 917 244 882 q 507 951 411 951 q 744 891 640 951 q 907 723 847 831 q 967 472 967 615 q 933 281 967 369 q 838 127 900 193 q 692 24 776 61 q 507 -12 608 -12 m 535 56 q 690 106 625 56 q 789 244 754 157 q 824 436 824 331 q 778 663 824 561 q 656 825 733 765 q 478 885 578 885 q 331 838 396 885 q 229 707 267 792 q 192 510 192 622 q 214 340 192 422 q 280 194 236 258 q 388 93 324 131 q 535 56 451 56 m 588 1039 q 539 1047 563 1039 q 493 1063 515 1054 q 448 1080 471 1072 q 400 1088 425 1088 q 349 1076 374 1088 q 301 1043 325 1065 q 288 1061 292 1050 q 283 1086 283 1072 q 363 1158 324 1139 q 438 1176 401 1176 q 504 1165 474 1176 q 563 1141 535 1153 q 619 1129 590 1129 q 660 1138 640 1129 q 697 1165 679 1147 q 716 1160 704 1164 q 733 1146 728 1156 q 665 1064 703 1089 q 588 1039 628 1039 m 518 1240 q 488 1241 500 1240 q 463 1247 475 1242 q 506 1343 486 1296 q 540 1433 526 1390 q 574 1440 557 1438 q 607 1443 590 1443 q 672 1432 643 1443 q 598 1342 635 1388 q 518 1240 561 1296 z "},"Ṏ":{"ha":1015,"x_min":49,"x_max":967,"o":"m 507 -12 q 267 51 369 -12 q 106 225 164 115 q 49 472 49 335 q 84 667 49 579 q 182 818 119 754 q 328 917 244 882 q 507 951 411 951 q 744 891 640 951 q 907 723 847 831 q 967 472 967 615 q 933 281 967 369 q 838 127 900 193 q 692 24 776 61 q 507 -12 608 -12 m 535 56 q 690 106 625 56 q 789 244 754 157 q 824 436 824 331 q 778 663 824 561 q 656 825 733 765 q 478 885 578 885 q 331 838 396 885 q 229 707 267 792 q 192 510 192 622 q 214 340 192 422 q 280 194 236 258 q 388 93 324 131 q 535 56 451 56 m 588 1039 q 539 1047 563 1039 q 493 1063 515 1054 q 448 1080 471 1072 q 400 1088 425 1088 q 349 1076 374 1088 q 301 1043 325 1065 q 288 1061 292 1050 q 283 1086 283 1072 q 363 1158 324 1139 q 438 1176 401 1176 q 504 1165 474 1176 q 563 1141 535 1153 q 619 1129 590 1129 q 660 1138 640 1129 q 697 1165 679 1147 q 716 1160 704 1164 q 733 1146 728 1156 q 665 1064 703 1089 q 588 1039 628 1039 m 646 1240 q 585 1263 606 1240 q 564 1319 564 1285 q 585 1372 564 1353 q 642 1390 607 1390 q 699 1371 676 1390 q 721 1319 721 1351 q 704 1265 721 1290 q 646 1240 688 1240 m 374 1240 q 317 1260 339 1240 q 294 1311 294 1281 q 313 1366 294 1342 q 371 1390 331 1390 q 431 1368 413 1390 q 450 1314 450 1346 q 428 1261 450 1282 q 374 1240 406 1240 z "},"Ȭ":{"ha":1015,"x_min":49,"x_max":967,"o":"m 507 -12 q 267 51 369 -12 q 106 225 164 115 q 49 472 49 335 q 84 667 49 579 q 182 818 119 754 q 328 917 244 882 q 507 951 411 951 q 744 891 640 951 q 907 723 847 831 q 967 472 967 615 q 933 281 967 369 q 838 127 900 193 q 692 24 776 61 q 507 -12 608 -12 m 535 56 q 690 106 625 56 q 789 244 754 157 q 824 436 824 331 q 778 663 824 561 q 656 825 733 765 q 478 885 578 885 q 331 838 396 885 q 229 707 267 792 q 192 510 192 622 q 214 340 192 422 q 280 194 236 258 q 388 93 324 131 q 535 56 451 56 m 588 1039 q 539 1047 563 1039 q 493 1063 515 1054 q 448 1080 471 1072 q 400 1088 425 1088 q 349 1076 374 1088 q 301 1043 325 1065 q 288 1061 292 1050 q 283 1086 283 1072 q 363 1158 324 1139 q 438 1176 401 1176 q 504 1165 474 1176 q 563 1141 535 1153 q 619 1129 590 1129 q 660 1138 640 1129 q 697 1165 679 1147 q 716 1160 704 1164 q 733 1146 728 1156 q 665 1064 703 1089 q 588 1039 628 1039 m 761 1342 q 758 1313 761 1328 q 749 1282 756 1297 q 654 1282 726 1282 q 478 1281 582 1282 q 256 1278 375 1281 q 259 1308 256 1286 q 268 1342 263 1329 l 761 1342 z "},"Œ":{"ha":1335,"x_min":49,"x_max":1278,"o":"m 497 947 q 588 945 528 947 q 720 941 649 943 q 854 939 792 939 q 982 940 918 939 q 1103 941 1046 940 q 1201 942 1160 942 q 1208 875 1204 914 q 1218 797 1213 836 q 1231 728 1224 758 q 1203 715 1219 718 q 1168 711 1188 711 q 1145 794 1165 754 q 1076 860 1125 835 q 936 886 1028 886 l 711 886 q 854 728 810 829 q 903 503 899 626 l 922 503 q 1033 533 1004 503 q 1061 614 1061 563 q 1096 622 1081 619 q 1129 624 1111 624 q 1128 583 1129 610 q 1127 525 1128 556 q 1126 469 1126 494 q 1127 413 1126 444 q 1128 354 1128 382 q 1129 311 1129 326 q 1096 313 1111 311 q 1065 318 1081 314 q 1051 383 1063 356 q 1008 427 1040 411 q 911 443 976 443 l 901 443 q 852 224 896 325 q 715 63 808 124 l 974 63 q 1105 83 1060 63 q 1174 142 1150 103 q 1217 238 1197 181 q 1251 224 1238 232 q 1278 204 1265 217 q 1252 101 1263 157 q 1235 -3 1242 46 q 1163 -1 1208 -1 q 1059 -1 1118 -1 q 932 0 1000 0 q 759 -3 836 0 q 617 -9 682 -6 q 489 -12 551 -12 q 255 46 354 -12 q 102 210 156 104 q 49 463 49 317 q 103 719 49 611 q 259 888 158 828 q 497 947 360 947 m 478 881 q 323 832 389 881 q 222 696 257 783 q 186 489 186 608 q 225 258 186 356 q 336 108 264 161 q 507 56 408 56 q 636 99 579 56 q 727 229 693 142 q 761 450 761 317 q 719 692 761 597 q 613 834 678 788 q 478 881 549 881 z "},"P":{"ha":807,"x_min":78,"x_max":758,"o":"m 78 -4 q 79 30 78 15 q 85 56 81 44 q 143 69 122 58 q 172 105 164 79 q 181 176 181 131 l 181 763 q 172 835 181 810 q 143 871 164 860 q 85 883 122 882 q 79 910 81 894 q 78 943 78 925 q 183 940 132 940 q 267 939 233 939 q 322 940 286 939 q 392 941 357 940 q 443 942 426 942 q 628 904 558 942 q 728 806 697 867 q 758 672 758 744 q 723 519 758 593 q 618 399 688 446 q 443 351 549 351 q 346 367 385 351 q 343 396 343 382 q 347 424 343 410 q 383 417 365 419 q 421 415 401 415 q 517 433 472 415 q 589 498 561 451 q 617 632 617 544 q 562 812 617 743 q 382 881 507 881 q 347 878 367 881 q 290 868 326 876 l 311 889 l 311 204 q 324 113 311 144 q 364 70 336 82 q 435 56 392 58 q 440 30 439 44 q 442 -4 442 15 q 392 -2 421 -3 q 332 -1 364 -1 q 267 0 300 0 q 197 -1 235 0 q 128 -2 160 -1 q 78 -4 96 -3 z "},"Þ":{"ha":815,"x_min":78,"x_max":767,"o":"m 78 -4 q 79 30 78 15 q 85 56 81 44 q 143 69 122 58 q 172 105 164 79 q 181 176 181 131 l 181 763 q 172 835 181 810 q 143 871 164 860 q 85 883 122 882 q 79 910 81 894 q 78 943 78 925 q 131 941 104 942 q 188 940 158 940 q 246 939 217 939 q 304 940 276 939 q 359 941 332 940 q 414 943 386 942 q 413 910 414 925 q 407 883 411 894 q 349 871 371 882 q 319 835 328 860 q 311 763 311 810 l 311 204 q 324 113 311 144 q 364 70 336 82 q 435 56 392 58 q 440 30 439 44 q 442 -4 442 15 q 390 -2 419 -3 q 328 -1 361 -1 q 260 0 294 0 q 167 -1 217 0 q 78 -4 117 -1 m 451 210 q 398 214 422 210 q 354 224 374 218 q 352 247 351 235 q 356 269 353 260 q 392 264 374 265 q 432 263 410 263 q 530 279 483 263 q 606 339 576 296 q 635 463 635 382 q 578 631 635 565 q 397 697 521 697 q 355 695 375 697 q 299 685 335 693 l 240 747 q 304 748 265 747 q 388 749 343 749 q 472 750 433 750 q 640 715 575 750 q 735 622 704 681 q 767 492 767 563 q 731 361 767 426 q 626 253 696 296 q 451 210 557 210 z "}}}
